<svg xmlns="http://www.w3.org/2000/svg" version="1.1" width="1024" height="680">
<rect x="0" y="0" width="1024" height="680" fill="#a3aca9" />
<g transform="scale(4.000000) translate(0.5 0.5)">
<polygon fill="#1a2000" fill-opacity="0.501961" points="271,156 6,185 -16,101" />
<polygon fill="#fafafd" fill-opacity="0.501961" points="271,108 178,-16 -16,100" />
<polygon fill="#001744" fill-opacity="0.501961" points="271,122 248,185 101,123" />
<polygon fill="#edf1ff" fill-opacity="0.501961" points="-2,90 175,-16 -9,-11" />
<polygon fill="#746f18" fill-opacity="0.501961" points="-16,169 229,175 0,105" />
<polygon fill="#d1dadc" fill-opacity="0.501961" points="271,109 17,111 263,3" />
<polygon fill="#6091c6" fill-opacity="0.501961" points="271,106 149,142 25,110" />
<polygon fill="#364850" fill-opacity="0.501961" points="271,124 249,185 41,126" />
<polygon fill="#929fae" fill-opacity="0.501961" points="57,51 81,29 134,53" />
<polygon fill="#b9ccd3" fill-opacity="0.501961" points="67,121 156,102 -16,92" />
<polygon fill="#858535" fill-opacity="0.501961" points="24,185 -12,120 188,185" />
<polygon fill="#3e4330" fill-opacity="0.501961" points="271,148 129,169 262,185" />
<polygon fill="#a1aab6" fill-opacity="0.501961" points="140,28 93,22 138,-16" />
<polygon fill="#445e7e" fill-opacity="0.501961" points="181,157 265,117 89,128" />
<polygon fill="#dadcdf" fill-opacity="0.501961" points="245,29 271,90 120,-16" />
<polygon fill="#9bb7dd" fill-opacity="0.501961" points="-16,10 60,25 41,-16" />
<polygon fill="#7999c2" fill-opacity="0.501961" points="271,106 189,120 271,128" />
<polygon fill="#bbb5bc" fill-opacity="0.501961" points="68,138 54,142 63,130" />
<polygon fill="#eae7e1" fill-opacity="0.501961" points="52,85 9,27 54,28" />
<polygon fill="#9ca5bb" fill-opacity="0.501961" points="271,16 181,-16 194,19" />
<polygon fill="#9aa5af" fill-opacity="0.501961" points="97,62 127,71 69,72" />
<polygon fill="#324456" fill-opacity="0.501961" points="179,130 215,174 271,132" />
<polygon fill="#ffffff" fill-opacity="0.501961" points="186,10 151,12 159,-14" />
<polygon fill="#c4cbc8" fill-opacity="0.501961" points="271,72 264,113 123,103" />
<polygon fill="#e4e8ed" fill-opacity="0.501961" points="108,-8 97,32 33,-16" />
<polygon fill="#383e24" fill-opacity="0.501961" points="5,121 33,124 8,103" />
<polygon fill="#4a4d25" fill-opacity="0.501961" points="92,132 71,151 145,152" />
<polygon fill="#ebece6" fill-opacity="0.501961" points="176,84 66,56 129,55" />
<polygon fill="#58759f" fill-opacity="0.501961" points="126,122 56,117 87,131" />
<polygon fill="#f3f1e8" fill-opacity="0.501961" points="29,74 11,60 64,55" />
<polygon fill="#a2a7af" fill-opacity="0.501961" points="37,56 1,57 15,45" />
<polygon fill="#cdcec8" fill-opacity="0.501961" points="-16,86 87,95 26,112" />
<polygon fill="#92bcdc" fill-opacity="0.501961" points="119,122 165,106 68,109" />
<polygon fill="#bec7cf" fill-opacity="0.501961" points="240,66 271,34 136,36" />
<polygon fill="#8b8b40" fill-opacity="0.501961" points="116,149 138,166 62,169" />
<polygon fill="#f1f1ee" fill-opacity="0.501961" points="112,39 93,27 145,30" />
<polygon fill="#1c231f" fill-opacity="0.501961" points="223,183 262,173 246,155" />
<polygon fill="#fffff9" fill-opacity="0.501961" points="57,54 78,66 86,56" />
<polygon fill="#54582b" fill-opacity="0.501961" points="34,131 94,132 35,115" />
<polygon fill="#9da7b0" fill-opacity="0.501961" points="137,49 117,37 120,51" />
<polygon fill="#dddcd4" fill-opacity="0.501961" points="207,60 88,92 271,92" />
<polygon fill="#ecece7" fill-opacity="0.501961" points="148,41 119,57 171,47" />
<polygon fill="#616137" fill-opacity="0.501961" points="243,175 185,185 124,149" />
<polygon fill="#4e492f" fill-opacity="0.501961" points="37,162 61,166 73,158" />
<polygon fill="#e5e2dd" fill-opacity="0.501961" points="224,36 189,27 250,21" />
<polygon fill="#33381c" fill-opacity="0.501961" points="-3,179 54,185 -3,160" />
<polygon fill="#b1b9c3" fill-opacity="0.501961" points="77,19 151,8 138,29" />
<polygon fill="#7a794c" fill-opacity="0.501961" points="230,166 218,158 242,163" />
<polygon fill="#e1e0e0" fill-opacity="0.501961" points="-10,29 -10,54 75,24" />
<polygon fill="#565a2c" fill-opacity="0.501961" points="60,130 106,133 118,161" />
<polygon fill="#acb5ba" fill-opacity="0.501961" points="89,60 68,70 124,69" />
<polygon fill="#8f9aae" fill-opacity="0.501961" points="243,32 244,40 271,36" />
<polygon fill="#64673b" fill-opacity="0.501961" points="27,121 -5,103 10,104" />
<polygon fill="#b8c5d8" fill-opacity="0.501961" points="97,5 -16,15 47,28" />
<polygon fill="#34475a" fill-opacity="0.501961" points="236,124 161,152 219,169" />
<polygon fill="#47607a" fill-opacity="0.501961" points="166,150 210,126 78,123" />
<polygon fill="#7e9cbc" fill-opacity="0.501961" points="170,112 105,118 141,127" />
<polygon fill="#6d734b" fill-opacity="0.501961" points="93,139 110,129 67,129" />
<polygon fill="#96b8dc" fill-opacity="0.501961" points="11,-16 -10,5 57,7" />
<polygon fill="#b1b7bc" fill-opacity="0.501961" points="155,28 162,43 137,39" />
<polygon fill="#19191c" fill-opacity="0.501961" points="65,141 54,144 68,144" />
<polygon fill="#dfe1e0" fill-opacity="0.501961" points="184,0 147,63 191,27" />
<polygon fill="#ecebeb" fill-opacity="0.501961" points="55,4 58,-16 132,1" />
<polygon fill="#1d1f13" fill-opacity="0.501961" points="13,123 7,113 19,119" />
<polygon fill="#101315" fill-opacity="0.501961" points="106,152 104,147 112,143" />
<polygon fill="#c1c4c6" fill-opacity="0.501961" points="55,55 37,46 88,26" />
<polygon fill="#898673" fill-opacity="0.501961" points="56,139 73,130 44,134" />
<polygon fill="#9fadbb" fill-opacity="0.501961" points="92,37 55,48 91,56" />
<polygon fill="#e0ded8" fill-opacity="0.501961" points="213,51 271,41 233,59" />
<polygon fill="#5b5c30" fill-opacity="0.501961" points="35,129 37,111 60,156" />
<polygon fill="#9ea8b7" fill-opacity="0.501961" points="219,23 271,4 167,-16" />
<polygon fill="#8db8d9" fill-opacity="0.501961" points="99,112 52,108 55,120" />
<polygon fill="#a9b1b8" fill-opacity="0.501961" points="17,77 47,78 30,72" />
<polygon fill="#747d54" fill-opacity="0.501961" points="68,136 89,152 66,145" />
<polygon fill="#333717" fill-opacity="0.501961" points="73,150 91,135 92,143" />
<polygon fill="#b3c8d0" fill-opacity="0.501961" points="129,113 127,93 191,108" />
<polygon fill="#bccbd5" fill-opacity="0.501961" points="190,50 221,64 145,59" />
<polygon fill="#232817" fill-opacity="0.501961" points="259,174 224,163 220,179" />
<polygon fill="#bcc7cb" fill-opacity="0.501961" points="232,83 202,75 260,74" />
<polygon fill="#fffffa" fill-opacity="0.501961" points="96,59 111,56 127,64" />
<polygon fill="#2f3622" fill-opacity="0.501961" points="182,156 189,182 168,185" />
<polygon fill="#eae9e2" fill-opacity="0.501961" points="121,75 191,79 159,65" />
<polygon fill="#e9eced" fill-opacity="0.501961" points="76,18 59,23 94,24" />
<polygon fill="#e2dfd7" fill-opacity="0.501961" points="-16,71 20,70 17,91" />
<polygon fill="#b8c6d8" fill-opacity="0.501961" points="69,21 88,16 105,-13" />
<polygon fill="#907572" fill-opacity="0.501961" points="54,167 76,166 94,185" />
<polygon fill="#d3d6cf" fill-opacity="0.501961" points="75,104 38,63 190,95" />
<polygon fill="#d2d3d0" fill-opacity="0.501961" points="99,31 120,46 95,43" />
<polygon fill="#8fbde1" fill-opacity="0.501961" points="224,109 261,105 271,117" />
<polygon fill="#bbc1c7" fill-opacity="0.501961" points="164,11 179,15 141,24" />
<polygon fill="#728faf" fill-opacity="0.501961" points="92,116 75,126 57,118" />
<polygon fill="#a29d66" fill-opacity="0.501961" points="120,162 134,163 119,157" />
<polygon fill="#738fb1" fill-opacity="0.501961" points="215,111 260,116 215,124" />
<polygon fill="#f4f2ed" fill-opacity="0.501961" points="84,14 97,14 113,-6" />
<polygon fill="#787930" fill-opacity="0.501961" points="114,169 -7,114 -16,148" />
<polygon fill="#2a2a1c" fill-opacity="0.501961" points="122,138 123,151 116,143" />
<polygon fill="#9ca7b3" fill-opacity="0.501961" points="60,69 69,66 81,70" />
<polygon fill="#e7e4dc" fill-opacity="0.501961" points="262,73 207,71 246,62" />
<polygon fill="#b5c0cc" fill-opacity="0.501961" points="238,49 247,32 202,37" />
<polygon fill="#3e3e24" fill-opacity="0.501961" points="44,126 60,133 45,118" />
<polygon fill="#c2cfd4" fill-opacity="0.501961" points="149,61 105,56 139,50" />
<polygon fill="#565a32" fill-opacity="0.501961" points="117,148 161,166 168,154" />
<polygon fill="#edece8" fill-opacity="0.501961" points="31,38 11,39 44,55" />
<polygon fill="#65643e" fill-opacity="0.501961" points="56,144 53,116 47,140" />
<polygon fill="#354755" fill-opacity="0.501961" points="182,164 229,131 271,150" />
<polygon fill="#fbfcf7" fill-opacity="0.501961" points="160,-11 173,5 153,15" />
<polygon fill="#446384" fill-opacity="0.501961" points="148,126 105,124 115,139" />
<polygon fill="#272a2a" fill-opacity="0.501961" points="87,154 93,153 97,148" />
<polygon fill="#7e824a" fill-opacity="0.501961" points="86,146 92,145 84,158" />
<polygon fill="#5f6337" fill-opacity="0.501961" points="19,110 -16,97 4,122" />
<polygon fill="#87add2" fill-opacity="0.501961" points="146,110 178,119 212,106" />
<polygon fill="#858342" fill-opacity="0.501961" points="0,148 38,177 52,169" />
<polygon fill="#9dadbb" fill-opacity="0.501961" points="34,82 48,85 37,86" />
<polygon fill="#040008" fill-opacity="0.501961" points="153,167 141,174 172,185" />
<polygon fill="#ebebe3" fill-opacity="0.501961" points="198,78 175,85 222,84" />
<polygon fill="#5c582f" fill-opacity="0.501961" points="52,154 38,163 30,157" />
<polygon fill="#abb2ba" fill-opacity="0.501961" points="218,23 186,9 197,-16" />
<polygon fill="#f3f0e4" fill-opacity="0.501961" points="75,84 59,89 89,88" />
<polygon fill="#a8b3bd" fill-opacity="0.501961" points="211,82 214,88 205,88" />
<polygon fill="#aeb6bc" fill-opacity="0.501961" points="104,74 120,66 105,63" />
<polygon fill="#f6f4eb" fill-opacity="0.501961" points="96,60 102,67 106,62" />
<polygon fill="#282623" fill-opacity="0.501961" points="51,140 45,138 45,141" />
<polygon fill="#f6f2ec" fill-opacity="0.501961" points="1,52 -5,48 15,41" />
<polygon fill="#686e44" fill-opacity="0.501961" points="187,185 217,168 180,164" />
<polygon fill="#747546" fill-opacity="0.501961" points="163,175 156,167 180,163" />
<polygon fill="#878838" fill-opacity="0.501961" points="112,161 105,185 100,144" />
<polygon fill="#2c2f15" fill-opacity="0.501961" points="71,134 79,134 73,139" />
<polygon fill="#6f6e46" fill-opacity="0.501961" points="146,154 129,171 162,157" />
<polygon fill="#7693b6" fill-opacity="0.501961" points="163,121 206,111 218,123" />
<polygon fill="#c0cad0" fill-opacity="0.501961" points="225,59 271,45 242,74" />
<polygon fill="#d7d8d5" fill-opacity="0.501961" points="134,66 215,83 196,59" />
<polygon fill="#6c7258" fill-opacity="0.501961" points="82,135 90,131 65,122" />
<polygon fill="#c1c8c6" fill-opacity="0.501961" points="251,105 209,94 174,106" />
<polygon fill="#cfd3d3" fill-opacity="0.501961" points="40,40 29,61 65,53" />
<polygon fill="#666639" fill-opacity="0.501961" points="234,156 244,152 253,154" />
<polygon fill="#a6b2c0" fill-opacity="0.501961" points="91,19 128,22 107,27" />
<polygon fill="#393e25" fill-opacity="0.501961" points="167,155 167,164 159,151" />
<polygon fill="#364b60" fill-opacity="0.501961" points="211,139 202,164 146,147" />
<polygon fill="#c5ccca" fill-opacity="0.501961" points="95,94 141,104 52,109" />
<polygon fill="#292a16" fill-opacity="0.501961" points="243,165 238,157 250,154" />
<polygon fill="#767a3d" fill-opacity="0.501961" points="88,134 55,164 67,143" />
<polygon fill="#818262" fill-opacity="0.501961" points="234,166 230,159 239,163" />
<polygon fill="#e7e8e6" fill-opacity="0.501961" points="47,47 62,23 41,33" />
<polygon fill="#e0e2e0" fill-opacity="0.501961" points="117,32 138,26 134,43" />
<polygon fill="#484c2c" fill-opacity="0.501961" points="18,118 22,112 20,107" />
<polygon fill="#4f5431" fill-opacity="0.501961" points="152,161 134,150 116,151" />
<polygon fill="#c8ccca" fill-opacity="0.501961" points="60,95 12,90 16,108" />
<polygon fill="#f2f3ee" fill-opacity="0.501961" points="119,35 108,33 110,44" />
<polygon fill="#a2afbe" fill-opacity="0.501961" points="74,48 71,27 108,52" />
<polygon fill="#a1aeb5" fill-opacity="0.501961" points="135,75 130,80 137,80" />
<polygon fill="#d7d8d5" fill-opacity="0.501961" points="225,40 234,53 177,53" />
<polygon fill="#4a442d" fill-opacity="0.501961" points="68,163 59,168 55,164" />
<polygon fill="#fefdf9" fill-opacity="0.501961" points="85,2 100,-16 55,-1" />
<polygon fill="#878465" fill-opacity="0.501961" points="47,138 50,134 35,137" />
<polygon fill="#c5c6cb" fill-opacity="0.501961" points="260,8 271,28 227,36" />
<polygon fill="#aaa998" fill-opacity="0.501961" points="71,141 63,139 61,134" />
<polygon fill="#cfd1d6" fill-opacity="0.501961" points="-13,47 38,28 -16,17" />
<polygon fill="#938251" fill-opacity="0.501961" points="44,162 51,170 59,167" />
<polygon fill="#263a52" fill-opacity="0.501961" points="228,185 264,145 271,158" />
<polygon fill="#e4e4e0" fill-opacity="0.501961" points="166,42 149,57 177,54" />
<polygon fill="#bcc1c3" fill-opacity="0.501961" points="87,52 73,57 58,47" />
<polygon fill="#ecedea" fill-opacity="0.501961" points="182,21 189,15 174,-5" />
<polygon fill="#3f5369" fill-opacity="0.501961" points="232,129 164,138 192,122" />
<polygon fill="#f3f1e9" fill-opacity="0.501961" points="123,56 136,56 136,50" />
<polygon fill="#93b9d2" fill-opacity="0.501961" points="40,113 60,117 50,110" />
<polygon fill="#384233" fill-opacity="0.501961" points="78,150 70,148 73,145" />
<polygon fill="#151317" fill-opacity="0.501961" points="67,146 63,143 63,140" />
<polygon fill="#f8f7f2" fill-opacity="0.501961" points="84,64 87,54 70,59" />
<polygon fill="#b6c1c6" fill-opacity="0.501961" points="162,83 149,87 135,83" />
<polygon fill="#91883a" fill-opacity="0.501961" points="-16,141 18,135 -8,127" />
<polygon fill="#c2c5ca" fill-opacity="0.501961" points="132,-16 179,-13 98,13" />
<polygon fill="#d8dbdb" fill-opacity="0.501961" points="209,37 138,28 188,20" />
<polygon fill="#496176" fill-opacity="0.501961" points="116,137 145,147 182,133" />
<polygon fill="#7d7d39" fill-opacity="0.501961" points="20,123 34,141 40,128" />
<polygon fill="#fcfaf2" fill-opacity="0.501961" points="99,24 89,24 92,31" />
<polygon fill="#e3e4dc" fill-opacity="0.501961" points="124,71 132,90 111,94" />
<polygon fill="#fefef7" fill-opacity="0.501961" points="125,66 131,61 117,60" />
<polygon fill="#bdc8d7" fill-opacity="0.501961" points="89,16 -16,4 36,25" />
<polygon fill="#8eb6d4" fill-opacity="0.501961" points="83,107 112,119 73,116" />
<polygon fill="#ced3da" fill-opacity="0.501961" points="92,19 52,13 76,0" />
<polygon fill="#dbdad7" fill-opacity="0.501961" points="60,27 72,42 74,36" />
<polygon fill="#8a8a37" fill-opacity="0.501961" points="123,163 80,153 132,185" />
<polygon fill="#b2b9c2" fill-opacity="0.501961" points="111,40 68,34 83,27" />
<polygon fill="#484c29" fill-opacity="0.501961" points="30,114 40,119 44,114" />
<polygon fill="#585f3a" fill-opacity="0.501961" points="101,146 101,130 119,141" />
<polygon fill="#3b3e1f" fill-opacity="0.501961" points="40,128 40,139 44,134" />
<polygon fill="#808246" fill-opacity="0.501961" points="23,116 22,112 34,113" />
<polygon fill="#aeb7bd" fill-opacity="0.501961" points="82,73 105,73 91,57" />
<polygon fill="#e0e1dd" fill-opacity="0.501961" points="28,73 47,65 0,55" />
<polygon fill="#3b3724" fill-opacity="0.501961" points="21,129 19,129 18,123" />
<polygon fill="#394023" fill-opacity="0.501961" points="114,160 109,154 115,157" />
<polygon fill="#b2c6d4" fill-opacity="0.501961" points="218,53 187,55 216,61" />
<polygon fill="#beccd1" fill-opacity="0.501961" points="107,81 68,85 88,77" />
<polygon fill="#edebe1" fill-opacity="0.501961" points="21,81 34,78 37,84" />
<polygon fill="#6a6d3c" fill-opacity="0.501961" points="133,162 133,149 120,150" />
<polygon fill="#b3b7bd" fill-opacity="0.501961" points="41,47 36,38 43,45" />
<polygon fill="#696d36" fill-opacity="0.501961" points="63,131 75,126 86,136" />
<polygon fill="#16130c" fill-opacity="0.501961" points="178,164 184,185 174,185" />
<polygon fill="#899079" fill-opacity="0.501961" points="48,113 60,120 38,114" />
<polygon fill="#aab6be" fill-opacity="0.501961" points="28,82 35,86 21,86" />
<polygon fill="#cacfd5" fill-opacity="0.501961" points="149,25 195,29 161,10" />
<polygon fill="#b3bac1" fill-opacity="0.501961" points="62,74 49,71 55,76" />
<polygon fill="#3d431f" fill-opacity="0.501961" points="135,151 136,159 143,155" />
<polygon fill="#91bad8" fill-opacity="0.501961" points="220,106 234,111 204,111" />
<polygon fill="#2d321f" fill-opacity="0.501961" points="106,145 112,148 100,151" />
<polygon fill="#b0b7bc" fill-opacity="0.501961" points="115,55 116,40 138,49" />
<polygon fill="#6b713d" fill-opacity="0.501961" points="27,161 17,185 7,157" />
<polygon fill="#222211" fill-opacity="0.501961" points="84,138 85,143 91,145" />
<polygon fill="#445457" fill-opacity="0.501961" points="227,167 236,140 224,155" />
<polygon fill="#4a6584" fill-opacity="0.501961" points="103,131 77,124 84,131" />
<polygon fill="#b5cbd9" fill-opacity="0.501961" points="141,63 150,57 123,57" />
<polygon fill="#7c824c" fill-opacity="0.501961" points="77,140 70,143 84,152" />
<polygon fill="#dadbd6" fill-opacity="0.501961" points="141,60 109,80 179,61" />
<polygon fill="#77773f" fill-opacity="0.501961" points="120,163 112,150 114,142" />
<polygon fill="#b6bbc0" fill-opacity="0.501961" points="37,56 17,41 3,55" />
<polygon fill="#697c9b" fill-opacity="0.501961" points="254,128 231,122 271,118" />
<polygon fill="#aac5d7" fill-opacity="0.501961" points="173,55 184,59 198,54" />
<polygon fill="#5b623a" fill-opacity="0.501961" points="173,153 178,159 165,172" />
<polygon fill="#c8cccb" fill-opacity="0.501961" points="31,66 69,71 70,60" />
<polygon fill="#b1c5d6" fill-opacity="0.501961" points="223,36 188,37 203,43" />
<polygon fill="#82a7cc" fill-opacity="0.501961" points="167,117 106,121 137,109" />
<polygon fill="#ecede7" fill-opacity="0.501961" points="208,67 196,75 223,70" />
<polygon fill="#75784a" fill-opacity="0.501961" points="14,110 2,104 12,106" />
<polygon fill="#d4d3cf" fill-opacity="0.501961" points="246,68 195,55 204,69" />
<polygon fill="#6a713b" fill-opacity="0.501961" points="156,153 168,161 146,155" />
<polygon fill="#d3d6d2" fill-opacity="0.501961" points="92,53 77,68 102,55" />
<polygon fill="#edede3" fill-opacity="0.501961" points="62,84 48,77 45,82" />
<polygon fill="#424626" fill-opacity="0.501961" points="64,122 69,127 53,132" />
<polygon fill="#f5f6ef" fill-opacity="0.501961" points="148,70 170,76 136,76" />
<polygon fill="#3e442a" fill-opacity="0.501961" points="14,113 11,118 3,107" />
<polygon fill="#f3f3f2" fill-opacity="0.501961" points="95,5 105,7 106,-4" />
<polygon fill="#bbc2c8" fill-opacity="0.501961" points="128,29 174,15 128,15" />
<polygon fill="#a9b3bf" fill-opacity="0.501961" points="103,10 135,16 122,4" />
<polygon fill="#778157" fill-opacity="0.501961" points="59,119 53,123 53,129" />
<polygon fill="#dadbdb" fill-opacity="0.501961" points="137,5 160,20 151,-11" />
<polygon fill="#878a4f" fill-opacity="0.501961" points="5,112 -16,134 -16,112" />
<polygon fill="#9ca6b3" fill-opacity="0.501961" points="197,5 271,-12 227,23" />
<polygon fill="#76742b" fill-opacity="0.501961" points="47,162 -7,136 41,142" />
<polygon fill="#adc2d8" fill-opacity="0.501961" points="30,18 63,17 54,27" />
<polygon fill="#a29f87" fill-opacity="0.501961" points="66,140 64,134 53,138" />
<polygon fill="#c6cbc9" fill-opacity="0.501961" points="40,106 37,91 1,101" />
<polygon fill="#f2f0e8" fill-opacity="0.501961" points="244,71 271,63 271,73" />
<polygon fill="#d8dbdb" fill-opacity="0.501961" points="171,11 188,-3 186,9" />
<polygon fill="#e4e3df" fill-opacity="0.501961" points="79,74 65,76 53,70" />
<polygon fill="#c3cbcc" fill-opacity="0.501961" points="209,72 234,80 202,79" />
<polygon fill="#b3bcc2" fill-opacity="0.501961" points="185,85 185,88 196,88" />
<polygon fill="#32351b" fill-opacity="0.501961" points="73,130 76,131 75,138" />
<polygon fill="#4c4e29" fill-opacity="0.501961" points="133,151 128,158 129,139" />
<polygon fill="#eae9df" fill-opacity="0.501961" points="208,81 234,81 218,86" />
<polygon fill="#b9bebf" fill-opacity="0.501961" points="113,73 127,69 117,67" />
<polygon fill="#797d36" fill-opacity="0.501961" points="94,185 149,185 52,141" />
<polygon fill="#666a3a" fill-opacity="0.501961" points="30,111 26,113 34,126" />
<polygon fill="#d6d4d0" fill-opacity="0.501961" points="267,98 220,78 269,76" />
<polygon fill="#807f3b" fill-opacity="0.501961" points="43,137 10,142 21,129" />
<polygon fill="#7b9cc2" fill-opacity="0.501961" points="195,110 217,121 158,118" />
<polygon fill="#585b38" fill-opacity="0.501961" points="10,103 8,109 -7,112" />
<polygon fill="#928e45" fill-opacity="0.501961" points="124,164 118,155 139,165" />
<polygon fill="#7f8343" fill-opacity="0.501961" points="102,128 99,132 104,130" />
<polygon fill="#67798b" fill-opacity="0.501961" points="170,125 184,120 155,122" />
<polygon fill="#bec3c4" fill-opacity="0.501961" points="120,36 138,47 114,40" />
<polygon fill="#505431" fill-opacity="0.501961" points="91,141 103,141 90,130" />
<polygon fill="#eceeea" fill-opacity="0.501961" points="137,44 163,50 155,43" />
<polygon fill="#c4c8c8" fill-opacity="0.501961" points="137,54 154,48 148,57" />
<polygon fill="#676d41" fill-opacity="0.501961" points="197,163 234,180 177,185" />
<polygon fill="#484a2e" fill-opacity="0.501961" points="154,163 159,154 155,154" />
<polygon fill="#7b90a2" fill-opacity="0.501961" points="141,125 153,121 128,120" />
<polygon fill="#f2efe5" fill-opacity="0.501961" points="-2,83 -16,69 8,82" />
<polygon fill="#f0eddf" fill-opacity="0.501961" points="194,92 199,88 184,90" />
<polygon fill="#c5cdca" fill-opacity="0.501961" points="139,94 179,105 102,107" />
<polygon fill="#e2e2d7" fill-opacity="0.501961" points="57,93 65,87 40,89" />
<polygon fill="#2b2a25" fill-opacity="0.501961" points="61,141 63,145 68,140" />
<polygon fill="#3b4424" fill-opacity="0.501961" points="129,167 127,181 169,185" />
<polygon fill="#cdcecd" fill-opacity="0.501961" points="203,16 211,24 185,19" />
<polygon fill="#b1c4d3" fill-opacity="0.501961" points="264,59 247,62 241,51" />
<polygon fill="#464f2d" fill-opacity="0.501961" points="75,143 79,149 73,148" />
<polygon fill="#a89d77" fill-opacity="0.501961" points="67,167 84,170 98,185" />
<polygon fill="#dddeda" fill-opacity="0.501961" points="204,34 176,19 239,26" />
<polygon fill="#262919" fill-opacity="0.501961" points="237,165 271,185 200,185" />
<polygon fill="#43472c" fill-opacity="0.501961" points="92,154 85,155 99,146" />
<polygon fill="#393423" fill-opacity="0.501961" points="143,166 99,185 147,179" />
<polygon fill="#797462" fill-opacity="0.501961" points="54,138 61,132 50,134" />
<polygon fill="#f4f5f0" fill-opacity="0.501961" points="56,59 33,61 45,65" />
<polygon fill="#7a7059" fill-opacity="0.501961" points="152,163 142,160 149,167" />
<polygon fill="#f3f2e9" fill-opacity="0.501961" points="37,69 26,69 27,74" />
<polygon fill="#a9bbd4" fill-opacity="0.501961" points="-11,18 24,16 -4,10" />
<polygon fill="#848441" fill-opacity="0.501961" points="12,147 15,161 30,156" />
<polygon fill="#cdd2d1" fill-opacity="0.501961" points="146,79 187,77 167,85" />
<polygon fill="#dbdbd8" fill-opacity="0.501961" points="240,56 216,57 254,41" />
<polygon fill="#c5c9cb" fill-opacity="0.501961" points="169,37 137,41 158,44" />
<polygon fill="#b7bec2" fill-opacity="0.501961" points="19,79 48,76 19,71" />
<polygon fill="#47607b" fill-opacity="0.501961" points="135,143 205,123 149,123" />
<polygon fill="#e6e6e3" fill-opacity="0.501961" points="48,56 10,41 28,39" />
<polygon fill="#424a24" fill-opacity="0.501961" points="41,120 33,124 29,122" />
<polygon fill="#a9b1bc" fill-opacity="0.501961" points="11,47 30,54 14,58" />
<polygon fill="#697045" fill-opacity="0.501961" points="71,142 72,131 61,125" />
<polygon fill="#3d5976" fill-opacity="0.501961" points="124,143 123,127 132,137" />
<polygon fill="#e4e6de" fill-opacity="0.501961" points="169,87 188,85 161,79" />
<polygon fill="#707336" fill-opacity="0.501961" points="20,129 46,128 33,124" />
<polygon fill="#293538" fill-opacity="0.501961" points="217,164 243,170 220,180" />
<polygon fill="#c2c7ca" fill-opacity="0.501961" points="134,11 151,3 143,26" />
<polygon fill="#61643f" fill-opacity="0.501961" points="234,185 241,164 227,185" />
<polygon fill="#e5e6e2" fill-opacity="0.501961" points="45,73 56,67 37,67" />
<polygon fill="#b8c6db" fill-opacity="0.501961" points="59,8 51,16 38,-16" />
<polygon fill="#aeb6bd" fill-opacity="0.501961" points="161,40 152,32 142,37" />
<polygon fill="#88844b" fill-opacity="0.501961" points="70,146 55,144 65,150" />
<polygon fill="#aaa837" fill-opacity="0.501961" points="43,165 52,185 37,185" />
<polygon fill="#c9caca" fill-opacity="0.501961" points="-16,53 19,59 0,50" />
<polygon fill="#d7d8d8" fill-opacity="0.501961" points="235,20 223,27 250,22" />
<polygon fill="#ecede2" fill-opacity="0.501961" points="135,86 141,89 152,86" />
<polygon fill="#171a0b" fill-opacity="0.501961" points="12,123 16,118 11,120" />
<polygon fill="#a3c0d6" fill-opacity="0.501961" points="125,58 119,58 121,61" />
<polygon fill="#3c516c" fill-opacity="0.501961" points="226,133 231,124 261,130" />
<polygon fill="#738eac" fill-opacity="0.501961" points="257,118 233,124 213,117" />
<polygon fill="#cacdca" fill-opacity="0.501961" points="246,88 271,115 221,86" />
<polygon fill="#373720" fill-opacity="0.501961" points="6,166 -16,169 19,185" />
<polygon fill="#2d3b4b" fill-opacity="0.501961" points="271,143 237,149 271,154" />
<polygon fill="#bcc4c8" fill-opacity="0.501961" points="204,91 192,91 216,99" />
<polygon fill="#b0c6ce" fill-opacity="0.501961" points="31,106 37,107 33,112" />
<polygon fill="#424129" fill-opacity="0.501961" points="48,138 50,136 49,130" />
<polygon fill="#b8bcc2" fill-opacity="0.501961" points="218,-2 173,0 178,-16" />
<polygon fill="#97bdd6" fill-opacity="0.501961" points="61,117 71,109 33,109" />
<polygon fill="#70724a" fill-opacity="0.501961" points="96,151 84,146 90,151" />
<polygon fill="#3f4230" fill-opacity="0.501961" points="35,118 38,113 36,111" />
<polygon fill="#b4c9d1" fill-opacity="0.501961" points="23,112 31,107 25,105" />
<polygon fill="#60663c" fill-opacity="0.501961" points="52,116 53,125 63,128" />
<polygon fill="#bbccd3" fill-opacity="0.501961" points="194,72 201,79 191,75" />
<polygon fill="#7b7f4a" fill-opacity="0.501961" points="13,110 14,107 24,111" />
<polygon fill="#5f5e2f" fill-opacity="0.501961" points="84,143 87,140 88,144" />
<polygon fill="#fdfefa" fill-opacity="0.501961" points="66,54 58,56 71,58" />
<polygon fill="#1a1f1d" fill-opacity="0.501961" points="246,159 231,181 239,185" />
<polygon fill="#45596b" fill-opacity="0.501961" points="157,151 148,152 142,140" />
<polygon fill="#35381f" fill-opacity="0.501961" points="180,185 187,181 184,160" />
<polygon fill="#eceae3" fill-opacity="0.501961" points="24,68 17,71 32,73" />
<polygon fill="#d0d5d7" fill-opacity="0.501961" points="169,47 197,54 212,41" />
<polygon fill="#d1d3d2" fill-opacity="0.501961" points="16,44 28,51 20,36" />
<polygon fill="#dbdce0" fill-opacity="0.501961" points="69,6 62,11 55,-1" />
<polygon fill="#5e5d2b" fill-opacity="0.501961" points="27,147 19,148 13,144" />
<polygon fill="#7a7c43" fill-opacity="0.501961" points="33,115 35,120 24,120" />
<polygon fill="#cad0ce" fill-opacity="0.501961" points="129,88 137,83 114,83" />
<polygon fill="#b9c1c5" fill-opacity="0.501961" points="209,84 196,87 220,88" />
<polygon fill="#d3d5d5" fill-opacity="0.501961" points="4,59 9,68 30,68" />
<polygon fill="#eae9e1" fill-opacity="0.501961" points="14,79 40,79 28,83" />
<polygon fill="#aeb6bf" fill-opacity="0.501961" points="106,10 115,26 141,27" />
<polygon fill="#8b8e4f" fill-opacity="0.501961" points="74,141 71,144 77,147" />
<polygon fill="#d6d8d4" fill-opacity="0.501961" points="81,54 113,53 95,59" />
<polygon fill="#353d26" fill-opacity="0.501961" points="109,140 111,135 103,140" />
<polygon fill="#e4e0d4" fill-opacity="0.501961" points="208,89 210,95 223,92" />
<polygon fill="#a6b1ba" fill-opacity="0.501961" points="63,68 70,67 75,72" />
<polygon fill="#8c8a51" fill-opacity="0.501961" points="44,130 50,138 44,135" />
<polygon fill="#2c2c1c" fill-opacity="0.501961" points="45,119 48,120 41,122" />
<polygon fill="#576d7b" fill-opacity="0.501961" points="149,137 134,145 132,140" />
<polygon fill="#2f3f51" fill-opacity="0.501961" points="211,149 231,137 211,170" />
<polygon fill="#bdc5c8" fill-opacity="0.501961" points="143,75 143,79 152,81" />
<polygon fill="#6d702e" fill-opacity="0.501961" points="-10,111 -16,121 10,117" />
<polygon fill="#6280a6" fill-opacity="0.501961" points="98,121 82,119 72,125" />
<polygon fill="#d1d2d0" fill-opacity="0.501961" points="239,54 239,41 270,47" />
<polygon fill="#737741" fill-opacity="0.501961" points="106,145 106,142 100,139" />
<polygon fill="#5c6332" fill-opacity="0.501961" points="115,148 120,154 141,150" />
<polygon fill="#d0d3d5" fill-opacity="0.501961" points="146,-3 110,4 97,-16" />
<polygon fill="#c6ccca" fill-opacity="0.501961" points="54,109 17,97 88,95" />
<polygon fill="#777d48" fill-opacity="0.501961" points="165,185 176,158 173,185" />
<polygon fill="#5f5939" fill-opacity="0.501961" points="65,160 60,162 72,167" />
<polygon fill="#857f3e" fill-opacity="0.501961" points="14,125 -16,130 -11,121" />
<polygon fill="#8d8e44" fill-opacity="0.501961" points="100,163 91,156 97,153" />
<polygon fill="#222212" fill-opacity="0.501961" points="56,131 58,131 55,128" />
<polygon fill="#97a9bb" fill-opacity="0.501961" points="102,51 87,42 73,46" />
<polygon fill="#d2d3d0" fill-opacity="0.501961" points="-3,82 26,83 4,101" />
<polygon fill="#abbed7" fill-opacity="0.501961" points="103,-16 90,3 130,-16" />
<polygon fill="#f6f7f3" fill-opacity="0.501961" points="102,35 111,35 106,30" />
<polygon fill="#e5e7df" fill-opacity="0.501961" points="141,84 139,78 156,82" />
<polygon fill="#a1a495" fill-opacity="0.501961" points="118,161 121,158 122,160" />
<polygon fill="#bdc2c4" fill-opacity="0.501961" points="64,59 56,60 74,67" />
<polygon fill="#bec6d2" fill-opacity="0.501961" points="9,37 6,43 -7,41" />
<polygon fill="#6b702d" fill-opacity="0.501961" points="70,154 45,160 54,150" />
<polygon fill="#495d6c" fill-opacity="0.501961" points="200,134 166,141 181,144" />
<polygon fill="#e6e8e4" fill-opacity="0.501961" points="123,32 134,40 126,43" />
<polygon fill="#2d2b1c" fill-opacity="0.501961" points="118,141 122,146 116,148" />
<polygon fill="#dfded4" fill-opacity="0.501961" points="142,97 130,87 157,94" />
<polygon fill="#95bfd8" fill-opacity="0.501961" points="156,109 140,113 125,108" />
<polygon fill="#c1c5c8" fill-opacity="0.501961" points="51,44 52,58 71,31" />
<polygon fill="#374023" fill-opacity="0.501961" points="98,147 100,136 96,143" />
<polygon fill="#747537" fill-opacity="0.501961" points="121,156 127,150 123,161" />
<polygon fill="#383d27" fill-opacity="0.501961" points="165,159 159,165 161,159" />
<polygon fill="#c2c9ca" fill-opacity="0.501961" points="156,88 157,93 143,90" />
<polygon fill="#ebeae5" fill-opacity="0.501961" points="70,21 69,29 61,23" />
<polygon fill="#bac2c8" fill-opacity="0.501961" points="249,21 237,48 225,44" />
<polygon fill="#c1c6c6" fill-opacity="0.501961" points="39,82 52,82 54,90" />
<polygon fill="#e3e4de" fill-opacity="0.501961" points="191,86 179,76 221,82" />
<polygon fill="#707254" fill-opacity="0.501961" points="243,152 250,151 243,154" />
<polygon fill="#cacdcd" fill-opacity="0.501961" points="96,44 101,23 103,46" />
<polygon fill="#556c86" fill-opacity="0.501961" points="156,123 141,130 133,127" />
<polygon fill="#43492c" fill-opacity="0.501961" points="248,153 239,157 252,157" />
<polygon fill="#81875b" fill-opacity="0.501961" points="133,154 130,157 133,157" />
<polygon fill="#abc7d9" fill-opacity="0.501961" points="149,57 160,60 168,57" />
<polygon fill="#ebe9e0" fill-opacity="0.501961" points="224,82 236,85 219,86" />
<polygon fill="#c0cdda" fill-opacity="0.501961" points="74,7 67,15 99,24" />
<polygon fill="#555b2e" fill-opacity="0.501961" points="127,142 152,154 135,154" />
<polygon fill="#6f7442" fill-opacity="0.501961" points="169,161 160,159 157,154" />
<polygon fill="#c5c7ca" fill-opacity="0.501961" points="84,24 71,23 92,31" />
<polygon fill="#403f28" fill-opacity="0.501961" points="48,142 51,138 51,142" />
<polygon fill="#979683" fill-opacity="0.501961" points="67,136 64,138 71,142" />
<polygon fill="#4a4d25" fill-opacity="0.501961" points="33,131 35,132 37,129" />
<polygon fill="#858932" fill-opacity="0.501961" points="38,148 51,149 43,153" />
<polygon fill="#dddede" fill-opacity="0.501961" points="55,26 39,27 56,42" />
<polygon fill="#f4f3ef" fill-opacity="0.501961" points="76,7 85,4 92,-16" />
<polygon fill="#c2cdcf" fill-opacity="0.501961" points="216,82 207,75 240,74" />
<polygon fill="#c9cbcc" fill-opacity="0.501961" points="66,26 55,30 55,48" />
<polygon fill="#848355" fill-opacity="0.501961" points="41,136 36,138 32,133" />
<polygon fill="#87846f" fill-opacity="0.501961" points="162,166 167,167 166,168" />
<polygon fill="#696f4e" fill-opacity="0.501961" points="79,153 90,153 81,147" />
<polygon fill="#babebf" fill-opacity="0.501961" points="168,13 179,17 162,16" />
<polygon fill="#2e3621" fill-opacity="0.501961" points="81,151 73,148 77,151" />
<polygon fill="#151608" fill-opacity="0.501961" points="240,182 227,167 244,174" />
<polygon fill="#405057" fill-opacity="0.501961" points="238,144 220,164 223,147" />
<polygon fill="#88883a" fill-opacity="0.501961" points="108,165 106,152 92,160" />
<polygon fill="#f1f3ef" fill-opacity="0.501961" points="155,8 159,14 149,11" />
<polygon fill="#767845" fill-opacity="0.501961" points="226,166 227,163 229,165" />
<polygon fill="#a8b0bb" fill-opacity="0.501961" points="196,-16 202,18 191,8" />
<polygon fill="#616838" fill-opacity="0.501961" points="110,158 119,162 115,157" />
<polygon fill="#e6e5dd" fill-opacity="0.501961" points="75,66 68,62 81,65" />
<polygon fill="#dad7d1" fill-opacity="0.501961" points="254,66 239,72 220,65" />
<polygon fill="#34351a" fill-opacity="0.501961" points="48,162 55,162 59,165" />
<polygon fill="#f3f3ef" fill-opacity="0.501961" points="184,17 187,10 179,9" />
<polygon fill="#34434e" fill-opacity="0.501961" points="229,148 228,162 240,153" />
<polygon fill="#b9c9ce" fill-opacity="0.501961" points="46,101 53,102 38,113" />
<polygon fill="#616845" fill-opacity="0.501961" points="131,142 123,143 128,147" />
<polygon fill="#f5f3f0" fill-opacity="0.501961" points="27,43 38,52 29,39" />
<polygon fill="#696a2d" fill-opacity="0.501961" points="9,123 24,121 19,125" />
<polygon fill="#b0b8bf" fill-opacity="0.501961" points="36,71 40,71 38,78" />
<polygon fill="#595034" fill-opacity="0.501961" points="44,164 29,157 40,157" />
<polygon fill="#656b31" fill-opacity="0.501961" points="23,136 16,128 7,129" />
<polygon fill="#757736" fill-opacity="0.501961" points="40,155 53,158 28,161" />
<polygon fill="#e7e9e2" fill-opacity="0.501961" points="139,82 124,79 125,83" />
<polygon fill="#fffffb" fill-opacity="0.501961" points="65,4 92,-16 70,-16" />
<polygon fill="#d1d7dc" fill-opacity="0.501961" points="155,33 174,18 155,18" />
<polygon fill="#2e3220" fill-opacity="0.501961" points="113,142 102,149 109,150" />
<polygon fill="#797d3a" fill-opacity="0.501961" points="18,158 8,158 0,166" />
<polygon fill="#afb6bd" fill-opacity="0.501961" points="54,49 77,39 65,50" />
<polygon fill="#415e7b" fill-opacity="0.501961" points="115,139 142,131 106,128" />
<polygon fill="#8f8c3d" fill-opacity="0.501961" points="118,154 140,168 127,164" />
<polygon fill="#f2f3f0" fill-opacity="0.501961" points="97,28 87,25 99,24" />
<polygon fill="#eff0ea" fill-opacity="0.501961" points="220,74 216,69 227,68" />
<polygon fill="#878447" fill-opacity="0.501961" points="53,158 60,160 67,158" />
<polygon fill="#d6d7d3" fill-opacity="0.501961" points="139,68 190,75 196,60" />
<polygon fill="#eaebe7" fill-opacity="0.501961" points="48,56 42,51 48,52" />
<polygon fill="#c5cad4" fill-opacity="0.501961" points="-12,2 32,12 6,13" />
<polygon fill="#dbdcd9" fill-opacity="0.501961" points="85,24 91,31 103,32" />
<polygon fill="#666b47" fill-opacity="0.501961" points="6,107 10,110 9,103" />
<polygon fill="#323518" fill-opacity="0.501961" points="39,134 41,129 43,132" />
<polygon fill="#9ca8b8" fill-opacity="0.501961" points="269,43 243,37 271,27" />
<polygon fill="#394039" fill-opacity="0.501961" points="166,159 173,159 173,157" />
<polygon fill="#b0b9bd" fill-opacity="0.501961" points="130,77 135,78 124,80" />
<polygon fill="#8b8833" fill-opacity="0.501961" points="17,151 32,151 23,148" />
<polygon fill="#6f7660" fill-opacity="0.501961" points="229,185 197,185 207,166" />
<polygon fill="#878155" fill-opacity="0.501961" points="139,158 144,163 147,161" />
<polygon fill="#515627" fill-opacity="0.501961" points="197,166 203,165 206,181" />
<polygon fill="#737652" fill-opacity="0.501961" points="192,165 188,185 208,175" />
<polygon fill="#e0e0d7" fill-opacity="0.501961" points="82,86 96,94 117,91" />
<polygon fill="#646931" fill-opacity="0.501961" points="11,146 -1,145 13,151" />
<polygon fill="#807d46" fill-opacity="0.501961" points="51,132 54,146 58,145" />
<polygon fill="#aaaeb6" fill-opacity="0.501961" points="241,21 239,5 261,5" />
<polygon fill="#6f743c" fill-opacity="0.501961" points="95,147 89,147 95,141" />
<polygon fill="#747938" fill-opacity="0.501961" points="4,169 -4,185 -6,167" />
<polygon fill="#434726" fill-opacity="0.501961" points="19,111 17,121 22,121" />
<polygon fill="#3e3f27" fill-opacity="0.501961" points="80,144 86,150 83,143" />
<polygon fill="#e5e7e1" fill-opacity="0.501961" points="140,74 117,79 128,70" />
<polygon fill="#2d3e55" fill-opacity="0.501961" points="264,139 268,130 237,139" />
<polygon fill="#5a6134" fill-opacity="0.501961" points="38,144 35,140 27,140" />
<polygon fill="#7c853c" fill-opacity="0.501961" points="9,150 -16,146 -16,166" />
<polygon fill="#414b2a" fill-opacity="0.501961" points="32,168 47,172 53,185" />
<polygon fill="#a8c6d3" fill-opacity="0.501961" points="184,110 188,104 208,107" />
<polygon fill="#e6e7e2" fill-opacity="0.501961" points="85,75 76,71 75,75" />
<polygon fill="#5b6724" fill-opacity="0.501961" points="84,167 71,175 105,182" />
<polygon fill="#666938" fill-opacity="0.501961" points="78,141 80,127 76,129" />
<polygon fill="#c5c9c7" fill-opacity="0.501961" points="134,48 137,43 142,55" />
<polygon fill="#465561" fill-opacity="0.501961" points="180,160 179,153 185,151" />
<polygon fill="#d8d9d8" fill-opacity="0.501961" points="62,33 66,24 72,39" />
<polygon fill="#65632c" fill-opacity="0.501961" points="46,166 49,154 51,164" />
<polygon fill="#9fbadb" fill-opacity="0.501961" points="-9,7 67,-4 10,-16" />
<polygon fill="#918e64" fill-opacity="0.501961" points="70,164 77,172 79,170" />
<polygon fill="#877a2e" fill-opacity="0.501961" points="5,135 -16,134 16,148" />
<polygon fill="#454e37" fill-opacity="0.501961" points="249,160 247,156 248,164" />
<polygon fill="#7a98bb" fill-opacity="0.501961" points="208,122 240,111 199,111" />
<polygon fill="#cfd3d2" fill-opacity="0.501961" points="89,76 76,86 44,75" />
<polygon fill="#748698" fill-opacity="0.501961" points="187,120 181,123 198,123" />
<polygon fill="#2f4050" fill-opacity="0.501961" points="216,157 193,157 226,169" />
<polygon fill="#7892b1" fill-opacity="0.501961" points="55,117 66,117 55,120" />
<polygon fill="#202419" fill-opacity="0.501961" points="238,160 253,157 245,161" />
<polygon fill="#414325" fill-opacity="0.501961" points="166,161 171,161 170,167" />
<polygon fill="#becdd9" fill-opacity="0.501961" points="179,36 168,46 195,40" />
<polygon fill="#becad5" fill-opacity="0.501961" points="166,25 150,19 141,24" />
<polygon fill="#f9fbf8" fill-opacity="0.501961" points="160,8 181,2 158,1" />
<polygon fill="#606740" fill-opacity="0.501961" points="238,153 236,155 239,155" />
<polygon fill="#faf8f2" fill-opacity="0.501961" points="135,64 132,61 129,63" />
<polygon fill="#7b9cc1" fill-opacity="0.501961" points="187,121 179,112 148,119" />
<polygon fill="#aab5bc" fill-opacity="0.501961" points="116,71 94,65 72,72" />
<polygon fill="#26291c" fill-opacity="0.501961" points="-16,111 -16,100 2,111" />
<polygon fill="#e3e3dd" fill-opacity="0.501961" points="245,83 271,80 264,88" />
<polygon fill="#9b963d" fill-opacity="0.501961" points="105,159 113,165 123,166" />
<polygon fill="#e0e2db" fill-opacity="0.501961" points="108,62 113,65 109,59" />
</g>
</svg>