<svg xmlns="http://www.w3.org/2000/svg" version="1.1" width="680" height="1024">
<rect x="0" y="0" width="680" height="1024" fill="#a5aea4" />
<g transform="scale(4.000000) translate(0.5 0.5)">
<polygon fill="#393300" fill-opacity="0.501961" points="185,207 -16,140 7,271" />
<polygon fill="#ffffff" fill-opacity="0.501961" points="-16,124 185,154 129,-16" />
<polygon fill="#4c501b" fill-opacity="0.501961" points="-16,251 185,271 166,140" />
<polygon fill="#daeaff" fill-opacity="0.501961" points="10,158 185,0 -16,-2" />
<polygon fill="#0d3786" fill-opacity="0.501961" points="185,206 29,156 173,160" />
<polygon fill="#dbe5f1" fill-opacity="0.501961" points="164,24 -16,146 185,159" />
<polygon fill="#817c2e" fill-opacity="0.501961" points="46,271 -16,141 185,229" />
<polygon fill="#fafbff" fill-opacity="0.501961" points="110,12 14,39 -16,120" />
<polygon fill="#7fb3f2" fill-opacity="0.501961" points="1,44 -5,-7 159,-11" />
<polygon fill="#5a88b9" fill-opacity="0.501961" points="130,179 0,150 185,142" />
<polygon fill="#b3b6b9" fill-opacity="0.501961" points="9,92 94,92 101,32" />
<polygon fill="#fffffc" fill-opacity="0.501961" points="75,22 185,83 130,24" />
<polygon fill="#465550" fill-opacity="0.501961" points="155,163 2,159 79,189" />
<polygon fill="#736e36" fill-opacity="0.501961" points="185,193 -16,255 174,271" />
<polygon fill="#ffffff" fill-opacity="0.501961" points="136,-16 118,56 162,-16" />
<polygon fill="#fffffe" fill-opacity="0.501961" points="73,79 109,72 50,62" />
<polygon fill="#e5e7e1" fill-opacity="0.501961" points="185,47 185,145 -16,138" />
<polygon fill="#211c0f" fill-opacity="0.501961" points="-15,235 27,228 37,243" />
<polygon fill="#868633" fill-opacity="0.501961" points="-16,223 -6,170 147,221" />
<polygon fill="#9ca4aa" fill-opacity="0.501961" points="62,100 29,108 90,110" />
<polygon fill="#81a8d8" fill-opacity="0.501961" points="120,24 85,-16 130,5" />
<polygon fill="#3b3427" fill-opacity="0.501961" points="83,257 45,239 124,252" />
<polygon fill="#91bee0" fill-opacity="0.501961" points="47,163 4,146 112,144" />
<polygon fill="#a8a7ba" fill-opacity="0.501961" points="185,69 172,-11 137,35" />
<polygon fill="#afb0a2" fill-opacity="0.501961" points="35,228 51,236 46,245" />
<polygon fill="#9ca9b7" fill-opacity="0.501961" points="33,89 47,71 96,91" />
<polygon fill="#50541b" fill-opacity="0.501961" points="44,184 56,167 116,189" />
<polygon fill="#b6b3af" fill-opacity="0.501961" points="37,177 20,175 34,168" />
<polygon fill="#ffffff" fill-opacity="0.501961" points="84,34 21,45 34,29" />
<polygon fill="#adc9e5" fill-opacity="0.501961" points="41,58 10,66 -16,17" />
<polygon fill="#e4e6e0" fill-opacity="0.501961" points="-16,33 69,143 -10,147" />
<polygon fill="#b2b8c1" fill-opacity="0.501961" points="124,62 76,40 65,66" />
<polygon fill="#565c23" fill-opacity="0.501961" points="7,170 40,164 3,148" />
<polygon fill="#3d4a49" fill-opacity="0.501961" points="185,165 176,231 130,188" />
<polygon fill="#4a6388" fill-opacity="0.501961" points="118,189 67,165 178,156" />
<polygon fill="#4e4f19" fill-opacity="0.501961" points="-6,271 34,226 -4,218" />
<polygon fill="#868345" fill-opacity="0.501961" points="99,191 18,204 78,244" />
<polygon fill="#5d7798" fill-opacity="0.501961" points="104,160 30,154 56,169" />
<polygon fill="#9abce2" fill-opacity="0.501961" points="77,9 61,40 36,-7" />
<polygon fill="#86843f" fill-opacity="0.501961" points="137,201 185,251 113,256" />
<polygon fill="#575430" fill-opacity="0.501961" points="47,206 113,226 84,229" />
<polygon fill="#fcfcf7" fill-opacity="0.501961" points="70,92 106,116 150,115" />
<polygon fill="#f5f4ed" fill-opacity="0.501961" points="5,87 78,98 -2,111" />
<polygon fill="#000012" fill-opacity="0.501961" points="121,200 118,209 114,205" />
<polygon fill="#ffffff" fill-opacity="0.501961" points="98,10 141,49 88,24" />
<polygon fill="#91b6d4" fill-opacity="0.501961" points="157,140 49,150 104,162" />
<polygon fill="#ffffff" fill-opacity="0.501961" points="110,-16 185,-16 139,11" />
<polygon fill="#dadbdb" fill-opacity="0.501961" points="140,47 133,80 53,83" />
<polygon fill="#afacae" fill-opacity="0.501961" points="31,235 34,229 24,236" />
<polygon fill="#cdd7d6" fill-opacity="0.501961" points="120,124 185,142 67,145" />
</g>
</svg>