<svg xmlns="http://www.w3.org/2000/svg" version="1.1" width="1024" height="680">
<rect x="0" y="0" width="1024" height="680" fill="#6c7a82" />
<g transform="scale(4.000000) translate(0.5 0.5)">
<polygon fill="#190c00" fill-opacity="0.501961" points="244,185 271,91 75,101" />
<polygon fill="#aad1fe" fill-opacity="0.501961" points="271,89 -16,91 72,2" />
<polygon fill="#6b5613" fill-opacity="0.501961" points="-16,183 -16,75 271,165" />
<polygon fill="#abc1da" fill-opacity="0.501961" points="271,2 53,93 264,88" />
<polygon fill="#000000" fill-opacity="0.501961" points="4,134 -16,171 78,176" />
<polygon fill="#9c916f" fill-opacity="0.501961" points="162,185 129,102 -16,101" />
<polygon fill="#517ac3" fill-opacity="0.501961" points="5,-16 271,9 -16,75" />
<polygon fill="#0c1200" fill-opacity="0.501961" points="271,157 173,129 168,185" />
<polygon fill="#d6cdc3" fill-opacity="0.501961" points="91,47 73,7 140,43" />
<polygon fill="#3a67aa" fill-opacity="0.501961" points="144,-16 141,66 222,18" />
<polygon fill="#111c20" fill-opacity="0.501961" points="266,136 271,87 150,107" />
<polygon fill="#e1dde5" fill-opacity="0.501961" points="254,32 212,55 183,35" />
<polygon fill="#beb87b" fill-opacity="0.501961" points="97,136 171,165 155,141" />
<polygon fill="#877b56" fill-opacity="0.501961" points="168,129 268,146 214,121" />
<polygon fill="#b3b8ce" fill-opacity="0.501961" points="201,13 240,5 199,-13" />
<polygon fill="#1f2200" fill-opacity="0.501961" points="248,141 271,169 148,175" />
<polygon fill="#a8c0d0" fill-opacity="0.501961" points="117,85 -16,47 0,85" />
<polygon fill="#427cbb" fill-opacity="0.501961" points="-16,-1 108,61 -10,59" />
<polygon fill="#5c8cc4" fill-opacity="0.501961" points="227,78 190,26 151,38" />
<polygon fill="#847b5f" fill-opacity="0.501961" points="104,185 27,85 115,104" />
<polygon fill="#3b3335" fill-opacity="0.501961" points="107,122 58,103 68,118" />
<polygon fill="#171900" fill-opacity="0.501961" points="22,124 -9,174 26,185" />
<polygon fill="#3a4542" fill-opacity="0.501961" points="74,95 141,119 157,95" />
<polygon fill="#83a0c0" fill-opacity="0.501961" points="119,-7 131,72 174,73" />
<polygon fill="#585732" fill-opacity="0.501961" points="180,185 129,147 113,174" />
<polygon fill="#625439" fill-opacity="0.501961" points="116,124 197,115 156,143" />
<polygon fill="#335389" fill-opacity="0.501961" points="101,-16 198,-16 196,26" />
<polygon fill="#a1a8ab" fill-opacity="0.501961" points="140,90 260,90 256,57" />
<polygon fill="#a9a283" fill-opacity="0.501961" points="69,105 128,108 106,118" />
<polygon fill="#8f8b74" fill-opacity="0.501961" points="139,167 58,165 94,145" />
<polygon fill="#9199af" fill-opacity="0.501961" points="92,40 79,-16 49,32" />
<polygon fill="#405e95" fill-opacity="0.501961" points="-16,32 8,-16 48,37" />
<polygon fill="#6aa0d2" fill-opacity="0.501961" points="85,72 127,48 -2,50" />
<polygon fill="#968e65" fill-opacity="0.501961" points="38,116 19,141 108,135" />
<polygon fill="#504443" fill-opacity="0.501961" points="46,107 17,104 69,126" />
<polygon fill="#699bcf" fill-opacity="0.501961" points="214,73 271,49 181,58" />
<polygon fill="#aba28f" fill-opacity="0.501961" points="15,140 14,126 3,131" />
<polygon fill="#514f28" fill-opacity="0.501961" points="85,161 58,142 38,161" />
<polygon fill="#a6beca" fill-opacity="0.501961" points="15,86 125,56 149,90" />
<polygon fill="#1d221c" fill-opacity="0.501961" points="271,107 182,118 259,132" />
<polygon fill="#3d3b15" fill-opacity="0.501961" points="170,160 271,156 163,125" />
<polygon fill="#c0c3ce" fill-opacity="0.501961" points="236,51 213,22 185,45" />
<polygon fill="#d6d2cc" fill-opacity="0.501961" points="137,47 91,24 110,45" />
<polygon fill="#605019" fill-opacity="0.501961" points="109,105 146,125 184,121" />
<polygon fill="#456096" fill-opacity="0.501961" points="143,-16 52,-14 106,19" />
<polygon fill="#534340" fill-opacity="0.501961" points="9,94 31,91 -4,82" />
<polygon fill="#989370" fill-opacity="0.501961" points="108,119 131,117 154,129" />
<polygon fill="#3c3735" fill-opacity="0.501961" points="106,119 138,125 136,134" />
<polygon fill="#3b6ca3" fill-opacity="0.501961" points="183,90 114,92 149,101" />
<polygon fill="#2f383b" fill-opacity="0.501961" points="240,93 171,118 113,101" />
</g>
</svg>