<svg xmlns="http://www.w3.org/2000/svg" version="1.1" width="1024" height="680">
<rect x="0" y="0" width="1024" height="680" fill="#a3aca9" />
<g transform="scale(4.000000) translate(0.5 0.5)">
<polygon fill="#1a2000" fill-opacity="0.501961" points="271,156 6,185 -16,101" />
<polygon fill="#f9fafd" fill-opacity="0.501961" points="183,-16 -16,96 271,112" />
<polygon fill="#001845" fill-opacity="0.501961" points="271,123 248,185 97,122" />
<polygon fill="#ecf1ff" fill-opacity="0.501961" points="-7,-3 -15,94 169,-10" />
<polygon fill="#746f18" fill-opacity="0.501961" points="243,180 -16,176 -5,103" />
<polygon fill="#d0d9dc" fill-opacity="0.501961" points="260,4 14,112 269,109" />
<polygon fill="#5d8cc1" fill-opacity="0.501961" points="29,111 150,144 271,106" />
<polygon fill="#38484e" fill-opacity="0.501961" points="244,185 271,124 34,126" />
<polygon fill="#95a1b0" fill-opacity="0.501961" points="57,52 136,53 80,28" />
<polygon fill="#b7cfdb" fill-opacity="0.501961" points="69,122 -3,98 142,103" />
<polygon fill="#878636" fill-opacity="0.501961" points="135,165 31,185 -16,125" />
<polygon fill="#a0a8b5" fill-opacity="0.501961" points="94,22 141,29 136,-7" />
<polygon fill="#383a1d" fill-opacity="0.501961" points="163,169 271,156 250,185" />
<polygon fill="#46607f" fill-opacity="0.501961" points="271,117 178,156 79,127" />
<polygon fill="#d3d6d2" fill-opacity="0.501961" points="271,103 237,20 -16,101" />
<polygon fill="#ffffff" fill-opacity="0.501961" points="153,12 156,-15 188,12" />
<polygon fill="#bab3b6" fill-opacity="0.501961" points="70,138 52,142 62,131" />
<polygon fill="#9cb7dd" fill-opacity="0.501961" points="-16,10 48,-16 58,26" />
<polygon fill="#9ba4ba" fill-opacity="0.501961" points="271,15 183,-16 193,19" />
<polygon fill="#e8e5e0" fill-opacity="0.501961" points="49,82 58,28 5,26" />
<polygon fill="#95a1ad" fill-opacity="0.501961" points="121,72 75,71 88,61" />
<polygon fill="#7694bd" fill-opacity="0.501961" points="199,121 271,129 263,111" />
<polygon fill="#2f3f4e" fill-opacity="0.501961" points="174,130 271,179 270,131" />
<polygon fill="#484c2c" fill-opacity="0.501961" points="10,123 -9,98 60,125" />
<polygon fill="#8eb5d5" fill-opacity="0.501961" points="139,126 69,108 203,106" />
<polygon fill="#f1f1f3" fill-opacity="0.501961" points="20,-14 97,16 118,-12" />
<polygon fill="#4c4f25" fill-opacity="0.501961" points="65,152 101,130 130,149" />
<polygon fill="#ebebe3" fill-opacity="0.501961" points="219,83 97,54 157,88" />
<polygon fill="#f3f3ed" fill-opacity="0.501961" points="49,51 117,61 77,66" />
<polygon fill="#9ea4ad" fill-opacity="0.501961" points="12,45 37,55 8,58" />
<polygon fill="#f3f2ed" fill-opacity="0.501961" points="113,45 120,31 82,21" />
<polygon fill="#e3e1e0" fill-opacity="0.501961" points="252,29 163,37 181,14" />
<polygon fill="#bac7c8" fill-opacity="0.501961" points="150,104 263,114 245,87" />
<polygon fill="#f1efe8" fill-opacity="0.501961" points="28,73 8,61 69,54" />
<polygon fill="#c6ced5" fill-opacity="0.501961" points="258,80 271,42 128,31" />
<polygon fill="#cccfcb" fill-opacity="0.501961" points="-9,57 15,108 104,108" />
<polygon fill="#5a779c" fill-opacity="0.501961" points="88,131 124,122 51,116" />
<polygon fill="#a09e54" fill-opacity="0.501961" points="117,168 135,163 118,155" />
<polygon fill="#a3acb3" fill-opacity="0.501961" points="115,39 136,46 121,55" />
<polygon fill="#5a5b36" fill-opacity="0.501961" points="127,144 271,185 146,185" />
<polygon fill="#acb5ba" fill-opacity="0.501961" points="89,61 123,69 60,71" />
<polygon fill="#47422d" fill-opacity="0.501961" points="66,160 63,167 40,161" />
<polygon fill="#35495d" fill-opacity="0.501961" points="153,150 240,124 222,171" />
<polygon fill="#626546" fill-opacity="0.501961" points="236,165 220,161 250,149" />
<polygon fill="#2b2d16" fill-opacity="0.501961" points="238,157 243,182 252,153" />
<polygon fill="#1b1d0f" fill-opacity="0.501961" points="21,122 9,121 13,114" />
<polygon fill="#edede8" fill-opacity="0.501961" points="152,56 132,43 172,45" />
<polygon fill="#fef9f2" fill-opacity="0.501961" points="-14,53 6,49 22,34" />
<polygon fill="#a9afb6" fill-opacity="0.501961" points="134,41 152,30 159,40" />
<polygon fill="#626532" fill-opacity="0.501961" points="39,116 77,140 106,135" />
<polygon fill="#bac9c9" fill-opacity="0.501961" points="143,113 86,100 168,96" />
<polygon fill="#363b1e" fill-opacity="0.501961" points="-16,154 -16,185 39,178" />
<polygon fill="#e8e5dc" fill-opacity="0.501961" points="271,73 232,61 203,73" />
<polygon fill="#75742e" fill-opacity="0.501961" points="48,166 -9,137 37,111" />
<polygon fill="#b6c7dc" fill-opacity="0.501961" points="48,21 100,-3 84,18" />
<polygon fill="#94b7dc" fill-opacity="0.501961" points="-16,6 23,-13 52,6" />
<polygon fill="#1d1d23" fill-opacity="0.501961" points="68,140 65,146 59,142" />
<polygon fill="#aab7c9" fill-opacity="0.501961" points="240,45 268,30 201,38" />
<polygon fill="#c2c5c6" fill-opacity="0.501961" points="37,47 57,55 84,25" />
<polygon fill="#8f9139" fill-opacity="0.501961" points="107,153 136,185 85,157" />
<polygon fill="#e7e7e6" fill-opacity="0.501961" points="126,39 110,29 154,27" />
<polygon fill="#9cabbb" fill-opacity="0.501961" points="92,51 56,48 98,32" />
<polygon fill="#4f5329" fill-opacity="0.501961" points="35,115 40,135 73,126" />
<polygon fill="#8cb7d8" fill-opacity="0.501961" points="103,109 69,120 36,109" />
<polygon fill="#eeefed" fill-opacity="0.501961" points="51,30 85,21 65,19" />
<polygon fill="#677c93" fill-opacity="0.501961" points="123,120 174,120 142,129" />
<polygon fill="#ebf0ef" fill-opacity="0.501961" points="101,60 137,50 129,68" />
<polygon fill="#c5cccc" fill-opacity="0.501961" points="49,104 23,112 18,69" />
<polygon fill="#455f78" fill-opacity="0.501961" points="162,151 79,124 206,127" />
<polygon fill="#181c13" fill-opacity="0.501961" points="104,147 112,145 108,153" />
<polygon fill="#e5e4de" fill-opacity="0.501961" points="15,89 -10,78 37,80" />
<polygon fill="#747642" fill-opacity="0.501961" points="10,103 29,114 -13,104" />
<polygon fill="#2b2721" fill-opacity="0.501961" points="149,185 156,166 140,166" />
<polygon fill="#bdcbd4" fill-opacity="0.501961" points="157,58 250,67 207,48" />
<polygon fill="#96845e" fill-opacity="0.501961" points="36,165 70,176 79,167" />
<polygon fill="#c9cecd" fill-opacity="0.501961" points="187,77 154,91 143,79" />
<polygon fill="#b1b9c3" fill-opacity="0.501961" points="109,2 166,22 99,28" />
<polygon fill="#9fa8b6" fill-opacity="0.501961" points="187,6 269,-2 222,24" />
<polygon fill="#858238" fill-opacity="0.501961" points="5,142 44,137 -14,117" />
<polygon fill="#c9cbc8" fill-opacity="0.501961" points="118,47 99,31 94,43" />
<polygon fill="#787f53" fill-opacity="0.501961" points="64,128 67,142 85,152" />
<polygon fill="#1d282e" fill-opacity="0.501961" points="219,168 265,163 222,185" />
<polygon fill="#fbfcf8" fill-opacity="0.501961" points="144,-1 183,2 165,9" />
<polygon fill="#787552" fill-opacity="0.501961" points="54,145 40,127 59,134" />
<polygon fill="#e1ded9" fill-opacity="0.501961" points="247,41 271,46 214,58" />
<polygon fill="#bcc7d6" fill-opacity="0.501961" points="77,18 15,30 -14,2" />
<polygon fill="#2e331d" fill-opacity="0.501961" points="179,159 187,159 175,174" />
<polygon fill="#b1c8d6" fill-opacity="0.501961" points="163,60 142,53 119,59" />
<polygon fill="#232408" fill-opacity="0.501961" points="84,137 85,145 91,142" />
<polygon fill="#a9b1ba" fill-opacity="0.501961" points="40,78 42,70 25,77" />
<polygon fill="#dededb" fill-opacity="0.501961" points="251,21 189,25 220,36" />
<polygon fill="#799ac0" fill-opacity="0.501961" points="219,121 146,122 187,110" />
<polygon fill="#fffffa" fill-opacity="0.501961" points="79,65 67,58 85,56" />
<polygon fill="#737046" fill-opacity="0.501961" points="148,170 136,160 156,152" />
<polygon fill="#6a714b" fill-opacity="0.501961" points="165,180 195,163 217,169" />
<polygon fill="#7f7f5b" fill-opacity="0.501961" points="241,161 236,166 227,161" />
<polygon fill="#edece9" fill-opacity="0.501961" points="35,37 37,51 10,38" />
<polygon fill="#61673f" fill-opacity="0.501961" points="107,141 100,156 77,152" />
<polygon fill="#f4f4f0" fill-opacity="0.501961" points="179,8 190,14 179,22" />
<polygon fill="#c9cdcb" fill-opacity="0.501961" points="27,82 -11,103 52,99" />
</g>
</svg>