<svg xmlns="http://www.w3.org/2000/svg" version="1.1" width="1024" height="680">
<rect x="0" y="0" width="1024" height="680" fill="#a3aca9" />
<g transform="scale(4.000000) translate(0.5 0.5)">
<polygon fill="#1b2000" fill-opacity="0.501961" points="5,185 271,158 -14,101" />
<polygon fill="#f8fafd" fill-opacity="0.501961" points="271,114 -16,90 186,-16" />
<polygon fill="#001440" fill-opacity="0.501961" points="105,123 271,122 249,185" />
<polygon fill="#ecf1ff" fill-opacity="0.501961" points="-14,-5 -5,83 173,-11" />
<polygon fill="#d4dbdc" fill-opacity="0.501961" points="271,106 259,6 13,112" />
<polygon fill="#736f18" fill-opacity="0.501961" points="262,185 -12,101 -4,185" />
<polygon fill="#5d8fc4" fill-opacity="0.501961" points="27,110 148,143 271,106" />
<polygon fill="#364950" fill-opacity="0.501961" points="31,126 247,185 271,124" />
<polygon fill="#c2d3da" fill-opacity="0.501961" points="-16,90 156,102 61,121" />
<polygon fill="#93a0af" fill-opacity="0.501961" points="83,28 130,52 55,53" />
<polygon fill="#878636" fill-opacity="0.501961" points="-16,127 142,165 30,185" />
<polygon fill="#a1a9b6" fill-opacity="0.501961" points="94,22 143,29 134,-9" />
<polygon fill="#6486b6" fill-opacity="0.501961" points="271,109 204,122 271,128" />
<polygon fill="#ffffff" fill-opacity="0.501961" points="151,10 160,-16 191,14" />
<polygon fill="#4b6585" fill-opacity="0.501961" points="200,122 62,121 181,156" />
<polygon fill="#9cb8dd" fill-opacity="0.501961" points="56,27 52,-16 -16,8" />
<polygon fill="#d1d5d6" fill-opacity="0.501961" points="271,113 246,19 87,31" />
<polygon fill="#c2bbbb" fill-opacity="0.501961" points="63,131 56,139 71,140" />
<polygon fill="#9aa3ba" fill-opacity="0.501961" points="271,14 191,19 184,-16" />
<polygon fill="#34434d" fill-opacity="0.501961" points="257,185 149,149 271,126" />
<polygon fill="#d9d9d4" fill-opacity="0.501961" points="36,18 106,100 -8,102" />
<polygon fill="#96a2ac" fill-opacity="0.501961" points="123,72 66,70 92,62" />
<polygon fill="#91b7d7" fill-opacity="0.501961" points="72,107 136,125 200,108" />
<polygon fill="#f1f1f3" fill-opacity="0.501961" points="118,-16 98,16 36,-7" />
<polygon fill="#2b301f" fill-opacity="0.501961" points="38,124 10,122 3,108" />
<polygon fill="#b5c5c9" fill-opacity="0.501961" points="271,109 202,90 132,110" />
<polygon fill="#eceae7" fill-opacity="0.501961" points="32,50 3,35 70,22" />
<polygon fill="#434835" fill-opacity="0.501961" points="131,168 271,149 260,185" />
<polygon fill="#edefe8" fill-opacity="0.501961" points="130,53 99,60 181,87" />
<polygon fill="#585a2c" fill-opacity="0.501961" points="161,155 88,151 36,112" />
<polygon fill="#9fa5af" fill-opacity="0.501961" points="13,45 37,55 2,57" />
<polygon fill="#fffffc" fill-opacity="0.501961" points="86,56 57,55 84,66" />
<polygon fill="#f2f2ef" fill-opacity="0.501961" points="115,39 135,31 79,21" />
<polygon fill="#647f9e" fill-opacity="0.501961" points="58,117 85,134 100,119" />
<polygon fill="#354a61" fill-opacity="0.501961" points="271,147 189,166 177,123" />
<polygon fill="#cacecc" fill-opacity="0.501961" points="99,104 18,109 -16,54" />
<polygon fill="#a5aeb3" fill-opacity="0.501961" points="110,51 138,51 121,36" />
<polygon fill="#ecede8" fill-opacity="0.501961" points="68,54 28,74 5,61" />
<polygon fill="#b8c5d0" fill-opacity="0.501961" points="271,32 171,38 187,63" />
<polygon fill="#e1e0de" fill-opacity="0.501961" points="175,11 166,34 246,33" />
<polygon fill="#5d5f32" fill-opacity="0.501961" points="40,133 -5,101 87,132" />
<polygon fill="#acb3ba" fill-opacity="0.501961" points="153,30 133,39 167,41" />
<polygon fill="#5f6030" fill-opacity="0.501961" points="65,166 22,161 83,146" />
<polygon fill="#1e2622" fill-opacity="0.501961" points="245,155 225,180 263,171" />
<polygon fill="#9b9a51" fill-opacity="0.501961" points="119,155 133,162 115,172" />
<polygon fill="#666737" fill-opacity="0.501961" points="145,154 170,182 242,174" />
<polygon fill="#9aa3b2" fill-opacity="0.501961" points="269,37 237,30 244,41" />
<polygon fill="#717557" fill-opacity="0.501961" points="231,157 221,163 243,165" />
<polygon fill="#d7d8d0" fill-opacity="0.501961" points="247,104 92,88 271,59" />
<polygon fill="#878434" fill-opacity="0.501961" points="-12,144 44,137 -16,116" />
<polygon fill="#e9eae4" fill-opacity="0.501961" points="156,57 122,35 179,52" />
<polygon fill="#5b5f35" fill-opacity="0.501961" points="9,111 10,103 -16,108" />
<polygon fill="#4d522b" fill-opacity="0.501961" points="105,129 69,149 114,151" />
<polygon fill="#b5c6dc" fill-opacity="0.501961" points="104,-4 74,21 46,21" />
<polygon fill="#fffbf3" fill-opacity="0.501961" points="-4,47 16,39 3,51" />
<polygon fill="#33391d" fill-opacity="0.501961" points="23,185 -16,156 35,175" />
<polygon fill="#9aa9bb" fill-opacity="0.501961" points="86,36 98,50 53,47" />
<polygon fill="#434624" fill-opacity="0.501961" points="36,112 35,124 60,132" />
<polygon fill="#2e2d1b" fill-opacity="0.501961" points="122,141 103,147 123,149" />
<polygon fill="#88b6d9" fill-opacity="0.501961" points="80,107 51,115 111,120" />
<polygon fill="#b0b8c1" fill-opacity="0.501961" points="101,29 104,8 168,17" />
<polygon fill="#6a81a2" fill-opacity="0.501961" points="256,128 216,121 271,115" />
<polygon fill="#a3adb7" fill-opacity="0.501961" points="45,78 37,72 19,76" />
<polygon fill="#898b3c" fill-opacity="0.501961" points="140,185 105,153 23,185" />
<polygon fill="#95b6dc" fill-opacity="0.501961" points="33,-16 -16,4 50,7" />
<polygon fill="#a4adb9" fill-opacity="0.501961" points="236,22 205,21 175,-16" />
<polygon fill="#a9b2b8" fill-opacity="0.501961" points="111,64 91,73 128,70" />
<polygon fill="#060613" fill-opacity="0.501961" points="63,141 67,145 58,143" />
<polygon fill="#948f7d" fill-opacity="0.501961" points="66,132 55,145 51,132" />
<polygon fill="#f3f3ed" fill-opacity="0.501961" points="138,64 93,53 100,65" />
<polygon fill="#7b7f3a" fill-opacity="0.501961" points="43,160 90,130 68,160" />
<polygon fill="#eae9e2" fill-opacity="0.501961" points="150,69 218,82 185,86" />
<polygon fill="#7692b0" fill-opacity="0.501961" points="143,126 175,113 110,121" />
<polygon fill="#c8d2d7" fill-opacity="0.501961" points="206,36 250,60 118,60" />
<polygon fill="#c5c9c6" fill-opacity="0.501961" points="244,86 178,104 271,106" />
<polygon fill="#c4cbca" fill-opacity="0.501961" points="66,97 24,112 14,93" />
<polygon fill="#fefef9" fill-opacity="0.501961" points="152,15 174,5 159,-11" />
<polygon fill="#445d76" fill-opacity="0.501961" points="222,123 154,152 100,127" />
<polygon fill="#5b613e" fill-opacity="0.501961" points="91,156 107,144 68,147" />
<polygon fill="#c0c9c5" fill-opacity="0.501961" points="171,98 132,109 91,97" />
<polygon fill="#303623" fill-opacity="0.501961" points="185,171 169,175 184,156" />
<polygon fill="#858540" fill-opacity="0.501961" points="115,142 119,156 111,152" />
<polygon fill="#b8c5d7" fill-opacity="0.501961" points="61,4 -16,17 54,28" />
<polygon fill="#907670" fill-opacity="0.501961" points="54,166 78,167 64,185" />
<polygon fill="#dedddb" fill-opacity="0.501961" points="270,52 217,54 253,42" />
<polygon fill="#f2f1ea" fill-opacity="0.501961" points="238,73 222,67 202,73" />
<polygon fill="#344757" fill-opacity="0.501961" points="216,169 165,151 271,133" />
<polygon fill="#bac1c3" fill-opacity="0.501961" points="72,66 52,77 60,58" />
<polygon fill="#d8d8d3" fill-opacity="0.501961" points="104,34 93,45 118,45" />
<polygon fill="#1d2216" fill-opacity="0.501961" points="263,185 242,167 220,166" />
<polygon fill="#181603" fill-opacity="0.501961" points="84,142 85,138 91,144" />
<polygon fill="#bcc8cc" fill-opacity="0.501961" points="265,73 235,83 205,75" />
<polygon fill="#e5e7e8" fill-opacity="0.501961" points="65,19 51,31 87,20" />
<polygon fill="#eae8e2" fill-opacity="0.501961" points="11,86 -4,79 29,80" />
<polygon fill="#191a10" fill-opacity="0.501961" points="14,116 20,120 9,122" />
<polygon fill="#30361c" fill-opacity="0.501961" points="104,146 114,160 111,143" />
<polygon fill="#bdc0c2" fill-opacity="0.501961" points="66,51 84,25 44,49" />
<polygon fill="#4b472e" fill-opacity="0.501961" points="50,162 62,161 65,170" />
<polygon fill="#787f50" fill-opacity="0.501961" points="74,142 66,129 70,147" />
<polygon fill="#fffdf7" fill-opacity="0.501961" points="88,3 85,-16 58,0" />
<polygon fill="#120c0f" fill-opacity="0.501961" points="154,166 163,185 133,179" />
<polygon fill="#faf9ef" fill-opacity="0.501961" points="133,76 166,75 152,70" />
<polygon fill="#76762f" fill-opacity="0.501961" points="43,160 39,123 -12,147" />
<polygon fill="#dddddd" fill-opacity="0.501961" points="59,25 44,56 -16,28" />
<polygon fill="#364c64" fill-opacity="0.501961" points="242,125 153,147 188,160" />
<polygon fill="#6f7747" fill-opacity="0.501961" points="108,134 93,136 103,128" />
<polygon fill="#7694b7" fill-opacity="0.501961" points="247,123 218,110 173,121" />
<polygon fill="#b3babe" fill-opacity="0.501961" points="38,36 44,47 39,50" />
<polygon fill="#d7d8d8" fill-opacity="0.501961" points="155,8 155,-11 111,0" />
<polygon fill="#f3f0ea" fill-opacity="0.501961" points="257,73 267,65 240,71" />
<polygon fill="#9ea7b5" fill-opacity="0.501961" points="241,20 271,-7 190,9" />
<polygon fill="#e3e1dd" fill-opacity="0.501961" points="200,27 243,22 227,34" />
<polygon fill="#a9b7c2" fill-opacity="0.501961" points="25,85 51,86 39,81" />
<polygon fill="#e4e5df" fill-opacity="0.501961" points="169,41 173,55 126,53" />
<polygon fill="#c3cdd0" fill-opacity="0.501961" points="154,48 131,56 141,69" />
<polygon fill="#acb4bc" fill-opacity="0.501961" points="62,69 96,63 98,73" />
<polygon fill="#4a4d24" fill-opacity="0.501961" points="136,158 145,158 128,141" />
<polygon fill="#868541" fill-opacity="0.501961" points="61,173 49,185 2,148" />
<polygon fill="#6d89ac" fill-opacity="0.501961" points="56,119 76,125 88,118" />
<polygon fill="#bfccd3" fill-opacity="0.501961" points="249,66 208,49 159,58" />
<polygon fill="#7f834b" fill-opacity="0.501961" points="83,156 94,145 80,150" />
<polygon fill="#b5bbbf" fill-opacity="0.501961" points="132,46 142,33 156,36" />
<polygon fill="#95bfdd" fill-opacity="0.501961" points="271,104 226,109 255,115" />
<polygon fill="#d3d8e0" fill-opacity="0.501961" points="82,7 94,31 48,0" />
<polygon fill="#9fc6dc" fill-opacity="0.501961" points="132,106 152,112 113,112" />
<polygon fill="#d9d9d6" fill-opacity="0.501961" points="244,55 173,51 213,42" />
<polygon fill="#c8ccd2" fill-opacity="0.501961" points="181,28 126,19 174,10" />
<polygon fill="#e4e5e3" fill-opacity="0.501961" points="147,30 87,26 112,39" />
<polygon fill="#5d5e36" fill-opacity="0.501961" points="39,136 37,112 58,147" />
<polygon fill="#f8f7f2" fill-opacity="0.501961" points="107,5 93,11 104,-10" />
<polygon fill="#e2e2d9" fill-opacity="0.501961" points="127,92 135,63 106,94" />
<polygon fill="#d2d4d4" fill-opacity="0.501961" points="12,104 2,50 21,70" />
<polygon fill="#b8bfc3" fill-opacity="0.501961" points="215,84 196,87 216,90" />
<polygon fill="#e6e7df" fill-opacity="0.501961" points="62,82 48,77 28,83" />
<polygon fill="#dadad4" fill-opacity="0.501961" points="133,68 207,59 203,78" />
<polygon fill="#898b3f" fill-opacity="0.501961" points="104,158 88,156 114,151" />
<polygon fill="#838060" fill-opacity="0.501961" points="49,137 53,132 36,137" />
<polygon fill="#41441e" fill-opacity="0.501961" points="34,131 46,136 42,129" />
<polygon fill="#c6cfcd" fill-opacity="0.501961" points="95,76 117,89 57,82" />
<polygon fill="#7b7f31" fill-opacity="0.501961" points="134,171 96,184 50,144" />
<polygon fill="#6b6549" fill-opacity="0.501961" points="173,169 133,164 146,156" />
<polygon fill="#7b7b42" fill-opacity="0.501961" points="77,133 91,136 72,125" />
<polygon fill="#4e5131" fill-opacity="0.501961" points="180,160 150,166 160,152" />
<polygon fill="#acb7bb" fill-opacity="0.501961" points="132,76 139,79 123,80" />
<polygon fill="#7da0c9" fill-opacity="0.501961" points="146,119 207,119 189,107" />
<polygon fill="#f6f6ed" fill-opacity="0.501961" points="78,67 87,58 67,57" />
<polygon fill="#363627" fill-opacity="0.501961" points="94,154 97,148 88,155" />
<polygon fill="#efefec" fill-opacity="0.501961" points="176,8 192,14 182,20" />
<polygon fill="#56592b" fill-opacity="0.501961" points="23,122 20,108 13,137" />
<polygon fill="#27290f" fill-opacity="0.501961" points="70,136 77,139 75,134" />
<polygon fill="#b3c5d5" fill-opacity="0.501961" points="271,64 253,51 232,61" />
<polygon fill="#b1c1d5" fill-opacity="0.501961" points="80,11 92,8 100,-7" />
<polygon fill="#283b54" fill-opacity="0.501961" points="264,144 271,159 229,185" />
<polygon fill="#b0b8c1" fill-opacity="0.501961" points="102,8 142,-1 119,28" />
<polygon fill="#bdc3cb" fill-opacity="0.501961" points="236,48 225,40 260,10" />
<polygon fill="#c0c6c5" fill-opacity="0.501961" points="109,61 121,66 101,67" />
<polygon fill="#456384" fill-opacity="0.501961" points="142,126 115,139 102,123" />
<polygon fill="#aab1bb" fill-opacity="0.501961" points="13,58 15,44 29,56" />
<polygon fill="#94b9d5" fill-opacity="0.501961" points="218,110 180,111 200,105" />
<polygon fill="#fdfdf7" fill-opacity="0.501961" points="50,63 58,57 38,61" />
<polygon fill="#787d4b" fill-opacity="0.501961" points="36,111 21,112 32,121" />
<polygon fill="#747b48" fill-opacity="0.501961" points="178,156 159,185 175,171" />
<polygon fill="#686d41" fill-opacity="0.501961" points="50,130 59,126 52,116" />
<polygon fill="#eaeadf" fill-opacity="0.501961" points="76,83 57,89 96,89" />
<polygon fill="#bbc7d7" fill-opacity="0.501961" points="-16,3 74,17 38,29" />
<polygon fill="#919164" fill-opacity="0.501961" points="233,165 232,162 241,162" />
<polygon fill="#5f6138" fill-opacity="0.501961" points="240,157 237,153 252,151" />
<polygon fill="#2f3424" fill-opacity="0.501961" points="248,171 237,158 252,153" />
<polygon fill="#f1f1ec" fill-opacity="0.501961" points="39,52 30,38 19,42" />
<polygon fill="#afc2d3" fill-opacity="0.501961" points="193,38 234,35 213,43" />
<polygon fill="#afb8c0" fill-opacity="0.501961" points="20,79 30,77 19,70" />
<polygon fill="#737740" fill-opacity="0.501961" points="100,151 106,142 101,138" />
<polygon fill="#a0adbd" fill-opacity="0.501961" points="87,37 103,50 55,49" />
<polygon fill="#1e1f0c" fill-opacity="0.501961" points="59,128 57,131 55,129" />
<polygon fill="#aab3bb" fill-opacity="0.501961" points="121,55 133,48 115,40" />
<polygon fill="#90b9d5" fill-opacity="0.501961" points="61,108 71,116 39,113" />
<polygon fill="#696a3f" fill-opacity="0.501961" points="151,150 164,158 131,170" />
<polygon fill="#696f49" fill-opacity="0.501961" points="216,168 207,185 188,164" />
<polygon fill="#f7f4e7" fill-opacity="0.501961" points="225,81 230,85 215,85" />
<polygon fill="#babdc1" fill-opacity="0.501961" points="107,37 107,45 85,30" />
<polygon fill="#f5f6f1" fill-opacity="0.501961" points="112,34 104,27 112,44" />
<polygon fill="#2f2c21" fill-opacity="0.501961" points="45,139 49,141 52,138" />
<polygon fill="#466285" fill-opacity="0.501961" points="80,123 85,131 107,125" />
<polygon fill="#b9c0c7" fill-opacity="0.501961" points="126,29 143,8 156,22" />
<polygon fill="#f3f3ef" fill-opacity="0.501961" points="81,20 100,26 91,29" />
<polygon fill="#c4c7c7" fill-opacity="0.501961" points="187,9 191,20 222,23" />
<polygon fill="#c0cbd8" fill-opacity="0.501961" points="55,20 88,19 75,0" />
<polygon fill="#606542" fill-opacity="0.501961" points="-4,113 15,111 9,103" />
<polygon fill="#574f33" fill-opacity="0.501961" points="28,158 41,157 45,164" />
<polygon fill="#7b7c39" fill-opacity="0.501961" points="41,128 20,124 31,140" />
<polygon fill="#dbdedc" fill-opacity="0.501961" points="128,44 156,26 117,29" />
<polygon fill="#141219" fill-opacity="0.501961" points="63,142 65,140 66,144" />
<polygon fill="#464828" fill-opacity="0.501961" points="54,129 34,116 48,118" />
<polygon fill="#3d5371" fill-opacity="0.501961" points="240,135 219,124 271,129" />
<polygon fill="#d6d6d5" fill-opacity="0.501961" points="74,41 55,29 65,24" />
<polygon fill="#3a3c1b" fill-opacity="0.501961" points="91,137 90,144 73,149" />
<polygon fill="#43586e" fill-opacity="0.501961" points="176,123 170,149 214,125" />
<polygon fill="#73794a" fill-opacity="0.501961" points="86,151 64,131 72,145" />
<polygon fill="#6f733b" fill-opacity="0.501961" points="2,153 37,165 22,185" />
<polygon fill="#acb4bf" fill-opacity="0.501961" points="83,30 71,29 78,41" />
<polygon fill="#2a3634" fill-opacity="0.501961" points="215,171 227,161 221,177" />
<polygon fill="#d8dbdb" fill-opacity="0.501961" points="161,41 184,-5 178,40" />
<polygon fill="#cbcecd" fill-opacity="0.501961" points="35,66 67,68 64,60" />
<polygon fill="#344758" fill-opacity="0.501961" points="234,160 182,130 252,133" />
<polygon fill="#948b40" fill-opacity="0.501961" points="58,166 30,165 49,172" />
<polygon fill="#8e8c3a" fill-opacity="0.501961" points="128,164 76,152 101,166" />
<polygon fill="#3f492e" fill-opacity="0.501961" points="70,148 81,152 75,144" />
<polygon fill="#c9ceca" fill-opacity="0.501961" points="77,108 47,96 123,93" />
<polygon fill="#edeee5" fill-opacity="0.501961" points="145,84 139,84 137,67" />
<polygon fill="#bdc3c7" fill-opacity="0.501961" points="184,81 181,78 172,80" />
<polygon fill="#cdd1cd" fill-opacity="0.501961" points="203,97 169,103 134,82" />
<polygon fill="#181918" fill-opacity="0.501961" points="108,150 105,151 103,147" />
<polygon fill="#d5d6d2" fill-opacity="0.501961" points="15,100 -4,101 21,64" />
<polygon fill="#c6cac9" fill-opacity="0.501961" points="77,66 91,66 100,54" />
<polygon fill="#425970" fill-opacity="0.501961" points="184,124 147,149 235,124" />
<polygon fill="#a3a17d" fill-opacity="0.501961" points="118,161 125,160 119,158" />
<polygon fill="#a8a795" fill-opacity="0.501961" points="55,142 60,134 66,137" />
<polygon fill="#657a8f" fill-opacity="0.501961" points="129,125 143,128 152,123" />
<polygon fill="#939253" fill-opacity="0.501961" points="44,129 49,137 45,135" />
<polygon fill="#717329" fill-opacity="0.501961" points="74,162 48,142 7,143" />
<polygon fill="#8b8b39" fill-opacity="0.501961" points="138,162 125,162 136,170" />
<polygon fill="#acc6d7" fill-opacity="0.501961" points="117,57 121,61 126,58" />
<polygon fill="#b7bbbe" fill-opacity="0.501961" points="177,16 167,13 158,17" />
<polygon fill="#788168" fill-opacity="0.501961" points="45,113 38,115 52,119" />
<polygon fill="#14110b" fill-opacity="0.501961" points="178,165 182,175 176,176" />
<polygon fill="#4b5856" fill-opacity="0.501961" points="220,162 230,141 228,162" />
<polygon fill="#5a6027" fill-opacity="0.501961" points="5,122 1,117 10,116" />
<polygon fill="#e7e7e3" fill-opacity="0.501961" points="44,49 42,71 51,82" />
<polygon fill="#787c55" fill-opacity="0.501961" points="69,132 69,128 60,132" />
<polygon fill="#dddeda" fill-opacity="0.501961" points="135,62 113,83 162,63" />
<polygon fill="#acc1d8" fill-opacity="0.501961" points="52,27 28,16 64,19" />
<polygon fill="#818443" fill-opacity="0.501961" points="128,172 121,164 127,149" />
<polygon fill="#93a0b3" fill-opacity="0.501961" points="245,36 250,39 261,31" />
<polygon fill="#738eae" fill-opacity="0.501961" points="271,119 236,112 215,124" />
<polygon fill="#374447" fill-opacity="0.501961" points="264,150 251,144 246,168" />
<polygon fill="#c5cdce" fill-opacity="0.501961" points="211,71 232,82 199,78" />
<polygon fill="#fffffc" fill-opacity="0.501961" points="106,57 123,64 117,57" />
<polygon fill="#eff0ea" fill-opacity="0.501961" points="198,77 214,69 199,72" />
<polygon fill="#b3a785" fill-opacity="0.501961" points="74,167 47,185 88,185" />
<polygon fill="#bdcad4" fill-opacity="0.501961" points="-6,69 3,59 20,69" />
<polygon fill="#92bcdb" fill-opacity="0.501961" points="146,106 150,112 170,109" />
<polygon fill="#626841" fill-opacity="0.501961" points="196,163 205,168 180,166" />
<polygon fill="#bfcbcb" fill-opacity="0.501961" points="134,95 176,105 121,107" />
<polygon fill="#f2f2ef" fill-opacity="0.501961" points="162,47 147,43 159,52" />
<polygon fill="#333721" fill-opacity="0.501961" points="163,153 169,158 160,156" />
<polygon fill="#0e0d12" fill-opacity="0.501961" points="94,154 91,153 90,151" />
<polygon fill="#474f36" fill-opacity="0.501961" points="64,121 73,128 58,125" />
<polygon fill="#b7cad5" fill-opacity="0.501961" points="160,60 141,52 130,60" />
<polygon fill="#e1e2d9" fill-opacity="0.501961" points="38,89 70,87 56,93" />
<polygon fill="#7f8130" fill-opacity="0.501961" points="47,152 26,144 62,145" />
<polygon fill="#edeee9" fill-opacity="0.501961" points="128,56 132,51 138,57" />
<polygon fill="#5e653b" fill-opacity="0.501961" points="115,156 110,159 125,164" />
<polygon fill="#7e9ec1" fill-opacity="0.501961" points="131,117 165,110 172,122" />
<polygon fill="#b3c6d3" fill-opacity="0.501961" points="195,55 231,61 215,53" />
<polygon fill="#a8b3bf" fill-opacity="0.501961" points="116,18 141,26 101,26" />
<polygon fill="#aabcd4" fill-opacity="0.501961" points="26,16 -10,7 -16,17" />
<polygon fill="#a6afb9" fill-opacity="0.501961" points="200,18 188,5 214,-13" />
<polygon fill="#372f25" fill-opacity="0.501961" points="139,166 145,167 136,170" />
<polygon fill="#d4d5d7" fill-opacity="0.501961" points="54,27 7,38 -13,23" />
<polygon fill="#40452e" fill-opacity="0.501961" points="37,111 38,116 35,120" />
<polygon fill="#f7f1e1" fill-opacity="0.501961" points="185,88 190,91 199,88" />
<polygon fill="#4c6276" fill-opacity="0.501961" points="182,127 125,141 163,143" />
<polygon fill="#13170a" fill-opacity="0.501961" points="15,119 14,121 8,120" />
<polygon fill="#e7e8e1" fill-opacity="0.501961" points="67,70 59,72 74,75" />
<polygon fill="#2d3e50" fill-opacity="0.501961" points="212,170 225,138 207,158" />
<polygon fill="#a5c5d9" fill-opacity="0.501961" points="184,54 175,56 192,58" />
<polygon fill="#c9d1d0" fill-opacity="0.501961" points="94,76 62,84 125,86" />
<polygon fill="#fdf8ee" fill-opacity="0.501961" points="5,80 -16,82 -13,73" />
<polygon fill="#5c623a" fill-opacity="0.501961" points="134,145 125,157 145,147" />
<polygon fill="#e0e0e0" fill-opacity="0.501961" points="94,3 58,1 62,10" />
<polygon fill="#c7cbca" fill-opacity="0.501961" points="29,110 37,90 -16,90" />
<polygon fill="#8fb6d4" fill-opacity="0.501961" points="88,108 111,117 57,117" />
<polygon fill="#d5d8d8" fill-opacity="0.501961" points="53,48 53,58 24,61" />
<polygon fill="#f4f2e7" fill-opacity="0.501961" points="32,80 25,80 35,84" />
<polygon fill="#5c7ca3" fill-opacity="0.501961" points="93,125 109,121 83,118" />
<polygon fill="#24231e" fill-opacity="0.501961" points="117,145 122,141 123,148" />
<polygon fill="#8b8f5e" fill-opacity="0.501961" points="6,112 -8,112 -10,119" />
<polygon fill="#bbc4c9" fill-opacity="0.501961" points="162,83 137,83 151,87" />
<polygon fill="#e2e4da" fill-opacity="0.501961" points="153,86 118,88 132,93" />
<polygon fill="#f2f3eb" fill-opacity="0.501961" points="95,59 106,58 103,66" />
<polygon fill="#8b883a" fill-opacity="0.501961" points="-16,136 -7,127 17,135" />
<polygon fill="#51615c" fill-opacity="0.501961" points="183,153 177,158 168,155" />
<polygon fill="#cacbca" fill-opacity="0.501961" points="22,41 34,54 13,45" />
<polygon fill="#454e25" fill-opacity="0.501961" points="122,185 186,183 129,167" />
<polygon fill="#44472e" fill-opacity="0.501961" points="20,120 21,112 15,111" />
<polygon fill="#5f7083" fill-opacity="0.501961" points="160,122 173,126 187,122" />
<polygon fill="#e6e8e4" fill-opacity="0.501961" points="47,45 36,34 55,33" />
<polygon fill="#fafbf5" fill-opacity="0.501961" points="121,66 132,62 126,59" />
<polygon fill="#838243" fill-opacity="0.501961" points="28,159 24,153 2,161" />
<polygon fill="#6d6f33" fill-opacity="0.501961" points="51,136 40,127 47,129" />
<polygon fill="#3c4020" fill-opacity="0.501961" points="145,153 136,158 134,155" />
<polygon fill="#828259" fill-opacity="0.501961" points="235,162 230,161 234,166" />
<polygon fill="#8f8f53" fill-opacity="0.501961" points="-16,82 -16,124 1,104" />
<polygon fill="#9ba6b3" fill-opacity="0.501961" points="197,5 226,21 271,-9" />
<polygon fill="#7d7a52" fill-opacity="0.501961" points="158,166 168,180 166,166" />
<polygon fill="#918b52" fill-opacity="0.501961" points="41,143 35,133 34,137" />
<polygon fill="#5c5a33" fill-opacity="0.501961" points="47,160 65,160 73,167" />
<polygon fill="#d0d3cd" fill-opacity="0.501961" points="116,104 81,98 146,90" />
<polygon fill="#c3ced3" fill-opacity="0.501961" points="193,73 183,76 204,79" />
<polygon fill="#6b6e3e" fill-opacity="0.501961" points="98,149 105,155 94,155" />
</g>
</svg>