<svg xmlns="http://www.w3.org/2000/svg" viewBox="0 0 1024 680"><path fill="#a3aca9" d="M0 0h1024v680H0z"/><g fill-opacity=".502"><path fill="#1a2000" d="M26 742l-88-336 1148 220z"/><path fill="#f9fafc" d="M-62 406l1148 32L714-62z"/><path fill="#001542" d="M414 490l584 252 88-248z"/><path fill="#edf1ff" d="M626-18L-62-6l52 376z"/><path fill="#726e18" d="M-58 678l-4-276 996 300z"/><path fill="#d0d9dc" d="M66 450l1012-12 8-436z"/><path fill="#5f90c6" d="M1086 426l-980 16 476 128z"/><path fill="#374951" d="M994 742l92-244-948 8z"/><path fill="#95a1af" d="M326 118l-100 92 324 4z"/><path fill="#b6cbd3" d="M598 406l-320 80-292-96z"/><path fill="#dbdcdf" d="M458-62l628 424-116-248z"/><path fill="#476282" d="M318 506l768-32-424 136z"/><path fill="#888636" d="M562 662L-54 506l172 236z"/><path fill="#a2aab7" d="M570 114L546-18 346 90z"/><path fill="#394546" d="M1086 678L902 498 438 738z"/><path fill="#9bb7dd" d="M170-62L-62 46l308 56z"/><path fill="#c0b8bc" d="M282 554l-64 12 32-40z"/><path fill="#7695be" d="M766 486l320 28v-88z"/><path fill="#eae9e2" d="M174 198L-62 314l528-76z"/><path fill="#ebe8e4" d="M310 86l-324 48 168 76z"/><path fill="#98a3ad" d="M354 246l-72 40 212 4z"/><path fill="#e5e8ec" d="M446-34L142-62l248 196z"/><path fill="#fff" d="M606 46h140L650-54z"/><path fill="#9ca6bc" d="M1086 54L718-62l60 140z"/><path fill="#c2cac8" d="M530 414l556-104v148z"/><path fill="#474b2b" d="M234 502L-6 406l60 88z"/><path fill="#ddddd6" d="M402 390l684-28-528-212z"/><path fill="#545628" d="M386 530l-112 76 412 36z"/><path fill="#324862" d="M582 594l504-88-232 160z"/><path fill="#272b19" d="M1086 650l-268 92 168-120z"/><path fill="#c0cbd2" d="M966 110l120 152-580-28z"/><path fill="#cccfca" d="M-22 242l92 204 400-24z"/><path fill="#8eb5d4" d="M562 506l176-80-428 20z"/><path fill="#a0a5ae" d="M50 178l-16 44 128 4z"/><path fill="#efeeeb" d="M570 122l-128 56-28-64z"/><path fill="#686733" d="M566 610l300 68-220 16z"/><path fill="#898a40" d="M246 682l212-84 100 68z"/><path fill="#f3f5f1" d="M518 234l112 76-236-72z"/><path fill="#5e7ca5" d="M330 518l128-44-220 4z"/><path fill="#a7b0b5" d="M438 202h120l-76-56z"/><path fill="#696934" d="M286 742L34 418l168 84z"/><path fill="#15180d" d="M46 458l44 24-40 12z"/><path fill="#7e7c50" d="M926 662l-44-28 92 20z"/><path fill="#a8b0b9" d="M618 118l-68 48 92 4z"/><path fill="#515529" d="M422 518l52 128-156-92z"/><path fill="#b9c6d8" d="M-62 54l464-32-212 92z"/><path fill="#e0dfdb" d="M1014 78l-308 44 208 28z"/><path fill="#3a4f66" d="M710 494l8 148 252-140z"/><path fill="#636738" d="M194 482l92 76 172-12z"/><path fill="#a6b3c4" d="M974 122l-148 36 260 8z"/></g></svg>
