<svg xmlns="http://www.w3.org/2000/svg" version="1.1" width="1024" height="680">
<rect x="0" y="0" width="1024" height="680" fill="#a3aca9" />
<g transform="scale(4.000000) translate(0.5 0.5)">
<polygon fill="#1b2000" fill-opacity="0.501961" points="5,185 271,158 -13,101" />
<polygon fill="#f9fafd" fill-opacity="0.501961" points="271,111 -16,97 183,-16" />
<polygon fill="#001542" fill-opacity="0.501961" points="271,122 102,123 249,185" />
<polygon fill="#ecf1ff" fill-opacity="0.501961" points="-8,91 -15,-16 180,-16" />
<polygon fill="#736f18" fill-opacity="0.501961" points="222,173 -16,170 0,105" />
<polygon fill="#d1d9db" fill-opacity="0.501961" points="271,0 11,112 256,108" />
<polygon fill="#5e8fc4" fill-opacity="0.501961" points="25,110 271,106 146,143" />
<polygon fill="#36494f" fill-opacity="0.501961" points="271,124 36,126 246,185" />
<polygon fill="#929eae" fill-opacity="0.501961" points="79,29 60,53 130,52" />
<polygon fill="#bcced5" fill-opacity="0.501961" points="159,99 -16,95 69,121" />
<polygon fill="#d8dadd" fill-opacity="0.501961" points="237,24 110,-16 271,95" />
<polygon fill="#a1a9b5" fill-opacity="0.501961" points="93,21 142,29 135,-7" />
<polygon fill="#445e7f" fill-opacity="0.501961" points="271,115 94,129 181,157" />
<polygon fill="#878636" fill-opacity="0.501961" points="-16,125 138,165 32,185" />
<polygon fill="#394545" fill-opacity="0.501961" points="119,179 271,169 231,123" />
<polygon fill="#9cb7dd" fill-opacity="0.501961" points="-16,10 46,-16 59,26" />
<polygon fill="#bab5b1" fill-opacity="0.501961" points="55,139 66,129 69,140" />
<polygon fill="#9ca4ba" fill-opacity="0.501961" points="271,17 182,-16 194,21" />
<polygon fill="#7c9bc2" fill-opacity="0.501961" points="259,109 193,121 261,127" />
<polygon fill="#e9e6e1" fill-opacity="0.501961" points="50,81 4,24 56,29" />
<polygon fill="#ffffff" fill-opacity="0.501961" points="159,-16 187,11 151,11" />
<polygon fill="#484c28" fill-opacity="0.501961" points="6,103 68,130 4,121" />
<polygon fill="#b2c6ce" fill-opacity="0.501961" points="253,112 196,89 113,112" />
<polygon fill="#99a4ad" fill-opacity="0.501961" points="126,71 93,62 67,72" />
<polygon fill="#f1f2f4" fill-opacity="0.501961" points="50,-1 96,14 127,-16" />
<polygon fill="#e7e6dd" fill-opacity="0.501961" points="225,69 192,95 94,56" />
<polygon fill="#545628" fill-opacity="0.501961" points="35,113 147,151 91,151" />
<polygon fill="#fffff8" fill-opacity="0.501961" points="58,54 90,54 75,66" />
<polygon fill="#a2a7af" fill-opacity="0.501961" points="15,45 0,57 38,55" />
<polygon fill="#d4d6cf" fill-opacity="0.501961" points="-8,52 200,97 14,108" />
<polygon fill="#f5f5f2" fill-opacity="0.501961" points="104,37 75,17 133,37" />
<polygon fill="#5976a2" fill-opacity="0.501961" points="114,120 58,118 87,131" />
<polygon fill="#242818" fill-opacity="0.501961" points="218,185 246,154 271,178" />
<polygon fill="#c1cad1" fill-opacity="0.501961" points="130,36 271,74 248,35" />
<polygon fill="#676532" fill-opacity="0.501961" points="187,185 257,177 123,149" />
<polygon fill="#314660" fill-opacity="0.501961" points="190,165 182,127 271,138" />
<polygon fill="#8db9dc" fill-opacity="0.501961" points="160,108 71,109 116,122" />
<polygon fill="#a2abb2" fill-opacity="0.501961" points="108,52 120,38 137,48" />
<polygon fill="#eeede9" fill-opacity="0.501961" points="9,61 29,73 70,53" />
<polygon fill="#7f7e4e" fill-opacity="0.501961" points="220,158 231,166 241,163" />
<polygon fill="#8d8e40" fill-opacity="0.501961" points="133,158 122,178 81,154" />
<polygon fill="#4f4a31" fill-opacity="0.501961" points="75,159 61,167 37,162" />
<polygon fill="#50552f" fill-opacity="0.501961" points="69,150 116,158 105,129" />
<polygon fill="#edede8" fill-opacity="0.501961" points="175,47 121,56 147,42" />
<polygon fill="#fefffb" fill-opacity="0.501961" points="117,57 93,59 131,66" />
<polygon fill="#d0d2cd" fill-opacity="0.501961" points="271,108 271,27 169,102" />
<polygon fill="#e0dfdd" fill-opacity="0.501961" points="180,15 248,29 163,38" />
<polygon fill="#c5cbcb" fill-opacity="0.501961" points="23,111 85,102 20,70" />
<polygon fill="#fef8f0" fill-opacity="0.501961" points="18,38 3,52 -1,46" />
<polygon fill="#181b13" fill-opacity="0.501961" points="20,120 12,122 9,111" />
<polygon fill="#abb5be" fill-opacity="0.501961" points="89,55 35,46 101,32" />
<polygon fill="#b9c8dd" fill-opacity="0.501961" points="52,21 82,21 101,-4" />
<polygon fill="#2e321b" fill-opacity="0.501961" points="8,164 12,184 -16,157" />
<polygon fill="#64683c" fill-opacity="0.501961" points="42,123 -16,107 9,103" />
<polygon fill="#e4e3e2" fill-opacity="0.501961" points="5,36 82,19 31,49" />
<polygon fill="#6f754b" fill-opacity="0.501961" points="107,130 90,138 59,128" />
<polygon fill="#868436" fill-opacity="0.501961" points="-16,116 -11,141 43,137" />
<polygon fill="#94b7dc" fill-opacity="0.501961" points="54,5 1,-14 -4,6" />
<polygon fill="#17161a" fill-opacity="0.501961" points="65,144 65,140 55,145" />
<polygon fill="#acb1b8" fill-opacity="0.501961" points="153,29 136,41 161,41" />
<polygon fill="#31321e" fill-opacity="0.501961" points="123,148 120,139 99,150" />
<polygon fill="#b1b8c1" fill-opacity="0.501961" points="173,16 106,27 103,8" />
<polygon fill="#7f9ebe" fill-opacity="0.501961" points="162,111 105,119 146,126" />
<polygon fill="#94a2ba" fill-opacity="0.501961" points="271,41 258,32 231,38" />
<polygon fill="#e6e7e5" fill-opacity="0.501961" points="157,27 108,29 107,43" />
<polygon fill="#486079" fill-opacity="0.501961" points="212,123 155,152 81,124" />
<polygon fill="#6a6b3a" fill-opacity="0.501961" points="37,111 21,113 60,146" />
<polygon fill="#9ca7b6" fill-opacity="0.501961" points="271,-9 186,7 224,23" />
<polygon fill="#22291b" fill-opacity="0.501961" points="195,185 271,174 224,164" />
<polygon fill="#997f6d" fill-opacity="0.501961" points="78,168 46,165 93,185" />
<polygon fill="#999586" fill-opacity="0.501961" points="64,137 58,142 50,131" />
<polygon fill="#c5cfd3" fill-opacity="0.501961" points="194,78 132,59 215,53" />
<polygon fill="#ebece5" fill-opacity="0.501961" points="144,66 174,77 114,76" />
<polygon fill="#4f5228" fill-opacity="0.501961" points="65,130 39,135 35,113" />
<polygon fill="#7699c4" fill-opacity="0.501961" points="235,112 190,122 166,109" />
<polygon fill="#85864d" fill-opacity="0.501961" points="112,153 128,169 114,143" />
<polygon fill="#bdc7d6" fill-opacity="0.501961" points="-12,4 9,30 85,16" />
<polygon fill="#a6afb9" fill-opacity="0.501961" points="52,71 81,69 66,66" />
<polygon fill="#343714" fill-opacity="0.501961" points="92,143 91,133 77,148" />
<polygon fill="#fbfcf6" fill-opacity="0.501961" points="183,2 159,0 149,15" />
<polygon fill="#8abadf" fill-opacity="0.501961" points="90,115 52,117 58,108" />
<polygon fill="#a8b0bb" fill-opacity="0.501961" points="40,71 41,78 17,77" />
<polygon fill="#36485a" fill-opacity="0.501961" points="210,167 271,140 144,146" />
<polygon fill="#e7e5df" fill-opacity="0.501961" points="269,73 246,63 211,72" />
<polygon fill="#32361d" fill-opacity="0.501961" points="187,185 175,166 184,158" />
<polygon fill="#92933f" fill-opacity="0.501961" points="91,156 107,160 108,152" />
<polygon fill="#b2c0ce" fill-opacity="0.501961" points="245,34 199,38 239,46" />
<polygon fill="#cecfcb" fill-opacity="0.501961" points="102,34 92,44 119,47" />
<polygon fill="#7a8252" fill-opacity="0.501961" points="65,130 69,143 84,150" />
<polygon fill="#9cc2dc" fill-opacity="0.501961" points="225,108 262,103 268,117" />
<polygon fill="#dfdddc" fill-opacity="0.501961" points="253,22 234,20 216,35" />
<polygon fill="#788fa5" fill-opacity="0.501961" points="154,119 140,128 122,122" />
<polygon fill="#9aa9bb" fill-opacity="0.501961" points="104,51 57,47 91,39" />
<polygon fill="#c5cac7" fill-opacity="0.501961" points="241,87 271,106 171,106" />
<polygon fill="#e2e0db" fill-opacity="0.501961" points="233,58 222,52 261,41" />
<polygon fill="#d1d4d2" fill-opacity="0.501961" points="29,60 65,53 38,36" />
<polygon fill="#72732a" fill-opacity="0.501961" points="7,138 62,144 47,164" />
<polygon fill="#fefcf7" fill-opacity="0.501961" points="82,-16 57,0 88,3" />
<polygon fill="#f2f0e7" fill-opacity="0.501961" points="93,57 99,65 107,66" />
<polygon fill="#f2efe7" fill-opacity="0.501961" points="18,81 35,78 38,83" />
<polygon fill="#f6f6f1" fill-opacity="0.501961" points="182,19 190,15 179,7" />
<polygon fill="#292b0e" fill-opacity="0.501961" points="71,138 74,131 77,136" />
<polygon fill="#383e21" fill-opacity="0.501961" points="137,151 147,159 135,157" />
<polygon fill="#b5c6d4" fill-opacity="0.501961" points="258,52 270,65 217,60" />
<polygon fill="#e3e3dc" fill-opacity="0.501961" points="49,93 52,81 89,87" />
<polygon fill="#0a0300" fill-opacity="0.501961" points="152,167 182,185 137,179" />
<polygon fill="#838a4c" fill-opacity="0.501961" points="82,158 92,147 87,145" />
<polygon fill="#c0c9c7" fill-opacity="0.501961" points="99,99 162,96 138,108" />
<polygon fill="#d8d6d3" fill-opacity="0.501961" points="7,103 24,63 -16,93" />
<polygon fill="#ebebe3" fill-opacity="0.501961" points="183,86 200,78 222,83" />
<polygon fill="#6e8cae" fill-opacity="0.501961" points="71,117 70,126 97,119" />
<polygon fill="#686d3a" fill-opacity="0.501961" points="102,127 97,157 107,137" />
<polygon fill="#efeeec" fill-opacity="0.501961" points="99,15 86,15 116,-16" />
<polygon fill="#746f4d" fill-opacity="0.501961" points="140,160 155,152 149,167" />
<polygon fill="#e4e5e2" fill-opacity="0.501961" points="151,56 170,36 173,56" />
<polygon fill="#cccdcc" fill-opacity="0.501961" points="60,27 77,37 45,51" />
<polygon fill="#afc6d7" fill-opacity="0.501961" points="172,56 210,53 192,61" />
<polygon fill="#dbd9d4" fill-opacity="0.501961" points="188,76 199,58 136,66" />
<polygon fill="#fffffb" fill-opacity="0.501961" points="83,55 88,62 72,59" />
<polygon fill="#abb5c0" fill-opacity="0.501961" points="90,29 75,57 71,28" />
<polygon fill="#302e23" fill-opacity="0.501961" points="51,142 51,138 42,138" />
<polygon fill="#5f5e33" fill-opacity="0.501961" points="237,157 244,151 254,154" />
<polygon fill="#e0e2d9" fill-opacity="0.501961" points="108,94 146,89 115,73" />
<polygon fill="#777946" fill-opacity="0.501961" points="59,120 44,131 46,137" />
<polygon fill="#f9faf5" fill-opacity="0.501961" points="135,63 123,67 124,59" />
<polygon fill="#edeeec" fill-opacity="0.501961" points="54,29 62,20 81,20" />
<polygon fill="#becfd8" fill-opacity="0.501961" points="118,59 141,51 163,61" />
<polygon fill="#6e7442" fill-opacity="0.501961" points="178,158 173,179 172,155" />
<polygon fill="#3f546b" fill-opacity="0.501961" points="164,148 179,124 247,124" />
<polygon fill="#d1d3d4" fill-opacity="0.501961" points="108,-1 155,10 152,-13" />
<polygon fill="#adb6c1" fill-opacity="0.501961" points="115,2 100,27 132,26" />
<polygon fill="#9a9652" fill-opacity="0.501961" points="123,164 117,155 139,165" />
<polygon fill="#7692b3" fill-opacity="0.501961" points="211,110 213,123 258,115" />
<polygon fill="#575c2e" fill-opacity="0.501961" points="117,162 107,157 118,154" />
<polygon fill="#c2c3c9" fill-opacity="0.501961" points="266,31 233,34 260,6" />
<polygon fill="#80a4cc" fill-opacity="0.501961" points="124,120 185,119 164,108" />
<polygon fill="#b2b9be" fill-opacity="0.501961" points="114,45 139,51 120,35" />
<polygon fill="#aeb6bc" fill-opacity="0.501961" points="125,69 105,63 105,73" />
<polygon fill="#cdd3dc" fill-opacity="0.501961" points="41,15 75,1 89,14" />
<polygon fill="#c3c9c9" fill-opacity="0.501961" points="25,112 13,89 42,95" />
<polygon fill="#7b803d" fill-opacity="0.501961" points="16,166 -16,148 33,150" />
<polygon fill="#4a4034" fill-opacity="0.501961" points="34,157 41,162 29,158" />
<polygon fill="#bfcacd" fill-opacity="0.501961" points="214,72 197,78 239,80" />
<polygon fill="#2f3129" fill-opacity="0.501961" points="97,146 93,154 89,155" />
<polygon fill="#aeb8bb" fill-opacity="0.501961" points="137,75 126,79 137,80" />
<polygon fill="#e6e6e2" fill-opacity="0.501961" points="128,31 136,42 124,43" />
<polygon fill="#878841" fill-opacity="0.501961" points="79,142 66,144 89,133" />
<polygon fill="#304150" fill-opacity="0.501961" points="260,185 271,132 244,133" />
<polygon fill="#797b35" fill-opacity="0.501961" points="30,137 43,127 22,124" />
<polygon fill="#446285" fill-opacity="0.501961" points="104,125 156,125 115,138" />
<polygon fill="#99943b" fill-opacity="0.501961" points="43,165 15,185 100,184" />
<polygon fill="#3f4227" fill-opacity="0.501961" points="6,112 20,111 23,122" />
<polygon fill="#a2b1c0" fill-opacity="0.501961" points="38,86 48,85 32,82" />
<polygon fill="#48452b" fill-opacity="0.501961" points="61,163 65,170 52,162" />
<polygon fill="#30321f" fill-opacity="0.501961" points="244,166 234,156 251,154" />
<polygon fill="#2f3116" fill-opacity="0.501961" points="167,155 165,158 159,151" />
<polygon fill="#8b9586" fill-opacity="0.501961" points="43,115 59,121 55,115" />
<polygon fill="#666b43" fill-opacity="0.501961" points="179,165 213,185 198,163" />
<polygon fill="#333e27" fill-opacity="0.501961" points="78,147 79,153 72,146" />
<polygon fill="#827b54" fill-opacity="0.501961" points="166,167 158,165 147,182" />
<polygon fill="#efece0" fill-opacity="0.501961" points="216,85 236,86 228,81" />
<polygon fill="#a0a9b5" fill-opacity="0.501961" points="170,-16 271,4 216,23" />
<polygon fill="#787855" fill-opacity="0.501961" points="234,159 229,165 241,164" />
<polygon fill="#edede9" fill-opacity="0.501961" points="29,37 46,57 23,44" />
<polygon fill="#c6ced0" fill-opacity="0.501961" points="51,72 105,80 64,86" />
<polygon fill="#abb2bb" fill-opacity="0.501961" points="10,47 13,58 37,55" />
<polygon fill="#c9cbc7" fill-opacity="0.501961" points="21,95 19,109 -16,81" />
<polygon fill="#ced3cf" fill-opacity="0.501961" points="143,78 157,89 184,79" />
<polygon fill="#27271b" fill-opacity="0.501961" points="123,148 115,144 122,140" />
<polygon fill="#536f91" fill-opacity="0.501961" points="95,131 120,121 93,121" />
<polygon fill="#404225" fill-opacity="0.501961" points="47,117 50,124 37,136" />
<polygon fill="#e0e0db" fill-opacity="0.501961" points="67,79 58,70 92,74" />
<polygon fill="#d5d5d8" fill-opacity="0.501961" points="5,41 -16,18 43,28" />
<polygon fill="#7a8035" fill-opacity="0.501961" points="54,142 69,163 94,160" />
<polygon fill="#d7d9d6" fill-opacity="0.501961" points="176,66 147,60 113,74" />
<polygon fill="#b2c4d8" fill-opacity="0.501961" points="53,27 17,21 74,14" />
<polygon fill="#f8f5ec" fill-opacity="0.501961" points="130,57 129,52 136,53" />
<polygon fill="#f3f3ec" fill-opacity="0.501961" points="218,67 207,70 229,71" />
<polygon fill="#b3c7d1" fill-opacity="0.501961" points="258,77 231,76 243,72" />
<polygon fill="#afc0d4" fill-opacity="0.501961" points="81,9 91,8 99,-5" />
<polygon fill="#bfc5cc" fill-opacity="0.501961" points="140,25 160,25 131,-7" />
<polygon fill="#edebe4" fill-opacity="0.501961" points="55,78 51,83 36,80" />
<polygon fill="#342f1f" fill-opacity="0.501961" points="146,185 108,183 143,166" />
<polygon fill="#47544f" fill-opacity="0.501961" points="218,161 230,166 230,146" />
<polygon fill="#c7cac9" fill-opacity="0.501961" points="73,68 67,58 39,66" />
<polygon fill="#687b9a" fill-opacity="0.501961" points="271,112 261,129 236,124" />
<polygon fill="#b6bec2" fill-opacity="0.501961" points="196,87 215,84 207,89" />
<polygon fill="#bbcbd7" fill-opacity="0.501961" points="163,49 222,38 183,34" />
<polygon fill="#f5f2e7" fill-opacity="0.501961" points="-3,75 -16,82 9,83" />
<polygon fill="#d6d8d5" fill-opacity="0.501961" points="176,46 245,59 223,41" />
<polygon fill="#191a16" fill-opacity="0.501961" points="103,150 108,151 108,146" />
<polygon fill="#a5b0ba" fill-opacity="0.501961" points="101,67 90,73 69,68" />
<polygon fill="#8fb6d4" fill-opacity="0.501961" points="83,108 49,114 102,119" />
<polygon fill="#354a61" fill-opacity="0.501961" points="173,151 189,164 214,128" />
<polygon fill="#585e30" fill-opacity="0.501961" points="153,154 128,142 116,153" />
<polygon fill="#b3b8be" fill-opacity="0.501961" points="44,44 38,47 38,41" />
<polygon fill="#f0efe2" fill-opacity="0.501961" points="131,83 150,82 140,79" />
<polygon fill="#f4f6ef" fill-opacity="0.501961" points="168,75 137,76 147,70" />
<polygon fill="#817f5d" fill-opacity="0.501961" points="36,137 49,136 35,133" />
<polygon fill="#727748" fill-opacity="0.501961" points="81,127 87,137 70,125" />
<polygon fill="#677a8f" fill-opacity="0.501961" points="181,121 170,126 156,120" />
<polygon fill="#646632" fill-opacity="0.501961" points="46,130 43,114 37,127" />
<polygon fill="#3d401b" fill-opacity="0.501961" points="61,129 54,132 46,127" />
<polygon fill="#b0a485" fill-opacity="0.501961" points="74,166 54,185 80,180" />
<polygon fill="#252119" fill-opacity="0.501961" points="18,125 17,126 22,128" />
<polygon fill="#a6a495" fill-opacity="0.501961" points="59,140 68,138 63,133" />
<polygon fill="#bec1c2" fill-opacity="0.501961" points="159,13 181,13 170,18" />
<polygon fill="#dcddde" fill-opacity="0.501961" points="180,14 163,-16 189,-1" />
<polygon fill="#c6cdcb" fill-opacity="0.501961" points="52,108 93,93 125,105" />
<polygon fill="#b5bec1" fill-opacity="0.501961" points="193,86 181,90 183,86" />
<polygon fill="#565b35" fill-opacity="0.501961" points="117,142 87,140 104,130" />
<polygon fill="#e2e4e1" fill-opacity="0.501961" points="41,29 54,32 46,55" />
<polygon fill="#f7f7f2" fill-opacity="0.501961" points="110,43 108,35 116,34" />
<polygon fill="#7993b0" fill-opacity="0.501961" points="235,123 197,122 230,113" />
<polygon fill="#898e4a" fill-opacity="0.501961" points="23,113 29,111 21,118" />
<polygon fill="#12100c" fill-opacity="0.501961" points="178,166 174,185 189,178" />
<polygon fill="#c1c6c6" fill-opacity="0.501961" points="96,62 88,49 86,65" />
<polygon fill="#d5d4d0" fill-opacity="0.501961" points="240,67 200,58 193,69" />
<polygon fill="#777952" fill-opacity="0.501961" points="5,103 10,102 18,112" />
<polygon fill="#666d41" fill-opacity="0.501961" points="61,128 53,127 52,116" />
<polygon fill="#1e2012" fill-opacity="0.501961" points="8,120 14,121 19,117" />
<polygon fill="#adb4bb" fill-opacity="0.501961" points="187,9 214,21 191,-16" />
<polygon fill="#b2c6d4" fill-opacity="0.501961" points="220,53 212,60 188,55" />
<polygon fill="#c2cad3" fill-opacity="0.501961" points="5,50 13,70 -16,63" />
<polygon fill="#e4e5e7" fill-opacity="0.501961" points="70,3 63,10 50,-4" />
<polygon fill="#2a3b4d" fill-opacity="0.501961" points="257,151 271,171 240,175" />
<polygon fill="#d5d9da" fill-opacity="0.501961" points="205,18 170,43 149,25" />
<polygon fill="#f5f6f0" fill-opacity="0.501961" points="51,63 38,62 64,54" />
<polygon fill="#95bed9" fill-opacity="0.501961" points="40,114 40,110 54,110" />
<polygon fill="#e0dfd4" fill-opacity="0.501961" points="231,91 213,95 200,88" />
<polygon fill="#45492d" fill-opacity="0.501961" points="45,124 36,119 36,111" />
<polygon fill="#f1f0ec" fill-opacity="0.501961" points="87,24 100,25 93,32" />
<polygon fill="#807b60" fill-opacity="0.501961" points="52,134 59,132 55,147" />
<polygon fill="#dcdcd6" fill-opacity="0.501961" points="58,96 49,86 21,86" />
<polygon fill="#c7cccd" fill-opacity="0.501961" points="71,57 61,50 80,55" />
<polygon fill="#bcc1c4" fill-opacity="0.501961" points="57,38 74,41 51,58" />
<polygon fill="#b7c6d8" fill-opacity="0.501961" points="52,-3 26,25 64,20" />
<polygon fill="#0e0c06" fill-opacity="0.501961" points="90,143 89,141 85,144" />
<polygon fill="#3c441f" fill-opacity="0.501961" points="-8,185 21,167 -1,170" />
<polygon fill="#bdc5c8" fill-opacity="0.501961" points="135,87 131,83 149,84" />
<polygon fill="#7a805c" fill-opacity="0.501961" points="207,166 231,185 199,176" />
<polygon fill="#878954" fill-opacity="0.501961" points="67,150 74,142 63,147" />
<polygon fill="#b3cad9" fill-opacity="0.501961" points="161,57 187,61 184,54" />
<polygon fill="#f5f1e1" fill-opacity="0.501961" points="200,89 193,91 185,88" />
<polygon fill="#e1e2df" fill-opacity="0.501961" points="25,73 8,57 56,70" />
<polygon fill="#676c3c" fill-opacity="0.501961" points="7,109 20,108 21,112" />
<polygon fill="#2f4050" fill-opacity="0.501961" points="201,162 214,150 226,169" />
<polygon fill="#415f84" fill-opacity="0.501961" points="81,126 83,131 96,127" />
<polygon fill="#354552" fill-opacity="0.501961" points="239,134 251,145 232,161" />
<polygon fill="#496175" fill-opacity="0.501961" points="190,138 147,147 127,134" />
<polygon fill="#87acd3" fill-opacity="0.501961" points="51,114 59,117 57,120" />
<polygon fill="#c1c4c1" fill-opacity="0.501961" points="144,55 138,55 134,43" />
<polygon fill="#edeee9" fill-opacity="0.501961" points="138,45 161,51 159,44" />
<polygon fill="#cdd0cd" fill-opacity="0.501961" points="154,50 150,45 142,57" />
<polygon fill="#747842" fill-opacity="0.501961" points="163,158 158,154 157,163" />
<polygon fill="#3b4522" fill-opacity="0.501961" points="128,166 146,177 132,175" />
<polygon fill="#42461b" fill-opacity="0.501961" points="42,135 42,131 31,130" />
<polygon fill="#555935" fill-opacity="0.501961" points="-8,112 -14,95 14,112" />
<polygon fill="#76783e" fill-opacity="0.501961" points="118,156 115,139 112,149" />
<polygon fill="#a8bbd4" fill-opacity="0.501961" points="-16,8 -6,18 23,16" />
<polygon fill="#b2bac2" fill-opacity="0.501961" points="122,20 142,-1 100,10" />
<polygon fill="#272c18" fill-opacity="0.501961" points="220,178 247,185 231,164" />
<polygon fill="#86784a" fill-opacity="0.501961" points="67,170 45,162 54,185" />
<polygon fill="#818763" fill-opacity="0.501961" points="85,151 78,146 81,151" />
<polygon fill="#e6e7e4" fill-opacity="0.501961" points="149,16 159,15 154,-16" />
<polygon fill="#afb8bf" fill-opacity="0.501961" points="19,73 37,76 19,79" />
<polygon fill="#c4ceda" fill-opacity="0.501961" points="72,4 99,24 60,13" />
<polygon fill="#4c4f2e" fill-opacity="0.501961" points="130,160 127,152 131,145" />
<polygon fill="#e6e7df" fill-opacity="0.501961" points="100,61 113,63 97,65" />
<polygon fill="#626731" fill-opacity="0.501961" points="9,155 0,154 4,165" />
<polygon fill="#d7d8d7" fill-opacity="0.501961" points="59,27 69,41 73,37" />
<polygon fill="#848856" fill-opacity="0.501961" points="6,113 -16,110 -16,123" />
<polygon fill="#ced0cf" fill-opacity="0.501961" points="264,62 212,62 235,71" />
<polygon fill="#3a4f6a" fill-opacity="0.501961" points="240,136 271,130 223,126" />
<polygon fill="#807f42" fill-opacity="0.501961" points="32,169 29,156 -3,148" />
<polygon fill="#a09f81" fill-opacity="0.501961" points="126,161 119,158 119,161" />
<polygon fill="#787529" fill-opacity="0.501961" points="47,147 21,155 -16,134" />
<polygon fill="#5b6247" fill-opacity="0.501961" points="237,156 235,152 248,153" />
<polygon fill="#6a6f3f" fill-opacity="0.501961" points="23,169 9,158 25,161" />
<polygon fill="#c7c9c8" fill-opacity="0.501961" points="190,20 187,11 215,22" />
<polygon fill="#3d452a" fill-opacity="0.501961" points="109,136 113,143 104,139" />
<polygon fill="#707643" fill-opacity="0.501961" points="134,158 123,148 129,148" />
<polygon fill="#b1b9c1" fill-opacity="0.501961" points="42,74 46,78 35,77" />
<polygon fill="#8f8b41" fill-opacity="0.501961" points="118,158 127,160 118,154" />
<polygon fill="#a0adbc" fill-opacity="0.501961" points="99,50 55,48 81,39" />
<polygon fill="#a3bbc0" fill-opacity="0.501961" points="34,108 36,113 26,109" />
<polygon fill="#333c1f" fill-opacity="0.501961" points="103,140 95,145 97,141" />
<polygon fill="#6b702d" fill-opacity="0.501961" points="68,151 44,154 83,163" />
<polygon fill="#888935" fill-opacity="0.501961" points="114,161 135,167 93,167" />
<polygon fill="#727541" fill-opacity="0.501961" points="20,120 33,112 34,119" />
<polygon fill="#98bdd3" fill-opacity="0.501961" points="98,116 130,108 81,107" />
<polygon fill="#adb5bb" fill-opacity="0.501961" points="118,54 120,42 137,49" />
<polygon fill="#7f8236" fill-opacity="0.501961" points="101,147 82,166 120,175" />
<polygon fill="#dedcd4" fill-opacity="0.501961" points="271,82 257,92 228,82" />
<polygon fill="#f3f1ea" fill-opacity="0.501961" points="247,71 271,61 262,72" />
<polygon fill="#d0d3d2" fill-opacity="0.501961" points="49,68 44,63 27,67" />
<polygon fill="#bfc3c5" fill-opacity="0.501961" points="109,41 86,27 97,47" />
<polygon fill="#93b7d4" fill-opacity="0.501961" points="201,105 220,111 182,111" />
<polygon fill="#515234" fill-opacity="0.501961" points="158,166 175,161 143,158" />
<polygon fill="#cccdcb" fill-opacity="0.501961" points="17,47 19,41 39,55" />
<polygon fill="#595e2f" fill-opacity="0.501961" points="90,138 103,151 99,155" />
<polygon fill="#ddded8" fill-opacity="0.501961" points="234,32 191,36 214,23" />
<polygon fill="#c9cdcb" fill-opacity="0.501961" points="2,98 29,109 76,89" />
<polygon fill="#a2a089" fill-opacity="0.501961" points="70,142 64,138 64,135" />
<polygon fill="#d3d3d2" fill-opacity="0.501961" points="271,48 241,52 239,41" />
<polygon fill="#f2f3ed" fill-opacity="0.501961" points="91,56 79,65 63,56" />
<polygon fill="#7c8659" fill-opacity="0.501961" points="107,130 105,132 101,128" />
<polygon fill="#191e1d" fill-opacity="0.501961" points="247,157 239,169 244,169" />
<polygon fill="#6d7130" fill-opacity="0.501961" points="-10,120 11,117 -12,112" />
<polygon fill="#404526" fill-opacity="0.501961" points="245,156 250,161 252,155" />
<polygon fill="#a4b3c2" fill-opacity="0.501961" points="32,84 24,84 30,87" />
<polygon fill="#e2e2d9" fill-opacity="0.501961" points="89,94 75,85 114,91" />
<polygon fill="#bbbec0" fill-opacity="0.501961" points="238,48 224,44 239,41" />
<polygon fill="#7a7c47" fill-opacity="0.501961" points="50,134 54,126 53,138" />
<polygon fill="#5a5c2c" fill-opacity="0.501961" points="20,124 15,135 17,114" />
<polygon fill="#707543" fill-opacity="0.501961" points="92,150 81,155 97,139" />
<polygon fill="#2a3a4a" fill-opacity="0.501961" points="247,149 237,149 227,160" />
<polygon fill="#d6d9d5" fill-opacity="0.501961" points="82,60 109,56 94,52" />
<polygon fill="#b7bcc0" fill-opacity="0.501961" points="51,74 63,76 54,71" />
<polygon fill="#4c502f" fill-opacity="0.501961" points="21,114 25,123 36,124" />
<polygon fill="#586d7d" fill-opacity="0.501961" points="131,140 134,144 149,136" />
<polygon fill="#564e2e" fill-opacity="0.501961" points="43,159 34,160 43,164" />
<polygon fill="#9fc5db" fill-opacity="0.501961" points="168,106 158,109 180,110" />
<polygon fill="#afb8bd" fill-opacity="0.501961" points="120,73 94,64 82,73" />
<polygon fill="#3d5976" fill-opacity="0.501961" points="154,130 108,134 130,139" />
<polygon fill="#e6e8e2" fill-opacity="0.501961" points="119,83 135,82 124,77" />
<polygon fill="#d3d8d6" fill-opacity="0.501961" points="84,72 130,89 119,72" />
<polygon fill="#5c603f" fill-opacity="0.501961" points="230,166 230,160 220,160" />
<polygon fill="#bfc4c7" fill-opacity="0.501961" points="144,21 149,7 123,20" />
<polygon fill="#c5c9cc" fill-opacity="0.501961" points="58,27 66,25 55,39" />
<polygon fill="#939732" fill-opacity="0.501961" points="41,152 49,151 47,149" />
<polygon fill="#939fb2" fill-opacity="0.501961" points="242,38 259,37 265,30" />
<polygon fill="#8c8d46" fill-opacity="0.501961" points="31,132 37,137 38,132" />
<polygon fill="#90885a" fill-opacity="0.501961" points="146,162 140,158 142,161" />
<polygon fill="#cbd0d6" fill-opacity="0.501961" points="160,27 184,26 147,13" />
<polygon fill="#9ba5b1" fill-opacity="0.501961" points="229,17 271,-10 197,7" />
<polygon fill="#dbdcd6" fill-opacity="0.501961" points="191,92 153,74 166,92" />
<polygon fill="#e0e2e0" fill-opacity="0.501961" points="148,-16 162,-8 138,8" />
<polygon fill="#b1b7bf" fill-opacity="0.501961" points="175,0 203,-1 159,-16" />
<polygon fill="#3b4124" fill-opacity="0.501961" points="184,159 186,168 177,162" />
<polygon fill="#f4f1e1" fill-opacity="0.501961" points="123,89 130,90 116,92" />
<polygon fill="#becacb" fill-opacity="0.501961" points="136,96 174,106 118,107" />
<polygon fill="#92b9d5" fill-opacity="0.501961" points="49,117 60,110 49,112" />
<polygon fill="#acb6bf" fill-opacity="0.501961" points="211,84 206,86 214,87" />
<polygon fill="#4e532a" fill-opacity="0.501961" points="120,160 108,152 112,159" />
<polygon fill="#d7dad7" fill-opacity="0.501961" points="140,60 131,74 183,61" />
<polygon fill="#41412d" fill-opacity="0.501961" points="48,132 49,127 50,136" />
<polygon fill="#727430" fill-opacity="0.501961" points="8,120 32,140 -16,119" />
<polygon fill="#7f8551" fill-opacity="0.501961" points="68,132 69,129 64,130" />
<polygon fill="#696360" fill-opacity="0.501961" points="64,132 60,130 54,135" />
<polygon fill="#5e5142" fill-opacity="0.501961" points="70,165 63,164 57,168" />
<polygon fill="#d4d8d9" fill-opacity="0.501961" points="37,47 61,54 44,59" />
<polygon fill="#566152" fill-opacity="0.501961" points="144,151 153,151 136,145" />
<polygon fill="#958f3b" fill-opacity="0.501961" points="115,160 117,167 97,157" />
<polygon fill="#5f5e2c" fill-opacity="0.501961" points="26,147 18,148 13,143" />
<polygon fill="#faf7ea" fill-opacity="0.501961" points="69,86 80,89 81,86" />
<polygon fill="#f1f2e9" fill-opacity="0.501961" points="143,72 142,79 135,74" />
<polygon fill="#c5cdd3" fill-opacity="0.501961" points="-4,72 26,67 -16,60" />
<polygon fill="#485237" fill-opacity="0.501961" points="76,148 68,149 75,144" />
<polygon fill="#e4e4df" fill-opacity="0.501961" points="214,74 238,74 226,68" />
<polygon fill="#c0d0d9" fill-opacity="0.501961" points="124,59 114,55 120,61" />
<polygon fill="#efeeea" fill-opacity="0.501961" points="167,46 171,54 174,53" />
<polygon fill="#7e97ad" fill-opacity="0.501961" points="146,124 146,119 128,124" />
<polygon fill="#c5c8ca" fill-opacity="0.501961" points="40,50 51,49 37,38" />
<polygon fill="#24302d" fill-opacity="0.501961" points="225,162 227,185 221,183" />
<polygon fill="#546067" fill-opacity="0.501961" points="182,155 184,151 175,155" />
<polygon fill="#7999bd" fill-opacity="0.501961" points="185,113 194,121 156,120" />
<polygon fill="#9e8b6c" fill-opacity="0.501961" points="70,185 72,169 67,166" />
<polygon fill="#f0f0ed" fill-opacity="0.501961" points="90,23 75,22 82,20" />
<polygon fill="#3a4027" fill-opacity="0.501961" points="66,123 65,128 63,124" />
<polygon fill="#a7b2be" fill-opacity="0.501961" points="127,24 116,18 98,25" />
<polygon fill="#717741" fill-opacity="0.501961" points="153,154 145,155 155,162" />
<polygon fill="#f1f0ea" fill-opacity="0.501961" points="27,64 49,64 39,59" />
<polygon fill="#616531" fill-opacity="0.501961" points="80,133 86,146 77,141" />
<polygon fill="#251e1b" fill-opacity="0.501961" points="134,185 155,166 155,185" />
<polygon fill="#787a38" fill-opacity="0.501961" points="36,125 47,129 38,129" />
<polygon fill="#383722" fill-opacity="0.501961" points="47,118 42,121 50,123" />
<polygon fill="#494e2f" fill-opacity="0.501961" points="128,157 129,140 133,145" />
<polygon fill="#e5e7e2" fill-opacity="0.501961" points="142,47 134,57 125,56" />
<polygon fill="#9baab7" fill-opacity="0.501961" points="161,84 160,83 164,83" />
<polygon fill="#f2f1ee" fill-opacity="0.501961" points="15,41 7,42 17,36" />
<polygon fill="#f9f9f7" fill-opacity="0.501961" points="107,-16 87,-16 105,6" />
<polygon fill="#6e714a" fill-opacity="0.501961" points="238,168 240,180 229,185" />
<polygon fill="#b0c3d3" fill-opacity="0.501961" points="248,63 243,52 252,52" />
<polygon fill="#c6cdcd" fill-opacity="0.501961" points="259,76 231,83 209,74" />
<polygon fill="#c5cbc9" fill-opacity="0.501961" points="206,92 189,107 243,100" />
<polygon fill="#8f8c4c" fill-opacity="0.501961" points="2,104 -16,88 -16,119" />
<polygon fill="#b6c0c5" fill-opacity="0.501961" points="154,86 149,83 139,85" />
<polygon fill="#777a46" fill-opacity="0.501961" points="176,162 172,170 171,162" />
<polygon fill="#36371e" fill-opacity="0.501961" points="43,136 44,134 40,130" />
<polygon fill="#7e7c38" fill-opacity="0.501961" points="-3,132 -16,123 19,123" />
<polygon fill="#868454" fill-opacity="0.501961" points="44,131 44,137 50,137" />
<polygon fill="#292828" fill-opacity="0.501961" points="70,143 58,142 64,140" />
<polygon fill="#40462a" fill-opacity="0.501961" points="36,124 34,115 37,112" />
<polygon fill="#f9f9f7" fill-opacity="0.501961" points="159,1 155,11 181,2" />
<polygon fill="#3a3c24" fill-opacity="0.501961" points="86,149 83,142 81,145" />
<polygon fill="#616e62" fill-opacity="0.501961" points="110,137 117,142 116,138" />
<polygon fill="#6f743f" fill-opacity="0.501961" points="44,114 41,115 43,121" />
<polygon fill="#918c65" fill-opacity="0.501961" points="69,163 82,180 105,185" />
<polygon fill="#32351a" fill-opacity="0.501961" points="168,161 170,167 166,163" />
</g>
</svg>