<svg xmlns="http://www.w3.org/2000/svg" version="1.1" width="1024" height="680">
<rect x="0" y="0" width="1024" height="680" fill="#a3aca9" />
<g transform="scale(4.000000) translate(0.5 0.5)">
<polygon fill="#1b2000" fill-opacity="0.501961" points="-13,101 271,158 5,185" />
<polygon fill="#f9fafc" fill-opacity="0.501961" points="181,-16 271,110 -16,99" />
<polygon fill="#001642" fill-opacity="0.501961" points="249,185 271,123 99,122" />
<polygon fill="#edf1ff" fill-opacity="0.501961" points="-16,-3 -5,91 162,-7" />
<polygon fill="#736f18" fill-opacity="0.501961" points="-16,100 -16,181 258,184" />
<polygon fill="#d2d9db" fill-opacity="0.501961" points="258,108 10,111 271,1" />
<polygon fill="#5e8fc4" fill-opacity="0.501961" points="271,106 146,144 26,110" />
<polygon fill="#37484f" fill-opacity="0.501961" points="271,124 248,185 33,126" />
<polygon fill="#95a1af" fill-opacity="0.501961" points="82,28 54,52 131,53" />
<polygon fill="#b1c8d5" fill-opacity="0.501961" points="162,101 79,124 -8,98" />
<polygon fill="#878635" fill-opacity="0.501961" points="-16,123 152,172 29,185" />
<polygon fill="#d9dcdf" fill-opacity="0.501961" points="269,47 133,-16 271,100" />
<polygon fill="#a1a9b5" fill-opacity="0.501961" points="141,27 134,-16 96,23" />
<polygon fill="#6284b5" fill-opacity="0.501961" points="271,110 207,122 266,128" />
<polygon fill="#9cb8dd" fill-opacity="0.501961" points="59,27 48,-16 -16,8" />
<polygon fill="#435d7e" fill-opacity="0.501961" points="68,118 213,129 191,162" />
<polygon fill="#394441" fill-opacity="0.501961" points="119,174 261,128 255,172" />
<polygon fill="#c7c0c5" fill-opacity="0.501961" points="68,138 63,132 52,141" />
<polygon fill="#e8e5e0" fill-opacity="0.501961" points="58,26 4,26 53,82" />
<polygon fill="#ffffff" fill-opacity="0.501961" points="160,-16 150,12 185,10" />
<polygon fill="#9ca6af" fill-opacity="0.501961" points="91,61 128,71 70,72" />
<polygon fill="#9ca5bb" fill-opacity="0.501961" points="271,15 181,-16 193,18" />
<polygon fill="#b2c6ce" fill-opacity="0.501961" points="202,90 126,112 257,110" />
<polygon fill="#444929" fill-opacity="0.501961" points="5,103 57,125 7,122" />
<polygon fill="#eaebe5" fill-opacity="0.501961" points="129,53 183,83 59,57" />
<polygon fill="#f1f1f3" fill-opacity="0.501961" points="99,15 119,-16 3,-16" />
<polygon fill="#4c4f22" fill-opacity="0.501961" points="94,132 154,154 75,149" />
<polygon fill="#30455d" fill-opacity="0.501961" points="182,130 207,169 271,133" />
<polygon fill="#9ca2ac" fill-opacity="0.501961" points="13,46 9,57 39,55" />
<polygon fill="#f2f0e8" fill-opacity="0.501961" points="73,54 7,62 27,73" />
<polygon fill="#f1f1ee" fill-opacity="0.501961" points="77,21 114,39 143,33" />
<polygon fill="#bfc8cf" fill-opacity="0.501961" points="239,67 249,34 132,34" />
<polygon fill="#252818" fill-opacity="0.501961" points="246,155 221,178 271,185" />
<polygon fill="#88afd2" fill-opacity="0.501961" points="137,126 191,108 72,108" />
<polygon fill="#cbcdc5" fill-opacity="0.501961" points="25,112 87,98 -11,90" />
<polygon fill="#e5e2df" fill-opacity="0.501961" points="186,25 252,21 225,36" />
<polygon fill="#919140" fill-opacity="0.501961" points="83,155 121,179 134,159" />
<polygon fill="#686635" fill-opacity="0.501961" points="122,149 229,172 186,185" />
<polygon fill="#5f7da5" fill-opacity="0.501961" points="97,117 88,131 57,118" />
<polygon fill="#a2abb2" fill-opacity="0.501961" points="136,50 121,36 112,49" />
<polygon fill="#7a7a4f" fill-opacity="0.501961" points="234,159 245,166 219,162" />
<polygon fill="#5e5c30" fill-opacity="0.501961" points="56,150 21,161 70,166" />
<polygon fill="#efeee9" fill-opacity="0.501961" points="129,41 170,45 154,54" />
<polygon fill="#cfcfc8" fill-opacity="0.501961" points="268,105 249,70 148,105" />
<polygon fill="#e0e0d9" fill-opacity="0.501961" points="185,93 259,68 103,59" />
<polygon fill="#fdfdf7" fill-opacity="0.501961" points="78,66 58,54 86,56" />
<polygon fill="#a3adb4" fill-opacity="0.501961" points="107,64 98,74 125,69" />
<polygon fill="#fbf5ef" fill-opacity="0.501961" points="5,51 23,35 -15,51" />
<polygon fill="#97a7bc" fill-opacity="0.501961" points="227,38 271,29 269,42" />
<polygon fill="#363b1e" fill-opacity="0.501961" points="9,185 35,176 -5,159" />
<polygon fill="#202316" fill-opacity="0.501961" points="21,121 7,110 12,122" />
<polygon fill="#636634" fill-opacity="0.501961" points="35,113 108,137 75,141" />
<polygon fill="#666637" fill-opacity="0.501961" points="58,129 6,103 53,145" />
<polygon fill="#bcc7d8" fill-opacity="0.501961" points="-16,7 26,30 98,5" />
<polygon fill="#475f78" fill-opacity="0.501961" points="154,153 211,123 96,125" />
<polygon fill="#afb5bb" fill-opacity="0.501961" points="153,30 131,44 161,39" />
<polygon fill="#908d7c" fill-opacity="0.501961" points="60,131 46,136 77,142" />
<polygon fill="#afb7c1" fill-opacity="0.501961" points="101,28 103,9 163,17" />
<polygon fill="#94b6dc" fill-opacity="0.501961" points="44,-16 44,8 -16,3" />
<polygon fill="#c2c5c7" fill-opacity="0.501961" points="36,47 59,54 86,26" />
<polygon fill="#e0e1e0" fill-opacity="0.501961" points="186,31 187,-10 152,58" />
<polygon fill="#9cc4e2" fill-opacity="0.501961" points="271,102 230,109 271,118" />
<polygon fill="#718bab" fill-opacity="0.501961" points="195,122 271,125 232,112" />
<polygon fill="#868438" fill-opacity="0.501961" points="-15,116 44,137 -15,137" />
<polygon fill="#f6f4f0" fill-opacity="0.501961" points="65,20 51,29 80,22" />
<polygon fill="#98a8ba" fill-opacity="0.501961" points="108,51 56,48 86,38" />
<polygon fill="#9b8478" fill-opacity="0.501961" points="112,184 24,185 70,165" />
<polygon fill="#454a29" fill-opacity="0.501961" points="31,114 65,124 58,134" />
<polygon fill="#a3acb5" fill-opacity="0.501961" points="43,78 22,77 40,72" />
<polygon fill="#535935" fill-opacity="0.501961" points="95,155 70,150 108,127" />
<polygon fill="#d3d6ce" fill-opacity="0.501961" points="36,63 200,96 72,108" />
<polygon fill="#8ebadb" fill-opacity="0.501961" points="74,120 94,109 41,112" />
<polygon fill="#07071a" fill-opacity="0.501961" points="62,140 65,143 58,144" />
<polygon fill="#bac8cd" fill-opacity="0.501961" points="218,82 250,74 201,73" />
<polygon fill="#979450" fill-opacity="0.501961" points="112,150 134,164 127,168" />
<polygon fill="#0c0f12" fill-opacity="0.501961" points="103,147 112,144 106,151" />
<polygon fill="#fffffc" fill-opacity="0.501961" points="101,59 113,56 131,66" />
<polygon fill="#2f341b" fill-opacity="0.501961" points="178,161 186,158 175,180" />
<polygon fill="#72879b" fill-opacity="0.501961" points="117,120 139,128 156,121" />
<polygon fill="#252b1d" fill-opacity="0.501961" points="209,185 220,165 245,166" />
<polygon fill="#e3dfd7" fill-opacity="0.501961" points="-16,72 19,70 15,90" />
<polygon fill="#323312" fill-opacity="0.501961" points="89,135 77,147 91,144" />
<polygon fill="#aab3ba" fill-opacity="0.501961" points="60,70 107,71 94,61" />
<polygon fill="#bacdd8" fill-opacity="0.501961" points="121,56 146,66 182,56" />
<polygon fill="#d2d3cf" fill-opacity="0.501961" points="101,33 93,46 120,45" />
<polygon fill="#e2e4e5" fill-opacity="0.501961" points="62,9 138,-1 41,-16" />
<polygon fill="#676b3e" fill-opacity="0.501961" points="-15,106 18,112 10,103" />
<polygon fill="#aabed5" fill-opacity="0.501961" points="106,-10 91,8 79,9" />
<polygon fill="#7b7f4d" fill-opacity="0.501961" points="79,147 84,155 93,145" />
<polygon fill="#344759" fill-opacity="0.501961" points="271,126 152,150 220,168" />
<polygon fill="#9fa9b8" fill-opacity="0.501961" points="271,-2 184,6 222,23" />
<polygon fill="#e4e2db" fill-opacity="0.501961" points="246,46 237,59 216,52" />
<polygon fill="#b1c6d5" fill-opacity="0.501961" points="199,63 220,54 173,55" />
<polygon fill="#f4f3ee" fill-opacity="0.501961" points="33,40 40,56 21,39" />
<polygon fill="#575b2d" fill-opacity="0.501961" points="37,110 33,124 51,148" />
<polygon fill="#aeb6bb" fill-opacity="0.501961" points="119,41 138,48 108,57" />
<polygon fill="#4f6a8a" fill-opacity="0.501961" points="83,131 116,127 76,121" />
<polygon fill="#1d1b15" fill-opacity="0.501961" points="124,149 122,140 116,144" />
<polygon fill="#f0f0e9" fill-opacity="0.501961" points="161,68 127,75 161,78" />
<polygon fill="#b4c3d0" fill-opacity="0.501961" points="242,46 240,34 196,38" />
<polygon fill="#d7d9d5" fill-opacity="0.501961" points="244,88 202,57 127,65" />
<polygon fill="#4c4a2d" fill-opacity="0.501961" points="70,160 49,162 62,167" />
<polygon fill="#7a9cc6" fill-opacity="0.501961" points="219,110 150,112 187,121" />
<polygon fill="#a4a28a" fill-opacity="0.501961" points="64,138 65,131 51,145" />
<polygon fill="#fffffa" fill-opacity="0.501961" points="172,5 162,-11 153,14" />
<polygon fill="#818642" fill-opacity="0.501961" points="78,144 89,133 66,145" />
<polygon fill="#4f5227" fill-opacity="0.501961" points="20,108 15,135 22,121" />
<polygon fill="#858542" fill-opacity="0.501961" points="44,181 -1,148 89,183" />
<polygon fill="#bdc9c9" fill-opacity="0.501961" points="129,110 85,101 171,95" />
<polygon fill="#3e391f" fill-opacity="0.501961" points="155,166 128,168 153,185" />
<polygon fill="#767831" fill-opacity="0.501961" points="74,167 55,140 29,154" />
<polygon fill="#e3e5db" fill-opacity="0.501961" points="136,92 111,92 123,71" />
<polygon fill="#75793c" fill-opacity="0.501961" points="33,113 23,112 40,132" />
<polygon fill="#3c4321" fill-opacity="0.501961" points="118,160 107,150 111,158" />
<polygon fill="#3e4222" fill-opacity="0.501961" points="138,151 144,156 131,161" />
<polygon fill="#98c1d9" fill-opacity="0.501961" points="160,107 132,115 103,107" />
<polygon fill="#dedfde" fill-opacity="0.501961" points="114,31 146,26 129,44" />
<polygon fill="#898b3b" fill-opacity="0.501961" points="117,149 99,160 96,155" />
<polygon fill="#c9cdcb" fill-opacity="0.501961" points="37,82 106,104 -16,101" />
<polygon fill="#e0e1db" fill-opacity="0.501961" points="94,88 51,92 44,77" />
<polygon fill="#6a7354" fill-opacity="0.501961" points="106,127 77,133 105,135" />
<polygon fill="#40401a" fill-opacity="0.501961" points="76,133 68,139 82,137" />
<polygon fill="#e6e6e4" fill-opacity="0.501961" points="47,47 30,29 56,29" />
<polygon fill="#c3c7c6" fill-opacity="0.501961" points="72,67 42,67 62,58" />
<polygon fill="#bec4ca" fill-opacity="0.501961" points="137,28 118,16 183,13" />
<polygon fill="#fffffa" fill-opacity="0.501961" points="88,2 54,-1 85,-16" />
<polygon fill="#686b41" fill-opacity="0.501961" points="239,152 249,153 237,156" />
<polygon fill="#e9ebeb" fill-opacity="0.501961" points="77,19 101,24 95,32" />
<polygon fill="#3c3e1e" fill-opacity="0.501961" points="167,155 161,152 169,167" />
<polygon fill="#b1bac3" fill-opacity="0.501961" points="148,10 130,29 85,20" />
<polygon fill="#446283" fill-opacity="0.501961" points="144,126 104,124 116,141" />
<polygon fill="#b4c5d3" fill-opacity="0.501961" points="262,49 223,61 271,62" />
<polygon fill="#686742" fill-opacity="0.501961" points="149,149 141,178 159,154" />
<polygon fill="#aeb5bc" fill-opacity="0.501961" points="183,-16 196,18 219,22" />
<polygon fill="#40566d" fill-opacity="0.501961" points="147,150 185,123 236,125" />
<polygon fill="#6a7042" fill-opacity="0.501961" points="61,124 51,131 52,117" />
<polygon fill="#f4f1e9" fill-opacity="0.501961" points="246,72 252,67 270,74" />
<polygon fill="#b3c3d6" fill-opacity="0.501961" points="78,18 -13,9 31,26" />
<polygon fill="#f4f4ef" fill-opacity="0.501961" points="111,45 115,40 105,29" />
<polygon fill="#fbfaf5" fill-opacity="0.501961" points="189,17 182,8 181,16" />
<polygon fill="#6f7246" fill-opacity="0.501961" points="231,166 219,160 241,164" />
<polygon fill="#6985a5" fill-opacity="0.501961" points="72,126 65,119 91,118" />
<polygon fill="#d7d6d9" fill-opacity="0.501961" points="6,41 -16,18 43,28" />
<polygon fill="#f7f7ee" fill-opacity="0.501961" points="221,70 196,75 208,69" />
<polygon fill="#81a6c9" fill-opacity="0.501961" points="84,116 140,112 113,123" />
<polygon fill="#c6cccc" fill-opacity="0.501961" points="17,85 51,83 23,112" />
<polygon fill="#777948" fill-opacity="0.501961" points="158,166 173,164 176,169" />
<polygon fill="#c1c9c8" fill-opacity="0.501961" points="227,92 271,107 179,106" />
<polygon fill="#6a7044" fill-opacity="0.501961" points="254,184 165,185 196,163" />
<polygon fill="#67788c" fill-opacity="0.501961" points="162,120 190,121 176,125" />
<polygon fill="#8d8d6b" fill-opacity="0.501961" points="236,161 239,163 230,164" />
<polygon fill="#73742a" fill-opacity="0.501961" points="16,148 5,119 46,149" />
<polygon fill="#e3e3df" fill-opacity="0.501961" points="33,57 56,77 9,60" />
<polygon fill="#a9b4c0" fill-opacity="0.501961" points="71,28 90,34 95,71" />
<polygon fill="#e5e5df" fill-opacity="0.501961" points="181,85 218,83 158,70" />
<polygon fill="#c6cccc" fill-opacity="0.501961" points="184,83 180,77 160,79" />
<polygon fill="#c7cfd0" fill-opacity="0.501961" points="44,70 110,82 64,86" />
<polygon fill="#8d736b" fill-opacity="0.501961" points="53,165 113,185 55,185" />
<polygon fill="#8b893d" fill-opacity="0.501961" points="137,171 137,163 119,156" />
<polygon fill="#f9faf5" fill-opacity="0.501961" points="118,63 128,59 138,65" />
<polygon fill="#6f7240" fill-opacity="0.501961" points="99,155 107,141 101,143" />
<polygon fill="#3e3b29" fill-opacity="0.501961" points="48,138 51,143 51,135" />
<polygon fill="#454820" fill-opacity="0.501961" points="79,142 91,134 85,149" />
<polygon fill="#f9f4e8" fill-opacity="0.501961" points="18,82 34,82 24,79" />
<polygon fill="#767948" fill-opacity="0.501961" points="87,137 70,125 80,127" />
<polygon fill="#b5b9be" fill-opacity="0.501961" points="2,55 16,43 36,55" />
<polygon fill="#b9bdc1" fill-opacity="0.501961" points="36,38 41,48 44,41" />
<polygon fill="#f7f7f3" fill-opacity="0.501961" points="106,6 96,9 103,-16" />
<polygon fill="#b4babe" fill-opacity="0.501961" points="23,70 28,78 13,79" />
<polygon fill="#253850" fill-opacity="0.501961" points="257,153 227,185 271,158" />
<polygon fill="#c1c9cb" fill-opacity="0.501961" points="236,82 201,78 211,71" />
<polygon fill="#20230f" fill-opacity="0.501961" points="40,134 44,135 41,130" />
<polygon fill="#adb8c0" fill-opacity="0.501961" points="215,88 212,83 198,88" />
<polygon fill="#d4d8d7" fill-opacity="0.501961" points="35,51 65,52 27,61" />
<polygon fill="#676b3a" fill-opacity="0.501961" points="112,148 141,165 130,150" />
<polygon fill="#eeece1" fill-opacity="0.501961" points="219,86 236,86 221,80" />
<polygon fill="#7a7851" fill-opacity="0.501961" points="35,138 48,131 58,137" />
<polygon fill="#6d743c" fill-opacity="0.501961" points="24,184 -4,148 29,166" />
<polygon fill="#9caab1" fill-opacity="0.501961" points="135,76 129,80 136,79" />
<polygon fill="#d9dbd4" fill-opacity="0.501961" points="10,86 68,86 47,96" />
<polygon fill="#d4d8d7" fill-opacity="0.501961" points="166,47 200,54 237,40" />
<polygon fill="#414627" fill-opacity="0.501961" points="90,154 102,133 98,149" />
<polygon fill="#dfdfda" fill-opacity="0.501961" points="68,81 89,74 59,70" />
<polygon fill="#2b2c16" fill-opacity="0.501961" points="241,166 241,155 253,155" />
<polygon fill="#dddedd" fill-opacity="0.501961" points="140,2 154,-8 160,23" />
<polygon fill="#ecece4" fill-opacity="0.501961" points="93,53 82,65 70,66" />
<polygon fill="#3f4022" fill-opacity="0.501961" points="44,126 45,119 61,132" />
<polygon fill="#7c7e34" fill-opacity="0.501961" points="45,128 20,124 31,130" />
<polygon fill="#8fb0d2" fill-opacity="0.501961" points="58,117 56,120 55,115" />
<polygon fill="#eaece7" fill-opacity="0.501961" points="138,50 132,58 127,52" />
<polygon fill="#697c9a" fill-opacity="0.501961" points="271,113 235,123 268,130" />
<polygon fill="#c4c5cc" fill-opacity="0.501961" points="255,31 271,0 230,35" />
<polygon fill="#c5cac9" fill-opacity="0.501961" points="16,108 50,90 17,91" />
<polygon fill="#0b0d05" fill-opacity="0.501961" points="15,119 9,120 18,121" />
<polygon fill="#c8d1dd" fill-opacity="0.501961" points="58,12 74,2 94,23" />
<polygon fill="#4d6376" fill-opacity="0.501961" points="160,132 122,141 185,143" />
<polygon fill="#dddcd9" fill-opacity="0.501961" points="70,42 73,38 60,26" />
<polygon fill="#bac0c1" fill-opacity="0.501961" points="115,73 112,63 127,69" />
<polygon fill="#606943" fill-opacity="0.501961" points="178,154 176,167 165,159" />
<polygon fill="#b1b8bc" fill-opacity="0.501961" points="121,55 91,44 138,45" />
</g>
</svg>