<svg xmlns="http://www.w3.org/2000/svg" version="1.1" width="1024" height="532">
<rect x="0" y="0" width="1024" height="532" fill="#494e24" />
<g transform="scale(4.000000) translate(0.5 0.5)">
<polygon fill="#c5d573" fill-opacity="0.501961" points="178,-16 110,9 178,43" />
<polygon fill="#080b04" fill-opacity="0.501961" points="68,5 147,83 62,139" />
<polygon fill="#eeec7e" fill-opacity="0.501961" points="-16,94 27,93 28,130" />
<polygon fill="#d0bc76" fill-opacity="0.501961" points="48,81 44,125 62,123" />
<polygon fill="#ffffbd" fill-opacity="0.501961" points="159,102 170,107 181,92" />
<polygon fill="#c4c696" fill-opacity="0.501961" points="213,-16 230,-16 214,45" />
<polygon fill="#050c07" fill-opacity="0.501961" points="30,132 26,-7 50,68" />
<polygon fill="#64742f" fill-opacity="0.501961" points="77,40 194,42 102,-16" />
<polygon fill="#9ca858" fill-opacity="0.501961" points="228,63 246,67 239,0" />
<polygon fill="#000000" fill-opacity="0.501961" points="101,146 124,126 30,127" />
<polygon fill="#95812b" fill-opacity="0.501961" points="245,127 177,110 157,148" />
<polygon fill="#202113" fill-opacity="0.501961" points="150,86 210,5 210,68" />
<polygon fill="#869960" fill-opacity="0.501961" points="25,11 10,48 2,-16" />
<polygon fill="#120616" fill-opacity="0.501961" points="34,108 -2,129 68,110" />
<polygon fill="#2f360d" fill-opacity="0.501961" points="216,57 250,38 217,8" />
<polygon fill="#cdc78b" fill-opacity="0.501961" points="164,-16 186,35 153,14" />
<polygon fill="#9ba056" fill-opacity="0.501961" points="193,16 202,43 203,-16" />
<polygon fill="#312d16" fill-opacity="0.501961" points="148,114 99,122 109,-6" />
<polygon fill="#9e7d57" fill-opacity="0.501961" points="93,128 80,119 97,101" />
<polygon fill="#000000" fill-opacity="0.501961" points="82,111 70,46 60,148" />
<polygon fill="#d9d8c7" fill-opacity="0.501961" points="209,41 215,29 217,59" />
<polygon fill="#849445" fill-opacity="0.501961" points="118,27 156,58 156,2" />
<polygon fill="#fef24d" fill-opacity="0.501961" points="200,90 214,95 224,91" />
<polygon fill="#fef9b7" fill-opacity="0.501961" points="29,118 26,101 15,107" />
<polygon fill="#322a0d" fill-opacity="0.501961" points="271,61 201,79 271,146" />
<polygon fill="#5a6a25" fill-opacity="0.501961" points="41,110 52,63 38,22" />
<polygon fill="#000005" fill-opacity="0.501961" points="81,8 66,-16 68,50" />
<polygon fill="#fffff2" fill-opacity="0.501961" points="35,124 42,124 34,119" />
<polygon fill="#c7e166" fill-opacity="0.501961" points="56,101 45,104 52,82" />
<polygon fill="#343e17" fill-opacity="0.501961" points="175,44 13,44 183,94" />
<polygon fill="#060305" fill-opacity="0.501961" points="212,43 199,71 207,7" />
<polygon fill="#ffffff" fill-opacity="0.501961" points="214,14 221,-16 212,-16" />
<polygon fill="#1c1a12" fill-opacity="0.501961" points="187,58 201,36 185,1" />
<polygon fill="#caa382" fill-opacity="0.501961" points="-10,138 71,148 23,128" />
<polygon fill="#749123" fill-opacity="0.501961" points="28,95 27,76 -9,120" />
<polygon fill="#575531" fill-opacity="0.501961" points="186,99 162,35 184,26" />
<polygon fill="#353d16" fill-opacity="0.501961" points="233,43 237,-6 213,15" />
<polygon fill="#e8b28a" fill-opacity="0.501961" points="58,125 64,111 45,118" />
<polygon fill="#030e08" fill-opacity="0.501961" points="10,61 6,34 -16,58" />
<polygon fill="#c8c1b4" fill-opacity="0.501961" points="237,32 237,5 243,14" />
<polygon fill="#66911c" fill-opacity="0.501961" points="14,57 -16,71 -3,117" />
<polygon fill="#bbcc88" fill-opacity="0.501961" points="183,116 195,115 175,109" />
<polygon fill="#9ea950" fill-opacity="0.501961" points="224,53 265,61 234,67" />
<polygon fill="#edeb91" fill-opacity="0.501961" points="164,12 146,-12 183,-16" />
<polygon fill="#ffffbe" fill-opacity="0.501961" points="174,93 179,94 168,104" />
<polygon fill="#354910" fill-opacity="0.501961" points="65,88 29,15 65,-8" />
<polygon fill="#564b18" fill-opacity="0.501961" points="112,148 191,119 153,99" />
<polygon fill="#3e451b" fill-opacity="0.501961" points="242,1 259,37 237,55" />
<polygon fill="#000000" fill-opacity="0.501961" points="39,113 28,128 34,81" />
<polygon fill="#000001" fill-opacity="0.501961" points="84,129 107,134 134,123" />
<polygon fill="#e7e988" fill-opacity="0.501961" points="8,109 3,115 22,114" />
<polygon fill="#2b3421" fill-opacity="0.501961" points="20,35 15,5 11,46" />
<polygon fill="#9e9d3e" fill-opacity="0.501961" points="182,93 207,87 230,95" />
<polygon fill="#000000" fill-opacity="0.501961" points="45,83 41,96 45,106" />
<polygon fill="#000003" fill-opacity="0.501961" points="212,29 205,7 211,-16" />
<polygon fill="#02080e" fill-opacity="0.501961" points="25,-16 27,36 37,-4" />
<polygon fill="#7a8b35" fill-opacity="0.501961" points="271,14 251,-3 254,50" />
<polygon fill="#a1c13c" fill-opacity="0.501961" points="148,84 153,91 139,91" />
<polygon fill="#75904b" fill-opacity="0.501961" points="27,47 16,25 23,-9" />
<polygon fill="#30231c" fill-opacity="0.501961" points="2,138 -16,112 24,119" />
<polygon fill="#5b4a2b" fill-opacity="0.501961" points="79,111 107,96 100,124" />
<polygon fill="#def163" fill-opacity="0.501961" points="43,99 40,107 41,94" />
<polygon fill="#617924" fill-opacity="0.501961" points="113,-16 83,-1 81,51" />
<polygon fill="#87935b" fill-opacity="0.501961" points="203,87 192,76 176,75" />
<polygon fill="#82755e" fill-opacity="0.501961" points="179,32 183,14 185,49" />
<polygon fill="#0d0011" fill-opacity="0.501961" points="-2,114 -11,108 9,107" />
<polygon fill="#5f612e" fill-opacity="0.501961" points="158,23 171,4 170,15" />
<polygon fill="#6d7e36" fill-opacity="0.501961" points="159,69 101,-16 139,2" />
<polygon fill="#0f120f" fill-opacity="0.501961" points="167,85 155,90 161,50" />
<polygon fill="#211f0f" fill-opacity="0.501961" points="184,53 181,25 177,41" />
<polygon fill="#10130e" fill-opacity="0.501961" points="130,104 96,67 88,99" />
<polygon fill="#9ca842" fill-opacity="0.501961" points="42,63 36,63 42,76" />
<polygon fill="#5e6129" fill-opacity="0.501961" points="64,84 49,106 65,113" />
<polygon fill="#ac8e4e" fill-opacity="0.501961" points="132,126 138,148 120,128" />
<polygon fill="#414a24" fill-opacity="0.501961" points="106,97 89,34 107,8" />
<polygon fill="#2f220b" fill-opacity="0.501961" points="173,103 193,115 201,97" />
<polygon fill="#0a160a" fill-opacity="0.501961" points="31,46 35,87 18,51" />
<polygon fill="#111313" fill-opacity="0.501961" points="198,92 230,73 209,77" />
<polygon fill="#101409" fill-opacity="0.501961" points="63,72 82,91 38,69" />
<polygon fill="#f6ff77" fill-opacity="0.501961" points="27,102 13,101 17,109" />
<polygon fill="#fffb86" fill-opacity="0.501961" points="166,111 169,99 179,93" />
<polygon fill="#6b7d2a" fill-opacity="0.501961" points="224,74 241,67 202,64" />
<polygon fill="#000000" fill-opacity="0.501961" points="45,105 42,118 46,127" />
<polygon fill="#bfc58c" fill-opacity="0.501961" points="161,17 152,30 143,31" />
<polygon fill="#9cae45" fill-opacity="0.501961" points="242,53 237,33 235,50" />
<polygon fill="#c9cd60" fill-opacity="0.501961" points="200,28 194,23 199,20" />
<polygon fill="#554816" fill-opacity="0.501961" points="192,110 264,148 240,84" />
<polygon fill="#51562a" fill-opacity="0.501961" points="195,64 207,31 194,24" />
<polygon fill="#314211" fill-opacity="0.501961" points="129,103 164,103 113,73" />
<polygon fill="#bfc19e" fill-opacity="0.501961" points="212,32 217,41 214,57" />
<polygon fill="#d3d5b6" fill-opacity="0.501961" points="216,25 215,11 212,21" />
<polygon fill="#3c3a29" fill-opacity="0.501961" points="207,23 178,15 177,-13" />
<polygon fill="#40431d" fill-opacity="0.501961" points="217,56 238,16 216,12" />
<polygon fill="#ffffff" fill-opacity="0.501961" points="27,113 28,116 21,113" />
<polygon fill="#16191b" fill-opacity="0.501961" points="112,43 104,25 110,-1" />
<polygon fill="#cbd75d" fill-opacity="0.501961" points="197,2 205,4 192,-16" />
<polygon fill="#62702c" fill-opacity="0.501961" points="146,80 151,69 177,65" />
<polygon fill="#24270f" fill-opacity="0.501961" points="245,104 209,107 271,83" />
<polygon fill="#847254" fill-opacity="0.501961" points="73,127 103,126 92,119" />
<polygon fill="#000003" fill-opacity="0.501961" points="70,63 63,148 82,129" />
<polygon fill="#e6dfda" fill-opacity="0.501961" points="240,12 237,11 239,2" />
<polygon fill="#a4ab81" fill-opacity="0.501961" points="6,27 14,34 9,12" />
<polygon fill="#ffffd8" fill-opacity="0.501961" points="23,47 20,50 19,47" />
<polygon fill="#1d1d14" fill-opacity="0.501961" points="241,4 250,0 249,33" />
<polygon fill="#eceeaa" fill-opacity="0.501961" points="164,18 166,23 175,19" />
<polygon fill="#e1df92" fill-opacity="0.501961" points="126,24 124,22 117,29" />
<polygon fill="#415c13" fill-opacity="0.501961" points="5,95 28,46 27,76" />
<polygon fill="#bdc156" fill-opacity="0.501961" points="21,92 28,93 28,107" />
<polygon fill="#b8bf52" fill-opacity="0.501961" points="165,86 168,91 163,93" />
<polygon fill="#5a781f" fill-opacity="0.501961" points="32,-16 43,34 47,-16" />
<polygon fill="#000000" fill-opacity="0.501961" points="44,109 55,113 42,114" />
<polygon fill="#624f1e" fill-opacity="0.501961" points="137,102 183,125 114,111" />
<polygon fill="#202310" fill-opacity="0.501961" points="175,93 153,82 196,89" />
<polygon fill="#e8e3c4" fill-opacity="0.501961" points="239,-14 237,4 247,-16" />
<polygon fill="#090f0a" fill-opacity="0.501961" points="67,62 76,27 77,97" />
<polygon fill="#666222" fill-opacity="0.501961" points="28,106 26,112 23,107" />
<polygon fill="#5a6037" fill-opacity="0.501961" points="214,36 210,52 209,33" />
<polygon fill="#86873c" fill-opacity="0.501961" points="164,1 179,2 175,-13" />
<polygon fill="#ded7a3" fill-opacity="0.501961" points="169,8 174,9 178,1" />
<polygon fill="#3a471c" fill-opacity="0.501961" points="126,57 135,31 124,28" />
<polygon fill="#3e4d14" fill-opacity="0.501961" points="85,94 80,47 96,27" />
<polygon fill="#2b2e1b" fill-opacity="0.501961" points="228,83 248,58 263,81" />
<polygon fill="#313b09" fill-opacity="0.501961" points="213,65 217,57 233,62" />
<polygon fill="#010509" fill-opacity="0.501961" points="245,124 258,119 240,120" />
<polygon fill="#5d5f2a" fill-opacity="0.501961" points="163,31 128,69 180,37" />
<polygon fill="#000005" fill-opacity="0.501961" points="15,83 12,84 14,95" />
<polygon fill="#dddbc8" fill-opacity="0.501961" points="217,28 213,39 214,15" />
<polygon fill="#475621" fill-opacity="0.501961" points="147,29 148,25 158,25" />
<polygon fill="#a1a742" fill-opacity="0.501961" points="190,116 202,120 202,110" />
<polygon fill="#3c4417" fill-opacity="0.501961" points="215,20 240,16 227,-3" />
<polygon fill="#8f9736" fill-opacity="0.501961" points="227,11 221,-13 204,-15" />
<polygon fill="#bab58b" fill-opacity="0.501961" points="183,25 181,38 185,36" />
<polygon fill="#8b9d2d" fill-opacity="0.501961" points="17,114 11,88 9,109" />
<polygon fill="#566120" fill-opacity="0.501961" points="174,24 159,23 155,30" />
<polygon fill="#857c2d" fill-opacity="0.501961" points="155,148 161,127 221,122" />
<polygon fill="#586339" fill-opacity="0.501961" points="65,91 60,78 48,90" />
<polygon fill="#5f7723" fill-opacity="0.501961" points="129,79 125,90 119,82" />
<polygon fill="#fbff76" fill-opacity="0.501961" points="10,96 4,101 1,98" />
<polygon fill="#cbc3a0" fill-opacity="0.501961" points="157,57 151,60 155,56" />
<polygon fill="#876f52" fill-opacity="0.501961" points="19,125 3,130 6,125" />
<polygon fill="#58651f" fill-opacity="0.501961" points="75,84 95,92 84,82" />
<polygon fill="#333815" fill-opacity="0.501961" points="234,50 218,43 216,21" />
<polygon fill="#b7bc53" fill-opacity="0.501961" points="170,30 154,29 149,35" />
<polygon fill="#3c3122" fill-opacity="0.501961" points="231,122 197,121 250,108" />
<polygon fill="#ab9d3a" fill-opacity="0.501961" points="203,105 206,101 198,102" />
<polygon fill="#030307" fill-opacity="0.501961" points="43,92 48,79 43,68" />
<polygon fill="#1c1b10" fill-opacity="0.501961" points="124,97 109,43 105,116" />
<polygon fill="#5f6d23" fill-opacity="0.501961" points="46,60 46,92 54,64" />
<polygon fill="#5e5325" fill-opacity="0.501961" points="266,116 225,104 196,116" />
<polygon fill="#747c1e" fill-opacity="0.501961" points="240,85 212,106 221,92" />
<polygon fill="#000002" fill-opacity="0.501961" points="92,127 36,127 71,138" />
<polygon fill="#8ba345" fill-opacity="0.501961" points="146,17 117,-14 120,4" />
<polygon fill="#c1c159" fill-opacity="0.501961" points="76,35 84,38 81,39" />
<polygon fill="#130e0a" fill-opacity="0.501961" points="90,105 57,121 84,94" />
<polygon fill="#c2c64b" fill-opacity="0.501961" points="3,117 24,105 17,116" />
<polygon fill="#d6e860" fill-opacity="0.501961" points="47,110 52,91 46,93" />
<polygon fill="#0e1509" fill-opacity="0.501961" points="252,41 246,40 251,54" />
<polygon fill="#13180e" fill-opacity="0.501961" points="41,52 45,63 47,36" />
<polygon fill="#637130" fill-opacity="0.501961" points="112,15 111,3 152,4" />
<polygon fill="#a79462" fill-opacity="0.501961" points="175,92 180,96 194,93" />
<polygon fill="#d5d198" fill-opacity="0.501961" points="34,116 37,116 34,118" />
<polygon fill="#080a0b" fill-opacity="0.501961" points="29,69 28,132 38,100" />
<polygon fill="#f2f2c4" fill-opacity="0.501961" points="253,40 271,38 271,45" />
<polygon fill="#ffff7a" fill-opacity="0.501961" points="234,55 230,58 229,55" />
<polygon fill="#e1dd48" fill-opacity="0.501961" points="222,93 221,89 225,89" />
<polygon fill="#686a42" fill-opacity="0.501961" points="164,19 164,12 180,18" />
<polygon fill="#151807" fill-opacity="0.501961" points="206,71 185,54 206,53" />
<polygon fill="#a4a579" fill-opacity="0.501961" points="195,21 198,10 195,7" />
<polygon fill="#ffffa9" fill-opacity="0.501961" points="149,4 131,-16 141,-16" />
<polygon fill="#c6c19f" fill-opacity="0.501961" points="176,40 177,25 179,35" />
<polygon fill="#5d6534" fill-opacity="0.501961" points="100,30 105,48 106,12" />
<polygon fill="#aa7752" fill-opacity="0.501961" points="22,122 27,128 7,148" />
<polygon fill="#010006" fill-opacity="0.501961" points="140,122 124,122 113,130" />
<polygon fill="#886e3f" fill-opacity="0.501961" points="111,125 103,120 124,120" />
<polygon fill="#2b3e07" fill-opacity="0.501961" points="171,97 136,100 151,92" />
<polygon fill="#eff35b" fill-opacity="0.501961" points="214,93 210,90 201,92" />
<polygon fill="#382f15" fill-opacity="0.501961" points="169,113 219,94 181,96" />
<polygon fill="#6c6019" fill-opacity="0.501961" points="230,119 269,131 204,130" />
<polygon fill="#02020b" fill-opacity="0.501961" points="25,49 32,58 31,31" />
<polygon fill="#ebddd4" fill-opacity="0.501961" points="34,124 39,125 38,121" />
<polygon fill="#140f1c" fill-opacity="0.501961" points="175,111 159,116 175,116" />
<polygon fill="#090f08" fill-opacity="0.501961" points="90,74 104,65 98,101" />
<polygon fill="#b5be55" fill-opacity="0.501961" points="148,18 159,19 165,-1" />
<polygon fill="#74922f" fill-opacity="0.501961" points="-8,70 11,61 27,65" />
<polygon fill="#31340c" fill-opacity="0.501961" points="197,11 201,20 200,4" />
<polygon fill="#444916" fill-opacity="0.501961" points="181,35 147,41 162,32" />
<polygon fill="#33421a" fill-opacity="0.501961" points="16,61 15,77 -5,82" />
<polygon fill="#48551a" fill-opacity="0.501961" points="255,32 234,41 212,38" />
<polygon fill="#d3c6a8" fill-opacity="0.501961" points="92,121 94,123 89,125" />
<polygon fill="#130f07" fill-opacity="0.501961" points="189,3 189,31 184,19" />
<polygon fill="#283423" fill-opacity="0.501961" points="13,60 12,40 26,30" />
<polygon fill="#ffffd9" fill-opacity="0.501961" points="158,10 165,9 171,2" />
<polygon fill="#745c3a" fill-opacity="0.501961" points="84,115 80,107 98,110" />
<polygon fill="#859849" fill-opacity="0.501961" points="99,9 107,11 105,-13" />
<polygon fill="#000000" fill-opacity="0.501961" points="30,128 32,122 36,129" />
<polygon fill="#7b834b" fill-opacity="0.501961" points="212,24 216,17 212,10" />
<polygon fill="#55523c" fill-opacity="0.501961" points="103,99 104,60 109,80" />
<polygon fill="#2e341a" fill-opacity="0.501961" points="181,37 151,82 181,75" />
<polygon fill="#61643b" fill-opacity="0.501961" points="171,67 177,45 178,71" />
<polygon fill="#6e7436" fill-opacity="0.501961" points="136,51 135,40 169,39" />
</g>
</svg>