<svg xmlns="http://www.w3.org/2000/svg" version="1.1" width="1024" height="532">
<rect x="0" y="0" width="1024" height="532" fill="#494e24" />
<g transform="scale(4.000000) translate(0.5 0.5)">
<polygon fill="#d5e380" fill-opacity="0.501961" points="174,-16 180,33 118,28" />
<polygon fill="#080a04" fill-opacity="0.501961" points="146,93 62,134 68,1" />
<polygon fill="#feff88" fill-opacity="0.501961" points="-16,102 27,120 27,91" />
<polygon fill="#ffffae" fill-opacity="0.501961" points="183,91 167,109 161,101" />
<polygon fill="#cdbb74" fill-opacity="0.501961" points="61,123 49,76 44,125" />
<polygon fill="#d3d5a7" fill-opacity="0.501961" points="226,-10 212,-10 214,42" />
<polygon fill="#060f07" fill-opacity="0.501961" points="26,-16 30,130 50,59" />
<polygon fill="#90a24c" fill-opacity="0.501961" points="145,55 103,-16 181,-2" />
<polygon fill="#97a354" fill-opacity="0.501961" points="227,64 239,0 246,69" />
<polygon fill="#000000" fill-opacity="0.501961" points="131,125 28,127 72,144" />
<polygon fill="#98852c" fill-opacity="0.501961" points="181,110 155,148 239,128" />
<polygon fill="#1a1a10" fill-opacity="0.501961" points="149,87 212,12 207,68" />
<polygon fill="#83975e" fill-opacity="0.501961" points="2,-16 10,51 26,10" />
<polygon fill="#000004" fill-opacity="0.501961" points="31,106 29,122 61,111" />
<polygon fill="#566827" fill-opacity="0.501961" points="79,52 156,26 84,-16" />
<polygon fill="#bfbdac" fill-opacity="0.501961" points="216,22 208,45 215,58" />
<polygon fill="#323810" fill-opacity="0.501961" points="217,47 216,2 255,48" />
<polygon fill="#000000" fill-opacity="0.501961" points="60,146 70,45 82,114" />
<polygon fill="#896e4b" fill-opacity="0.501961" points="74,127 94,103 103,126" />
<polygon fill="#fef2a1" fill-opacity="0.501961" points="159,17 185,-16 155,-16" />
<polygon fill="#302f15" fill-opacity="0.501961" points="108,2 99,124 152,108" />
<polygon fill="#9ea456" fill-opacity="0.501961" points="203,-16 193,15 202,38" />
<polygon fill="#ece24a" fill-opacity="0.501961" points="223,90 198,91 214,95" />
<polygon fill="#31290c" fill-opacity="0.501961" points="268,136 263,62 201,79" />
<polygon fill="#455918" fill-opacity="0.501961" points="36,3 41,113 71,-16" />
<polygon fill="#d59b7d" fill-opacity="0.501961" points="27,115 28,137 10,141" />
<polygon fill="#fce4d5" fill-opacity="0.501961" points="42,125 34,117 34,125" />
<polygon fill="#000406" fill-opacity="0.501961" points="69,56 66,-16 82,3" />
<polygon fill="#e7eb7b" fill-opacity="0.501961" points="4,112 27,100 14,118" />
<polygon fill="#ffffff" fill-opacity="0.501961" points="216,11 217,-16 209,-16" />
<polygon fill="#090804" fill-opacity="0.501961" points="212,54 196,72 210,13" />
<polygon fill="#6a8727" fill-opacity="0.501961" points="15,110 11,55 -16,109" />
<polygon fill="#f3b78c" fill-opacity="0.501961" points="63,112 56,124 45,117" />
<polygon fill="#616333" fill-opacity="0.501961" points="152,17 186,96 184,30" />
<polygon fill="#151113" fill-opacity="0.501961" points="185,-5 187,47 196,10" />
<polygon fill="#000000" fill-opacity="0.501961" points="213,6 205,-16 206,28" />
<polygon fill="#dcd4cc" fill-opacity="0.501961" points="241,22 239,8 236,26" />
<polygon fill="#ffff74" fill-opacity="0.501961" points="53,91 47,91 46,109" />
<polygon fill="#2c3615" fill-opacity="0.501961" points="113,80 181,39 182,91" />
<polygon fill="#e4dfab" fill-opacity="0.501961" points="178,19 179,31 163,20" />
<polygon fill="#231417" fill-opacity="0.501961" points="-16,133 42,117 -16,117" />
<polygon fill="#a3ae55" fill-opacity="0.501961" points="238,66 271,60 224,54" />
<polygon fill="#000c07" fill-opacity="0.501961" points="8,38 -16,61 9,60" />
<polygon fill="#ffffab" fill-opacity="0.501961" points="178,93 169,107 166,99" />
<polygon fill="#554d18" fill-opacity="0.501961" points="145,81 111,148 180,122" />
<polygon fill="#2c3713" fill-opacity="0.501961" points="147,69 16,54 58,31" />
<polygon fill="#929844" fill-opacity="0.501961" points="38,71 42,85 42,60" />
<polygon fill="#5e8314" fill-opacity="0.501961" points="31,85 17,59 14,100" />
<polygon fill="#ffffa3" fill-opacity="0.501961" points="3,96 7,99 11,94" />
<polygon fill="#f6e7ff" fill-opacity="0.501961" points="28,111 20,114 28,116" />
<polygon fill="#000004" fill-opacity="0.501961" points="30,66 40,103 28,129" />
<polygon fill="#c8b596" fill-opacity="0.501961" points="183,23 181,41 186,40" />
<polygon fill="#000000" fill-opacity="0.501961" points="4,111 9,107 -4,107" />
<polygon fill="#9fc93e" fill-opacity="0.501961" points="148,92 150,86 138,88" />
<polygon fill="#8b8d26" fill-opacity="0.501961" points="239,86 224,98 214,91" />
<polygon fill="#000005" fill-opacity="0.501961" points="71,130 130,123 92,148" />
<polygon fill="#2f3117" fill-opacity="0.501961" points="244,-16 253,28 239,36" />
<polygon fill="#798b33" fill-opacity="0.501961" points="253,46 271,-1 251,1" />
<polygon fill="#7b8e3f" fill-opacity="0.501961" points="119,-16 157,5 121,34" />
<polygon fill="#69802b" fill-opacity="0.501961" points="84,12 108,-4 81,48" />
<polygon fill="#899464" fill-opacity="0.501961" points="207,88 193,77 180,78" />
<polygon fill="#242c22" fill-opacity="0.501961" points="22,42 14,16 12,55" />
<polygon fill="#221509" fill-opacity="0.501961" points="182,109 207,96 179,98" />
<polygon fill="#b9b49e" fill-opacity="0.501961" points="242,11 237,29 237,-7" />
<polygon fill="#d1db87" fill-opacity="0.501961" points="193,117 185,113 198,114" />
<polygon fill="#202a08" fill-opacity="0.501961" points="227,18 241,17 230,5" />
<polygon fill="#666d32" fill-opacity="0.501961" points="159,73 146,83 157,34" />
<polygon fill="#d2ad6d" fill-opacity="0.501961" points="127,128 132,136 119,128" />
<polygon fill="#eeeeda" fill-opacity="0.501961" points="214,56 215,41 212,47" />
<polygon fill="#03090e" fill-opacity="0.501961" points="24,-16 27,29 41,-16" />
<polygon fill="#afbb52" fill-opacity="0.501961" points="39,110 44,107 40,94" />
<polygon fill="#151c0c" fill-opacity="0.501961" points="73,77 55,70 30,83" />
<polygon fill="#645319" fill-opacity="0.501961" points="198,88 271,147 204,125" />
<polygon fill="#61662d" fill-opacity="0.501961" points="64,83 64,108 46,111" />
<polygon fill="#080b06" fill-opacity="0.501961" points="46,81 41,94 44,109" />
<polygon fill="#614d2b" fill-opacity="0.501961" points="102,116 78,111 106,97" />
<polygon fill="#17170b" fill-opacity="0.501961" points="176,85 191,89 166,95" />
<polygon fill="#000304" fill-opacity="0.501961" points="103,100 96,63 91,100" />
<polygon fill="#c3ae74" fill-opacity="0.501961" points="188,91 174,94 192,95" />
<polygon fill="#000102" fill-opacity="0.501961" points="64,125 93,148 68,85" />
<polygon fill="#3c461a" fill-opacity="0.501961" points="83,21 150,52 82,71" />
<polygon fill="#b09367" fill-opacity="0.501961" points="89,126 81,117 98,120" />
<polygon fill="#a0a87c" fill-opacity="0.501961" points="9,7 14,32 7,23" />
<polygon fill="#2c4111" fill-opacity="0.501961" points="173,97 123,86 135,102" />
<polygon fill="#c6ca75" fill-opacity="0.501961" points="175,6 121,-3 166,-10" />
<polygon fill="#829653" fill-opacity="0.501961" points="54,78 45,85 56,96" />
<polygon fill="#fdff61" fill-opacity="0.501961" points="204,92 213,93 211,89" />
<polygon fill="#1b2311" fill-opacity="0.501961" points="18,69 9,81 13,96" />
<polygon fill="#86943e" fill-opacity="0.501961" points="226,74 238,65 238,30" />
<polygon fill="#00000b" fill-opacity="0.501961" points="42,121 45,110 45,131" />
<polygon fill="#86b62b" fill-opacity="0.501961" points="6,61 12,65 -8,75" />
<polygon fill="#363d18" fill-opacity="0.501961" points="216,10 230,55 236,-2" />
<polygon fill="#7a9551" fill-opacity="0.501961" points="27,43 17,31 22,5" />
<polygon fill="#1c1a12" fill-opacity="0.501961" points="108,28 127,105 106,106" />
<polygon fill="#c5cd89" fill-opacity="0.501961" points="155,28 143,32 164,14" />
<polygon fill="#c3d389" fill-opacity="0.501961" points="184,110 192,117 178,111" />
<polygon fill="#3e3a18" fill-opacity="0.501961" points="240,117 254,43 215,122" />
<polygon fill="#0f110f" fill-opacity="0.501961" points="203,88 204,78 233,73" />
<polygon fill="#12140f" fill-opacity="0.501961" points="155,90 161,48 166,84" />
<polygon fill="#516622" fill-opacity="0.501961" points="45,-16 43,50 31,15" />
</g>
</svg>