<svg xmlns="http://www.w3.org/2000/svg" version="1.1" width="1024" height="532">
<rect x="0" y="0" width="1024" height="532" fill="#494e24" />
<g transform="scale(4.000000) translate(0.5 0.5)">
<polygon fill="#c6d574" fill-opacity="0.501961" points="111,23 178,39 178,-16" />
<polygon fill="#090b05" fill-opacity="0.501961" points="62,148 67,0 144,87" />
<polygon fill="#f5f683" fill-opacity="0.501961" points="-10,100 27,91 28,127" />
<polygon fill="#ffffb6" fill-opacity="0.501961" points="161,101 184,91 168,108" />
<polygon fill="#c8b971" fill-opacity="0.501961" points="62,123 45,125 48,71" />
<polygon fill="#070f07" fill-opacity="0.501961" points="52,72 24,-9 31,129" />
<polygon fill="#ced0a2" fill-opacity="0.501961" points="224,0 212,-2 214,44" />
<polygon fill="#8e9a4e" fill-opacity="0.501961" points="239,2 250,62 226,70" />
<polygon fill="#8fa14b" fill-opacity="0.501961" points="111,-3 146,52 177,0" />
<polygon fill="#1c1c11" fill-opacity="0.501961" points="149,88 213,5 207,68" />
<polygon fill="#96832b" fill-opacity="0.501961" points="155,148 180,110 271,139" />
<polygon fill="#576628" fill-opacity="0.501961" points="82,52 185,39 80,-16" />
<polygon fill="#82955e" fill-opacity="0.501961" points="26,10 10,53 3,-9" />
<polygon fill="#000000" fill-opacity="0.501961" points="118,125 125,148 37,129" />
<polygon fill="#876b46" fill-opacity="0.501961" points="83,103 117,123 80,128" />
<polygon fill="#140a1a" fill-opacity="0.501961" points="72,110 33,108 -3,127" />
<polygon fill="#333912" fill-opacity="0.501961" points="264,51 216,44 217,5" />
<polygon fill="#ffffef" fill-opacity="0.501961" points="213,36 217,45 214,58" />
<polygon fill="#d0c98e" fill-opacity="0.501961" points="165,-16 153,16 182,28" />
<polygon fill="#000000" fill-opacity="0.501961" points="85,105 62,143 70,29" />
<polygon fill="#a3aa58" fill-opacity="0.501961" points="193,16 202,34 203,-16" />
<polygon fill="#2f2f15" fill-opacity="0.501961" points="153,107 108,-2 100,124" />
<polygon fill="#ebde44" fill-opacity="0.501961" points="229,90 211,96 203,91" />
<polygon fill="#e2dd93" fill-opacity="0.501961" points="28,101 5,113 28,118" />
<polygon fill="#28240b" fill-opacity="0.501961" points="271,65 271,115 196,79" />
<polygon fill="#606e28" fill-opacity="0.501961" points="52,67 38,37 41,114" />
<polygon fill="#ffffff" fill-opacity="0.501961" points="221,-16 212,-16 215,13" />
<polygon fill="#fff0e5" fill-opacity="0.501961" points="39,121 33,122 45,126" />
<polygon fill="#000206" fill-opacity="0.501961" points="65,-15 82,4 73,47" />
<polygon fill="#b9b2a2" fill-opacity="0.501961" points="244,18 237,-3 237,30" />
<polygon fill="#d8a17a" fill-opacity="0.501961" points="27,124 29,148 -16,148" />
<polygon fill="#ffc292" fill-opacity="0.501961" points="46,117 50,123 65,112" />
<polygon fill="#262711" fill-opacity="0.501961" points="238,34 245,-16 251,32" />
<polygon fill="#bdcc5d" fill-opacity="0.501961" points="243,56 239,68 225,54" />
<polygon fill="#e7ff68" fill-opacity="0.501961" points="53,94 46,109 47,88" />
<polygon fill="#000003" fill-opacity="0.501961" points="40,103 28,127 30,62" />
<polygon fill="#000006" fill-opacity="0.501961" points="80,141 28,126 124,126" />
<polygon fill="#6e9a1d" fill-opacity="0.501961" points="15,57 1,65 2,103" />
<polygon fill="#27351f" fill-opacity="0.501961" points="12,55 15,10 28,67" />
<polygon fill="#181413" fill-opacity="0.501961" points="188,52 196,15 184,-16" />
<polygon fill="#67801e" fill-opacity="0.501961" points="14,109 28,80 -5,113" />
<polygon fill="#000003" fill-opacity="0.501961" points="213,16 206,41 205,-6" />
<polygon fill="#343e18" fill-opacity="0.501961" points="183,94 182,51 29,45" />
<polygon fill="#08140a" fill-opacity="0.501961" points="7,31 9,62 -13,62" />
<polygon fill="#ffffa3" fill-opacity="0.501961" points="178,93 169,108 165,100" />
<polygon fill="#7e9143" fill-opacity="0.501961" points="119,30 134,-16 172,31" />
<polygon fill="#5f5b3c" fill-opacity="0.501961" points="187,98 171,66 184,12" />
<polygon fill="#6a6e2f" fill-opacity="0.501961" points="169,7 149,92 144,46" />
<polygon fill="#364a0f" fill-opacity="0.501961" points="66,-16 30,18 65,87" />
<polygon fill="#4d3c11" fill-opacity="0.501961" points="243,92 177,97 271,148" />
<polygon fill="#798b35" fill-opacity="0.501961" points="251,-4 269,12 254,50" />
<polygon fill="#a99162" fill-opacity="0.501961" points="88,125 101,121 81,116" />
<polygon fill="#93b33d" fill-opacity="0.501961" points="153,89 148,84 134,93" />
<polygon fill="#ffff82" fill-opacity="0.501961" points="24,103 16,110 14,100" />
<polygon fill="#dff3ae" fill-opacity="0.501961" points="177,115 191,115 183,112" />
<polygon fill="#ebeed6" fill-opacity="0.501961" points="214,37 211,35 215,24" />
<polygon fill="#55411a" fill-opacity="0.501961" points="131,101 203,121 119,134" />
<polygon fill="#050d0e" fill-opacity="0.501961" points="27,39 41,-16 25,-16" />
<polygon fill="#ece893" fill-opacity="0.501961" points="152,-5 162,14 170,3" />
<polygon fill="#b8a884" fill-opacity="0.501961" points="184,21 186,40 181,36" />
<polygon fill="#3e4516" fill-opacity="0.501961" points="216,72 217,-2 237,41" />
<polygon fill="#151b0c" fill-opacity="0.501961" points="161,76 140,83 194,92" />
<polygon fill="#98a17c" fill-opacity="0.501961" points="18,50 27,41 25,36" />
<polygon fill="#c0a761" fill-opacity="0.501961" points="133,126 126,133 121,129" />
<polygon fill="#657e28" fill-opacity="0.501961" points="115,-16 81,47 85,6" />
<polygon fill="#ffffff" fill-opacity="0.501961" points="20,113 28,116 27,112" />
<polygon fill="#000005" fill-opacity="0.501961" points="-16,116 -16,106 8,108" />
<polygon fill="#9aa867" fill-opacity="0.501961" points="177,76 202,84 190,76" />
<polygon fill="#80772f" fill-opacity="0.501961" points="231,109 170,133 198,110" />
<polygon fill="#1c2012" fill-opacity="0.501961" points="45,73 116,107 122,69" />
<polygon fill="#000000" fill-opacity="0.501961" points="47,86 43,97 43,73" />
<polygon fill="#d1d3a6" fill-opacity="0.501961" points="144,32 155,28 158,19" />
<polygon fill="#000002" fill-opacity="0.501961" points="137,123 106,132 117,123" />
<polygon fill="#cccf75" fill-opacity="0.501961" points="199,25 195,11 195,26" />
<polygon fill="#8e9e41" fill-opacity="0.501961" points="234,48 242,55 237,27" />
<polygon fill="#1f2013" fill-opacity="0.501961" points="175,52 181,31 182,70" />
<polygon fill="#2f1e1e" fill-opacity="0.501961" points="-16,121 3,139 25,116" />
<polygon fill="#ffffc0" fill-opacity="0.501961" points="172,23 162,22 169,18" />
<polygon fill="#939340" fill-opacity="0.501961" points="180,92 212,88 197,96" />
<polygon fill="#050203" fill-opacity="0.501961" points="202,72 210,34 198,57" />
<polygon fill="#ddea67" fill-opacity="0.501961" points="39,106 41,103 42,112" />
<polygon fill="#2f420e" fill-opacity="0.501961" points="140,103 171,97 110,83" />
<polygon fill="#54513b" fill-opacity="0.501961" points="104,69 101,109 109,95" />
<polygon fill="#42402a" fill-opacity="0.501961" points="206,21 180,-6 177,18" />
<polygon fill="#99a170" fill-opacity="0.501961" points="6,24 10,5 14,36" />
<polygon fill="#000000" fill-opacity="0.501961" points="43,101 42,126 48,111" />
<polygon fill="#5f632a" fill-opacity="0.501961" points="64,84 48,107 65,113" />
<polygon fill="#5f8613" fill-opacity="0.501961" points="17,91 30,82 16,57" />
<polygon fill="#cdcf64" fill-opacity="0.501961" points="4,102 -1,91 11,95" />
<polygon fill="#676b1a" fill-opacity="0.501961" points="265,80 241,94 217,91" />
<polygon fill="#28200e" fill-opacity="0.501961" points="198,112 198,95 173,102" />
<polygon fill="#e1dccb" fill-opacity="0.501961" points="236,12 239,-3 240,11" />
<polygon fill="#91a248" fill-opacity="0.501961" points="139,44 131,37 166,29" />
<polygon fill="#384117" fill-opacity="0.501961" points="76,58 127,9 79,98" />
<polygon fill="#53592c" fill-opacity="0.501961" points="193,31 205,30 197,72" />
<polygon fill="#000303" fill-opacity="0.501961" points="60,148 69,59 78,109" />
<polygon fill="#98a43f" fill-opacity="0.501961" points="43,66 38,63 42,77" />
<polygon fill="#e7f05f" fill-opacity="0.501961" points="217,5 224,2 220,7" />
<polygon fill="#565926" fill-opacity="0.501961" points="178,56 157,35 176,30" />
<polygon fill="#2e3713" fill-opacity="0.501961" points="173,57 101,99 136,63" />
<polygon fill="#fff1d7" fill-opacity="0.501961" points="37,125 34,120 38,120" />
<polygon fill="#6f802e" fill-opacity="0.501961" points="213,64 231,71 203,74" />
<polygon fill="#597125" fill-opacity="0.501961" points="39,44 51,-16 35,-16" />
<polygon fill="#222b0c" fill-opacity="0.501961" points="238,15 225,26 229,1" />
<polygon fill="#695d1a" fill-opacity="0.501961" points="235,138 193,119 265,125" />
<polygon fill="#7d9847" fill-opacity="0.501961" points="12,-16 25,24 24,1" />
<polygon fill="#81964e" fill-opacity="0.501961" points="47,86 57,79 46,96" />
<polygon fill="#7f8e33" fill-opacity="0.501961" points="160,104 166,84 168,110" />
<polygon fill="#000000" fill-opacity="0.501961" points="33,107 33,130 28,122" />
<polygon fill="#f5f3e3" fill-opacity="0.501961" points="240,26 239,17 237,24" />
<polygon fill="#696842" fill-opacity="0.501961" points="175,19 162,13 170,9" />
<polygon fill="#576e26" fill-opacity="0.501961" points="130,5 143,43 141,4" />
<polygon fill="#395113" fill-opacity="0.501961" points="1,72 5,95 28,75" />
<polygon fill="#060d09" fill-opacity="0.501961" points="237,98 214,108 221,100" />
<polygon fill="#100f0b" fill-opacity="0.501961" points="121,90 70,97 130,105" />
<polygon fill="#19170d" fill-opacity="0.501961" points="194,29 184,9 188,60" />
<polygon fill="#514724" fill-opacity="0.501961" points="90,102 99,140 105,97" />
<polygon fill="#a4aa4a" fill-opacity="0.501961" points="83,36 84,40 74,34" />
<polygon fill="#bfc151" fill-opacity="0.501961" points="6,118 5,110 23,112" />
<polygon fill="#000307" fill-opacity="0.501961" points="259,118 240,120 246,124" />
<polygon fill="#000208" fill-opacity="0.501961" points="34,65 25,51 30,31" />
<polygon fill="#ffffbd" fill-opacity="0.501961" points="149,-15 138,-16 147,3" />
<polygon fill="#9fa571" fill-opacity="0.501961" points="252,64 260,58 250,59" />
<polygon fill="#010206" fill-opacity="0.501961" points="207,-2 213,-4 208,17" />
<polygon fill="#c4bf45" fill-opacity="0.501961" points="198,105 202,101 206,103" />
<polygon fill="#13190c" fill-opacity="0.501961" points="50,46 44,66 45,27" />
<polygon fill="#858f47" fill-opacity="0.501961" points="132,9 119,-16 121,34" />
<polygon fill="#b1bb57" fill-opacity="0.501961" points="205,7 204,-8 195,1" />
<polygon fill="#dbd9cd" fill-opacity="0.501961" points="214,40 214,50 210,41" />
<polygon fill="#586626" fill-opacity="0.501961" points="210,37 215,39 213,30" />
<polygon fill="#140e11" fill-opacity="0.501961" points="202,84 217,90 219,75" />
<polygon fill="#10110f" fill-opacity="0.501961" points="158,86 167,85 160,52" />
<polygon fill="#c6cf85" fill-opacity="0.501961" points="197,114 186,113 187,116" />
<polygon fill="#5d7722" fill-opacity="0.501961" points="131,80 119,82 124,89" />
<polygon fill="#fdf5bf" fill-opacity="0.501961" points="174,94 171,99 179,93" />
<polygon fill="#657346" fill-opacity="0.501961" points="201,77 175,82 200,86" />
<polygon fill="#31350c" fill-opacity="0.501961" points="202,17 197,20 199,2" />
<polygon fill="#d3af87" fill-opacity="0.501961" points="47,119 60,123 62,113" />
<polygon fill="#000000" fill-opacity="0.501961" points="59,119 78,121 82,115" />
<polygon fill="#35351d" fill-opacity="0.501961" points="107,27 131,20 107,15" />
<polygon fill="#fffff9" fill-opacity="0.501961" points="19,47 22,47 20,49" />
<polygon fill="#060000" fill-opacity="0.501961" points="26,122 21,120 26,119" />
<polygon fill="#656f2e" fill-opacity="0.501961" points="175,22 148,26 174,29" />
<polygon fill="#b7b790" fill-opacity="0.501961" points="156,57 152,56 153,61" />
<polygon fill="#060c07" fill-opacity="0.501961" points="102,67 89,71 99,101" />
<polygon fill="#fcfc54" fill-opacity="0.501961" points="214,94 204,92 211,90" />
<polygon fill="#595e2a" fill-opacity="0.501961" points="220,10 227,34 227,-8" />
<polygon fill="#5f7020" fill-opacity="0.501961" points="80,81 91,89 85,91" />
<polygon fill="#eee5de" fill-opacity="0.501961" points="178,30 178,21 176,27" />
<polygon fill="#95a054" fill-opacity="0.501961" points="59,81 59,96 63,85" />
<polygon fill="#57521c" fill-opacity="0.501961" points="181,125 110,110 156,99" />
<polygon fill="#b0c14d" fill-opacity="0.501961" points="43,107 42,96 40,101" />
<polygon fill="#c4d560" fill-opacity="0.501961" points="200,127 207,128 199,124" />
<polygon fill="#5e5f30" fill-opacity="0.501961" points="245,8 246,25 237,15" />
<polygon fill="#7f8047" fill-opacity="0.501961" points="178,44 176,37 155,41" />
<polygon fill="#77924e" fill-opacity="0.501961" points="25,31 22,11 15,35" />
<polygon fill="#292a17" fill-opacity="0.501961" points="248,16 253,-14 239,3" />
<polygon fill="#cec845" fill-opacity="0.501961" points="219,91 225,89 222,94" />
<polygon fill="#404b1b" fill-opacity="0.501961" points="157,53 105,30 143,65" />
<polygon fill="#000000" fill-opacity="0.501961" points="46,106 43,98 45,92" />
<polygon fill="#53553a" fill-opacity="0.501961" points="101,37 105,66 108,43" />
<polygon fill="#111709" fill-opacity="0.501961" points="17,45 30,48 21,42" />
<polygon fill="#100806" fill-opacity="0.501961" points="190,86 183,92 172,92" />
<polygon fill="#ffffff" fill-opacity="0.501961" points="216,24 214,23 215,21" />
<polygon fill="#171c0f" fill-opacity="0.501961" points="14,91 18,73 13,68" />
<polygon fill="#2b3315" fill-opacity="0.501961" points="211,53 228,47 235,33" />
<polygon fill="#7d8353" fill-opacity="0.501961" points="190,23 190,4 193,15" />
<polygon fill="#dddac3" fill-opacity="0.501961" points="216,56 214,59 214,49" />
<polygon fill="#637631" fill-opacity="0.501961" points="153,8 157,2 134,3" />
<polygon fill="#9d7e58" fill-opacity="0.501961" points="46,148 8,148 22,123" />
<polygon fill="#b1b851" fill-opacity="0.501961" points="161,19 147,19 164,2" />
<polygon fill="#1b1a12" fill-opacity="0.501961" points="107,105 107,33 118,71" />
<polygon fill="#849645" fill-opacity="0.501961" points="96,6 106,12 105,-2" />
<polygon fill="#afa073" fill-opacity="0.501961" points="166,126 137,148 149,148" />
<polygon fill="#aab94e" fill-opacity="0.501961" points="230,61 236,50 224,55" />
<polygon fill="#080a04" fill-opacity="0.501961" points="39,85 39,119 32,103" />
<polygon fill="#777f41" fill-opacity="0.501961" points="111,19 118,8 111,6" />
<polygon fill="#323a16" fill-opacity="0.501961" points="248,70 245,31 254,50" />
<polygon fill="#140f11" fill-opacity="0.501961" points="181,19 179,25 181,32" />
<polygon fill="#433c13" fill-opacity="0.501961" points="173,104 205,108 191,114" />
<polygon fill="#15181d" fill-opacity="0.501961" points="105,22 110,37 110,6" />
<polygon fill="#0c110b" fill-opacity="0.501961" points="156,91 151,81 166,77" />
<polygon fill="#2e3712" fill-opacity="0.501961" points="88,35 75,35 78,4" />
<polygon fill="#475416" fill-opacity="0.501961" points="209,57 239,61 207,67" />
<polygon fill="#adaa43" fill-opacity="0.501961" points="12,109 12,120 23,109" />
<polygon fill="#866842" fill-opacity="0.501961" points="79,111 96,107 95,112" />
<polygon fill="#1a1a0e" fill-opacity="0.501961" points="177,9 181,18 181,0" />
<polygon fill="#352c1f" fill-opacity="0.501961" points="185,115 177,120 159,113" />
<polygon fill="#020401" fill-opacity="0.501961" points="58,114 45,109 44,113" />
<polygon fill="#3a4718" fill-opacity="0.501961" points="246,56 236,51 233,54" />
<polygon fill="#5d6d2a" fill-opacity="0.501961" points="171,66 153,67 146,80" />
<polygon fill="#afa482" fill-opacity="0.501961" points="227,10 226,7 224,13" />
<polygon fill="#cfdd65" fill-opacity="0.501961" points="46,96 55,90 46,109" />
<polygon fill="#70981e" fill-opacity="0.501961" points="12,94 7,79 1,82" />
<polygon fill="#dcddae" fill-opacity="0.501961" points="271,42 271,36 252,40" />
<polygon fill="#242f0d" fill-opacity="0.501961" points="61,12 31,12 57,3" />
<polygon fill="#86ab34" fill-opacity="0.501961" points="7,69 -1,70 11,58" />
<polygon fill="#6e861f" fill-opacity="0.501961" points="27,91 17,77 15,93" />
<polygon fill="#364725" fill-opacity="0.501961" points="47,88 49,91 56,90" />
<polygon fill="#526621" fill-opacity="0.501961" points="50,2 47,43 60,18" />
<polygon fill="#fffeff" fill-opacity="0.501961" points="215,37 216,32 214,33" />
<polygon fill="#221a17" fill-opacity="0.501961" points="45,123 29,148 67,129" />
<polygon fill="#d8e097" fill-opacity="0.501961" points="146,25 154,25 156,22" />
<polygon fill="#807d57" fill-opacity="0.501961" points="186,12 182,1 183,20" />
<polygon fill="#edebbf" fill-opacity="0.501961" points="159,9 173,4 166,3" />
<polygon fill="#515f2d" fill-opacity="0.501961" points="-3,12 5,-13 9,45" />
<polygon fill="#ffffff" fill-opacity="0.501961" points="211,-13 215,8 217,-12" />
<polygon fill="#c3c876" fill-opacity="0.501961" points="-5,107 19,99 7,107" />
<polygon fill="#31490d" fill-opacity="0.501961" points="152,93 174,92 131,115" />
<polygon fill="#090c04" fill-opacity="0.501961" points="185,59 194,60 192,41" />
<polygon fill="#9ca74c" fill-opacity="0.501961" points="251,-4 253,12 255,4" />
<polygon fill="#a19980" fill-opacity="0.501961" points="200,41 202,36 203,44" />
<polygon fill="#adaf85" fill-opacity="0.501961" points="196,8 194,19 197,18" />
<polygon fill="#505239" fill-opacity="0.501961" points="209,44 213,52 211,32" />
<polygon fill="#2b2910" fill-opacity="0.501961" points="195,39 200,56 200,29" />
<polygon fill="#000000" fill-opacity="0.501961" points="45,81 44,69 47,72" />
<polygon fill="#39331a" fill-opacity="0.501961" points="217,121 271,107 257,61" />
<polygon fill="#404d17" fill-opacity="0.501961" points="271,34 235,39 271,-10" />
<polygon fill="#323b0d" fill-opacity="0.501961" points="216,12 226,26 224,5" />
<polygon fill="#b19963" fill-opacity="0.501961" points="192,95 178,93 187,91" />
<polygon fill="#57700f" fill-opacity="0.501961" points="24,97 17,95 22,101" />
<polygon fill="#d4d38c" fill-opacity="0.501961" points="121,22 122,26 126,22" />
<polygon fill="#2f3615" fill-opacity="0.501961" points="234,48 216,32 227,56" />
<polygon fill="#94856e" fill-opacity="0.501961" points="90,117 99,125 89,127" />
<polygon fill="#080b0b" fill-opacity="0.501961" points="80,47 67,42 69,0" />
<polygon fill="#ac865e" fill-opacity="0.501961" points="5,127 13,127 6,125" />
<polygon fill="#5f692c" fill-opacity="0.501961" points="42,79 43,90 34,86" />
<polygon fill="#61742e" fill-opacity="0.501961" points="134,16 158,21 131,26" />
<polygon fill="#2e3708" fill-opacity="0.501961" points="170,36 155,38 169,32" />
<polygon fill="#595e22" fill-opacity="0.501961" points="30,106 22,106 28,111" />
<polygon fill="#9fa039" fill-opacity="0.501961" points="176,-16 178,-5 157,9" />
<polygon fill="#857c1f" fill-opacity="0.501961" points="271,118 271,110 241,114" />
<polygon fill="#252315" fill-opacity="0.501961" points="96,114 98,134 93,131" />
<polygon fill="#b9b971" fill-opacity="0.501961" points="242,66 232,64 244,61" />
<polygon fill="#13140b" fill-opacity="0.501961" points="209,11 213,29 204,40" />
<polygon fill="#3f4e1c" fill-opacity="0.501961" points="14,17 15,-7 29,-16" />
<polygon fill="#2f2823" fill-opacity="0.501961" points="89,113 90,120 79,112" />
<polygon fill="#251b0d" fill-opacity="0.501961" points="116,120 133,116 109,113" />
<polygon fill="#000000" fill-opacity="0.501961" points="15,125 8,123 10,117" />
<polygon fill="#70822b" fill-opacity="0.501961" points="56,67 34,66 45,62" />
<polygon fill="#1c280d" fill-opacity="0.501961" points="183,70 177,70 180,84" />
<polygon fill="#bebe67" fill-opacity="0.501961" points="169,31 177,27 160,30" />
<polygon fill="#3c561f" fill-opacity="0.501961" points="1,103 0,63 -16,119" />
<polygon fill="#44281e" fill-opacity="0.501961" points="136,125 138,87 124,101" />
<polygon fill="#a1a24f" fill-opacity="0.501961" points="169,93 163,86 166,93" />
<polygon fill="#6c7218" fill-opacity="0.501961" points="233,92 214,104 220,95" />
<polygon fill="#211c10" fill-opacity="0.501961" points="74,104 74,80 94,108" />
<polygon fill="#8b7f50" fill-opacity="0.501961" points="42,116 40,118 34,117" />
<polygon fill="#1f2f0c" fill-opacity="0.501961" points="17,63 15,48 38,60" />
<polygon fill="#444f1e" fill-opacity="0.501961" points="43,11 31,30 32,13" />
<polygon fill="#5a7031" fill-opacity="0.501961" points="26,55 9,63 10,55" />
<polygon fill="#3b3516" fill-opacity="0.501961" points="219,96 178,94 178,107" />
<polygon fill="#746d5f" fill-opacity="0.501961" points="40,148 46,130 -11,133" />
<polygon fill="#fafd8a" fill-opacity="0.501961" points="152,1 162,2 168,-5" />
<polygon fill="#4c5d23" fill-opacity="0.501961" points="133,70 136,41 151,55" />
<polygon fill="#c79f68" fill-opacity="0.501961" points="59,113 45,118 60,119" />
<polygon fill="#676a38" fill-opacity="0.501961" points="168,19 171,15 160,11" />
<polygon fill="#0d0e0d" fill-opacity="0.501961" points="12,87 13,96 15,84" />
<polygon fill="#4b6a17" fill-opacity="0.501961" points="143,120 169,92 147,104" />
<polygon fill="#5c4e28" fill-opacity="0.501961" points="225,102 241,110 203,122" />
<polygon fill="#252d10" fill-opacity="0.501961" points="56,48 56,18 63,36" />
<polygon fill="#78703d" fill-opacity="0.501961" points="160,119 156,116 172,106" />
<polygon fill="#435213" fill-opacity="0.501961" points="103,5 76,-3 80,8" />
<polygon fill="#29240e" fill-opacity="0.501961" points="184,-5 184,26 189,10" />
<polygon fill="#262b12" fill-opacity="0.501961" points="198,92 172,92 189,87" />
<polygon fill="#b6c670" fill-opacity="0.501961" points="181,115 176,110 185,113" />
<polygon fill="#686c47" fill-opacity="0.501961" points="107,71 104,62 104,80" />
<polygon fill="#2c2e16" fill-opacity="0.501961" points="160,73 175,57 158,43" />
<polygon fill="#282915" fill-opacity="0.501961" points="229,86 236,67 271,72" />
<polygon fill="#a1b739" fill-opacity="0.501961" points="151,92 142,86 150,87" />
<polygon fill="#5a7622" fill-opacity="0.501961" points="151,78 138,89 142,92" />
<polygon fill="#101314" fill-opacity="0.501961" points="56,95 60,89 56,82" />
<polygon fill="#4d430f" fill-opacity="0.501961" points="144,118 108,148 180,148" />
<polygon fill="#8ea246" fill-opacity="0.501961" points="49,100 52,103 59,96" />
<polygon fill="#b8cf7c" fill-opacity="0.501961" points="137,1 117,-16 168,-7" />
<polygon fill="#e3e5b9" fill-opacity="0.501961" points="3,114 10,110 11,113" />
<polygon fill="#c4bc8c" fill-opacity="0.501961" points="178,-1 168,9 176,9" />
<polygon fill="#ffffce" fill-opacity="0.501961" points="7,97 10,96 7,95" />
<polygon fill="#565f25" fill-opacity="0.501961" points="116,0 120,11 134,17" />
<polygon fill="#fffbfb" fill-opacity="0.501961" points="169,105 170,103 166,101" />
<polygon fill="#6e651d" fill-opacity="0.501961" points="253,126 229,119 216,131" />
<polygon fill="#140d07" fill-opacity="0.501961" points="199,70 208,50 205,71" />
<polygon fill="#425d2b" fill-opacity="0.501961" points="26,35 16,41 25,21" />
<polygon fill="#a19972" fill-opacity="0.501961" points="184,42 186,30 182,23" />
<polygon fill="#a2bb4c" fill-opacity="0.501961" points="155,18 129,8 141,17" />
<polygon fill="#4d5a1c" fill-opacity="0.501961" points="47,34 46,88 58,60" />
<polygon fill="#a7ae68" fill-opacity="0.501961" points="155,51 158,50 156,46" />
<polygon fill="#1d1923" fill-opacity="0.501961" points="159,116 173,116 175,110" />
<polygon fill="#3a3f27" fill-opacity="0.501961" points="11,51 14,12 19,33" />
<polygon fill="#242314" fill-opacity="0.501961" points="194,37 184,33 186,19" />
<polygon fill="#fafdb5" fill-opacity="0.501961" points="27,101 17,108 21,103" />
<polygon fill="#edf49f" fill-opacity="0.501961" points="134,39 134,36 135,38" />
<polygon fill="#000000" fill-opacity="0.501961" points="30,129 39,127 28,125" />
<polygon fill="#7f8e39" fill-opacity="0.501961" points="16,-15 -12,-13 13,9" />
<polygon fill="#f1fc6c" fill-opacity="0.501961" points="26,94 21,92 24,96" />
<polygon fill="#14141b" fill-opacity="0.501961" points="112,-16 103,-11 110,11" />
<polygon fill="#bad560" fill-opacity="0.501961" points="203,11 201,15 201,7" />
<polygon fill="#cbba7c" fill-opacity="0.501961" points="183,47 184,46 183,44" />
<polygon fill="#495c1b" fill-opacity="0.501961" points="162,20 157,20 166,29" />
<polygon fill="#202015" fill-opacity="0.501961" points="240,25 248,17 251,31" />
</g>
</svg>