<svg xmlns="http://www.w3.org/2000/svg" version="1.1" width="1024" height="532">
<rect x="0" y="0" width="1024" height="532" fill="#494e24" />
<g transform="scale(4.000000) translate(0.5 0.5)">
<polygon fill="#ccdb7b" fill-opacity="0.501961" points="187,34 164,-16 117,28" />
<polygon fill="#080b04" fill-opacity="0.501961" points="68,-1 144,86 63,139" />
<polygon fill="#f1f281" fill-opacity="0.501961" points="28,91 27,125 -16,100" />
<polygon fill="#ffffbd" fill-opacity="0.501961" points="170,107 181,92 159,102" />
<polygon fill="#e6e6bb" fill-opacity="0.501961" points="212,-16 214,35 224,-9" />
<polygon fill="#ceba75" fill-opacity="0.501961" points="44,124 49,81 63,122" />
<polygon fill="#000505" fill-opacity="0.501961" points="48,80 29,130 28,11" />
<polygon fill="#90a14c" fill-opacity="0.501961" points="180,1 104,-16 145,56" />
<polygon fill="#99a656" fill-opacity="0.501961" points="245,68 239,-1 227,65" />
<polygon fill="#000000" fill-opacity="0.501961" points="35,128 127,125 95,143" />
<polygon fill="#95822b" fill-opacity="0.501961" points="155,148 243,127 180,110" />
<polygon fill="#1f2012" fill-opacity="0.501961" points="213,-2 144,98 208,64" />
<polygon fill="#e7e3d4" fill-opacity="0.501961" points="211,54 218,56 216,29" />
<polygon fill="#84975f" fill-opacity="0.501961" points="25,11 3,-16 10,51" />
<polygon fill="#516224" fill-opacity="0.501961" points="81,-4 81,71 154,21" />
<polygon fill="#0b0113" fill-opacity="0.501961" points="2,127 35,108 62,111" />
<polygon fill="#876b48" fill-opacity="0.501961" points="80,128 117,123 85,106" />
<polygon fill="#999e55" fill-opacity="0.501961" points="201,33 190,18 205,-16" />
<polygon fill="#000000" fill-opacity="0.501961" points="61,126 72,52 81,122" />
<polygon fill="#ccc38c" fill-opacity="0.501961" points="152,1 179,34 177,-16" />
<polygon fill="#31380f" fill-opacity="0.501961" points="249,40 216,58 216,7" />
<polygon fill="#f5f5a2" fill-opacity="0.501961" points="11,102 27,102 29,119" />
<polygon fill="#f0e64a" fill-opacity="0.501961" points="214,95 199,91 227,90" />
<polygon fill="#323315" fill-opacity="0.501961" points="107,9 100,128 162,102" />
<polygon fill="#30280c" fill-opacity="0.501961" points="269,135 271,63 200,79" />
<polygon fill="#859337" fill-opacity="0.501961" points="43,59 36,67 42,92" />
<polygon fill="#312a27" fill-opacity="0.501961" points="179,-16 179,45 199,15" />
<polygon fill="#000007" fill-opacity="0.501961" points="36,8 25,-16 27,35" />
<polygon fill="#fae0d7" fill-opacity="0.501961" points="34,119 33,126 41,123" />
<polygon fill="#ffff7f" fill-opacity="0.501961" points="46,104 54,94 46,91" />
<polygon fill="#d7a179" fill-opacity="0.501961" points="-14,148 32,138 25,124" />
<polygon fill="#c2bbaf" fill-opacity="0.501961" points="242,23 239,0 235,25" />
<polygon fill="#000406" fill-opacity="0.501961" points="82,4 66,-16 69,53" />
<polygon fill="#a7c642" fill-opacity="0.501961" points="154,90 147,83 139,91" />
<polygon fill="#000000" fill-opacity="0.501961" points="-1,107 -8,117 9,108" />
<polygon fill="#5b5d30" fill-opacity="0.501961" points="185,32 187,105 157,22" />
<polygon fill="#283515" fill-opacity="0.501961" points="31,26 134,62 -16,62" />
<polygon fill="#e6b28f" fill-opacity="0.501961" points="46,120 62,111 59,125" />
<polygon fill="#6a951f" fill-opacity="0.501961" points="16,55 0,106 -16,78" />
<polygon fill="#687f29" fill-opacity="0.501961" points="82,-15 116,-16 82,44" />
<polygon fill="#a2ac54" fill-opacity="0.501961" points="233,67 264,61 229,54" />
<polygon fill="#628715" fill-opacity="0.501961" points="23,62 7,111 29,83" />
<polygon fill="#ffffff" fill-opacity="0.501961" points="217,8 204,-16 213,-14" />
<polygon fill="#687c3e" fill-opacity="0.501961" points="-5,-16 22,-11 27,50" />
<polygon fill="#c0d289" fill-opacity="0.501961" points="182,116 175,110 196,115" />
<polygon fill="#080703" fill-opacity="0.501961" points="195,71 207,71 209,28" />
<polygon fill="#7a8d3e" fill-opacity="0.501961" points="120,-7 121,34 159,3" />
<polygon fill="#543f1a" fill-opacity="0.501961" points="129,103 205,121 125,131" />
<polygon fill="#202811" fill-opacity="0.501961" points="151,84 163,49 182,92" />
<polygon fill="#000002" fill-opacity="0.501961" points="33,126 102,148 118,128" />
<polygon fill="#000004" fill-opacity="0.501961" points="201,29 211,-8 211,28" />
<polygon fill="#fffe98" fill-opacity="0.501961" points="165,100 169,108 179,93" />
<polygon fill="#faf8a3" fill-opacity="0.501961" points="163,12 156,-2 170,3" />
<polygon fill="#3c4118" fill-opacity="0.501961" points="217,7 217,38 241,15" />
<polygon fill="#c9d85b" fill-opacity="0.501961" points="41,114 40,100 43,107" />
<polygon fill="#dfcfa0" fill-opacity="0.501961" points="182,27 182,42 185,38" />
<polygon fill="#2a2e16" fill-opacity="0.501961" points="238,32 252,52 249,-5" />
<polygon fill="#af9365" fill-opacity="0.501961" points="79,116 89,125 99,121" />
<polygon fill="#181c0d" fill-opacity="0.501961" points="49,75 130,107 88,63" />
<polygon fill="#000003" fill-opacity="0.501961" points="29,65 40,99 31,130" />
<polygon fill="#2e220a" fill-opacity="0.501961" points="193,114 171,103 200,95" />
<polygon fill="#96a164" fill-opacity="0.501961" points="203,85 180,77 189,75" />
<polygon fill="#17060d" fill-opacity="0.501961" points="-16,138 22,117 -10,122" />
<polygon fill="#1d1c0e" fill-opacity="0.501961" points="185,18 185,72 200,29" />
<polygon fill="#a3b54d" fill-opacity="0.501961" points="251,12 264,-1 253,-16" />
<polygon fill="#747933" fill-opacity="0.501961" points="150,35 154,61 169,8" />
<polygon fill="#8a8a25" fill-opacity="0.501961" points="225,98 237,86 213,92" />
<polygon fill="#414932" fill-opacity="0.501961" points="15,3 9,63 24,46" />
<polygon fill="#818745" fill-opacity="0.501961" points="203,41 195,13 205,-16" />
<polygon fill="#0d0607" fill-opacity="0.501961" points="45,104 38,117 46,126" />
<polygon fill="#8e8939" fill-opacity="0.501961" points="212,95 178,94 198,89" />
<polygon fill="#dadcc3" fill-opacity="0.501961" points="210,42 216,50 215,28" />
<polygon fill="#ffffd0" fill-opacity="0.501961" points="164,23 168,18 172,23" />
<polygon fill="#a88d4d" fill-opacity="0.501961" points="131,126 138,148 120,128" />
<polygon fill="#394021" fill-opacity="0.501961" points="212,60 212,29 206,50" />
<polygon fill="#09100d" fill-opacity="0.501961" points="8,39 7,61 -16,33" />
<polygon fill="#574c28" fill-opacity="0.501961" points="99,130 89,108 106,94" />
<polygon fill="#5c5f2a" fill-opacity="0.501961" points="49,108 64,82 65,114" />
<polygon fill="#f4ec9d" fill-opacity="0.501961" points="26,113 13,117 7,111" />
<polygon fill="#adb595" fill-opacity="0.501961" points="7,29 9,10 12,27" />
<polygon fill="#839858" fill-opacity="0.501961" points="56,92 46,90 55,78" />
<polygon fill="#8f9e41" fill-opacity="0.501961" points="242,53 234,49 238,29" />
<polygon fill="#efecbc" fill-opacity="0.501961" points="24,46 19,48 21,49" />
<polygon fill="#574417" fill-opacity="0.501961" points="253,148 253,103 192,105" />
<polygon fill="#33391b" fill-opacity="0.501961" points="181,93 148,66 181,38" />
<polygon fill="#b3bc48" fill-opacity="0.501961" points="77,36 86,40 80,34" />
<polygon fill="#000002" fill-opacity="0.501961" points="31,124 42,129 27,130" />
<polygon fill="#000002" fill-opacity="0.501961" points="117,123 100,135 133,123" />
<polygon fill="#0b0d0d" fill-opacity="0.501961" points="24,51 40,82 30,31" />
<polygon fill="#0a0907" fill-opacity="0.501961" points="113,89 58,121 77,98" />
<polygon fill="#384a13" fill-opacity="0.501961" points="30,73 68,30 52,-16" />
<polygon fill="#f9f7eb" fill-opacity="0.501961" points="215,12 218,-11 213,1" />
<polygon fill="#2c2d1f" fill-opacity="0.501961" points="109,3 123,80 100,104" />
<polygon fill="#a3a93f" fill-opacity="0.501961" points="224,2 216,-12 217,10" />
<polygon fill="#3e4915" fill-opacity="0.501961" points="76,85 90,37 90,92" />
<polygon fill="#5c741c" fill-opacity="0.501961" points="166,86 138,117 166,108" />
<polygon fill="#3d4d16" fill-opacity="0.501961" points="143,45 120,88 160,72" />
<polygon fill="#677235" fill-opacity="0.501961" points="195,50 198,37 194,25" />
<polygon fill="#5c6c24" fill-opacity="0.501961" points="205,75 252,68 210,62" />
<polygon fill="#fffd94" fill-opacity="0.501961" points="3,101 10,96 10,92" />
<polygon fill="#111412" fill-opacity="0.501961" points="198,92 206,79 227,75" />
<polygon fill="#ffff9b" fill-opacity="0.501961" points="197,21 195,26 195,22" />
<polygon fill="#030708" fill-opacity="0.501961" points="246,124 241,118 260,119" />
<polygon fill="#686a3c" fill-opacity="0.501961" points="166,18 167,8 177,18" />
<polygon fill="#8b8b5f" fill-opacity="0.501961" points="185,10 183,19 182,1" />
<polygon fill="#6a7d2d" fill-opacity="0.501961" points="158,65 138,82 158,76" />
<polygon fill="#b9ad90" fill-opacity="0.501961" points="186,31 183,21 182,26" />
<polygon fill="#27280a" fill-opacity="0.501961" points="200,3 199,19 197,11" />
<polygon fill="#525825" fill-opacity="0.501961" points="250,66 245,9 238,40" />
<polygon fill="#b9c957" fill-opacity="0.501961" points="233,52 233,61 224,55" />
<polygon fill="#b9bc47" fill-opacity="0.501961" points="223,92 203,88 201,94" />
<polygon fill="#a7ae55" fill-opacity="0.501961" points="143,27 156,23 168,-3" />
<polygon fill="#090b07" fill-opacity="0.501961" points="208,10 220,-16 200,-16" />
<polygon fill="#000002" fill-opacity="0.501961" points="80,114 64,134 68,66" />
<polygon fill="#737353" fill-opacity="0.501961" points="107,79 104,68 103,91" />
<polygon fill="#000000" fill-opacity="0.501961" points="43,100 45,92 46,104" />
<polygon fill="#fdf0c5" fill-opacity="0.501961" points="226,10 224,12 226,8" />
<polygon fill="#f2e2ff" fill-opacity="0.501961" points="25,117 28,117 27,110" />
<polygon fill="#f0f8b9" fill-opacity="0.501961" points="271,31 268,41 252,41" />
<polygon fill="#0c170a" fill-opacity="0.501961" points="14,94 15,71 11,82" />
<polygon fill="#969344" fill-opacity="0.501961" points="16,112 28,101 28,110" />
<polygon fill="#eafc68" fill-opacity="0.501961" points="24,102 13,100 16,110" />
<polygon fill="#5b7725" fill-opacity="0.501961" points="38,45 46,19 38,-7" />
<polygon fill="#b0c247" fill-opacity="0.501961" points="41,103 41,95 39,98" />
<polygon fill="#7b732c" fill-opacity="0.501961" points="228,109 184,128 199,109" />
<polygon fill="#bbc655" fill-opacity="0.501961" points="158,29 170,30 152,34" />
<polygon fill="#1b1d07" fill-opacity="0.501961" points="248,95 227,96 214,107" />
<polygon fill="#27330d" fill-opacity="0.501961" points="236,25 236,3 227,1" />
<polygon fill="#cecab8" fill-opacity="0.501961" points="240,19 238,33 236,18" />
<polygon fill="#838647" fill-opacity="0.501961" points="181,35 154,41 175,43" />
<polygon fill="#161708" fill-opacity="0.501961" points="179,86 165,94 192,89" />
<polygon fill="#272917" fill-opacity="0.501961" points="271,64 236,68 226,92" />
<polygon fill="#d6e470" fill-opacity="0.501961" points="5,111 10,113 6,118" />
<polygon fill="#bbc757" fill-opacity="0.501961" points="175,-16 203,6 204,-12" />
<polygon fill="#8c9e56" fill-opacity="0.501961" points="24,5 17,17 21,28" />
<polygon fill="#ffffe5" fill-opacity="0.501961" points="139,-16 139,-5 148,2" />
<polygon fill="#303812" fill-opacity="0.501961" points="171,97 114,104 138,89" />
<polygon fill="#d8dcc2" fill-opacity="0.501961" points="146,28 153,29 145,32" />
<polygon fill="#17120d" fill-opacity="0.501961" points="104,113 110,83 130,102" />
<polygon fill="#efeed4" fill-opacity="0.501961" points="214,54 218,57 212,56" />
<polygon fill="#859946" fill-opacity="0.501961" points="106,11 105,-16 98,8" />
<polygon fill="#dfdac9" fill-opacity="0.501961" points="179,23 176,18 178,31" />
<polygon fill="#283112" fill-opacity="0.501961" points="236,25 230,54 219,42" />
<polygon fill="#2d340b" fill-opacity="0.501961" points="221,66 230,62 216,54" />
<polygon fill="#2a2912" fill-opacity="0.501961" points="184,28 196,-1 184,6" />
<polygon fill="#babe95" fill-opacity="0.501961" points="25,37 24,43 27,45" />
<polygon fill="#4d5f1c" fill-opacity="0.501961" points="59,52 47,87 49,12" />
<polygon fill="#ad9f3a" fill-opacity="0.501961" points="201,104 209,105 202,100" />
<polygon fill="#000000" fill-opacity="0.501961" points="51,114 43,113 52,111" />
<polygon fill="#577028" fill-opacity="0.501961" points="142,2 132,13 141,36" />
<polygon fill="#000002" fill-opacity="0.501961" points="67,60 75,52 73,86" />
<polygon fill="#372725" fill-opacity="0.501961" points="18,115 -2,135 18,128" />
<polygon fill="#8b6c3e" fill-opacity="0.501961" points="91,107 101,113 80,111" />
<polygon fill="#797023" fill-opacity="0.501961" points="241,121 225,148 147,127" />
<polygon fill="#f1e9cc" fill-opacity="0.501961" points="170,103 168,99 161,99" />
<polygon fill="#0e160a" fill-opacity="0.501961" points="163,76 139,84 164,86" />
<polygon fill="#585a13" fill-opacity="0.501961" points="266,84 210,104 235,85" />
<polygon fill="#ddd5c5" fill-opacity="0.501961" points="37,125 42,124 34,121" />
<polygon fill="#566b2d" fill-opacity="0.501961" points="131,38 155,25 129,31" />
<polygon fill="#000504" fill-opacity="0.501961" points="91,98 96,69 102,100" />
<polygon fill="#2a201f" fill-opacity="0.501961" points="210,117 240,115 224,122" />
<polygon fill="#ede99f" fill-opacity="0.501961" points="121,26 125,24 121,23" />
<polygon fill="#496319" fill-opacity="0.501961" points="12,67 12,94 -16,82" />
<polygon fill="#789217" fill-opacity="0.501961" points="14,113 7,101 14,103" />
<polygon fill="#a1a861" fill-opacity="0.501961" points="60,82 59,89 64,89" />
<polygon fill="#75962d" fill-opacity="0.501961" points="25,65 5,62 -9,71" />
<polygon fill="#bcc443" fill-opacity="0.501961" points="2,88 6,102 1,100" />
<polygon fill="#676b3e" fill-opacity="0.501961" points="179,57 162,70 177,65" />
<polygon fill="#060803" fill-opacity="0.501961" points="39,115 39,88 28,118" />
<polygon fill="#354514" fill-opacity="0.501961" points="70,1 31,9 32,29" />
<polygon fill="#79826d" fill-opacity="0.501961" points="10,57 13,52 9,43" />
<polygon fill="#6c784d" fill-opacity="0.501961" points="206,87 196,79 176,82" />
<polygon fill="#181d0e" fill-opacity="0.501961" points="20,42 15,47 29,46" />
<polygon fill="#fcf89d" fill-opacity="0.501961" points="174,101 168,105 176,91" />
<polygon fill="#1e130c" fill-opacity="0.501961" points="26,122 38,118 13,118" />
<polygon fill="#837c1f" fill-opacity="0.501961" points="256,112 271,119 241,115" />
<polygon fill="#19120c" fill-opacity="0.501961" points="178,46 183,49 181,29" />
<polygon fill="#d5d276" fill-opacity="0.501961" points="158,20 158,2 164,14" />
<polygon fill="#bcd764" fill-opacity="0.501961" points="249,54 246,52 242,53" />
<polygon fill="#c5c2ab" fill-opacity="0.501961" points="240,14 239,-1 236,4" />
<polygon fill="#515d24" fill-opacity="0.501961" points="105,66 82,-12 106,19" />
<polygon fill="#7b674c" fill-opacity="0.501961" points="-2,117 11,128 -5,122" />
<polygon fill="#bfb95c" fill-opacity="0.501961" points="170,92 165,92 164,87" />
<polygon fill="#b87a4c" fill-opacity="0.501961" points="24,126 23,123 12,127" />
<polygon fill="#ffffff" fill-opacity="0.501961" points="216,36 215,27 214,31" />
<polygon fill="#1f1d0a" fill-opacity="0.501961" points="239,5 243,-9 244,10" />
<polygon fill="#6e451e" fill-opacity="0.501961" points="112,110 130,115 138,102" />
<polygon fill="#848b63" fill-opacity="0.501961" points="7,23 14,29 11,47" />
<polygon fill="#655e34" fill-opacity="0.501961" points="34,117 44,112 41,118" />
<polygon fill="#b2b58b" fill-opacity="0.501961" points="152,58 157,61 156,56" />
<polygon fill="#6d9028" fill-opacity="0.501961" points="125,89 127,85 121,82" />
<polygon fill="#c1c0a1" fill-opacity="0.501961" points="198,13 196,5 195,12" />
<polygon fill="#cbe759" fill-opacity="0.501961" points="47,89 46,105 54,98" />
<polygon fill="#49501d" fill-opacity="0.501961" points="248,33 239,56 240,13" />
<polygon fill="#2f3720" fill-opacity="0.501961" points="12,59 24,34 11,34" />
<polygon fill="#5d6c24" fill-opacity="0.501961" points="95,91 79,81 84,89" />
<polygon fill="#c6c363" fill-opacity="0.501961" points="41,71 40,78 43,71" />
<polygon fill="#4f441b" fill-opacity="0.501961" points="110,148 153,107 185,116" />
<polygon fill="#141519" fill-opacity="0.501961" points="115,-16 109,18 107,1" />
<polygon fill="#40451e" fill-opacity="0.501961" points="237,-8 214,39 236,27" />
<polygon fill="#0a0d10" fill-opacity="0.501961" points="56,96 56,80 59,91" />
<polygon fill="#636831" fill-opacity="0.501961" points="131,16 111,11 111,-16" />
<polygon fill="#141610" fill-opacity="0.501961" points="46,30 43,55 50,54" />
<polygon fill="#2a3113" fill-opacity="0.501961" points="137,84 161,57 120,76" />
<polygon fill="#5d6e28" fill-opacity="0.501961" points="156,31 157,23 175,24" />
<polygon fill="#252615" fill-opacity="0.501961" points="181,1 176,10 182,26" />
<polygon fill="#060709" fill-opacity="0.501961" points="69,10 78,42 69,49" />
<polygon fill="#ffffff" fill-opacity="0.501961" points="213,24 217,25 214,23" />
<polygon fill="#474520" fill-opacity="0.501961" points="130,20 111,15 115,25" />
<polygon fill="#796743" fill-opacity="0.501961" points="114,125 106,120 132,120" />
<polygon fill="#323c16" fill-opacity="0.501961" points="38,92 27,81 52,90" />
<polygon fill="#787f4f" fill-opacity="0.501961" points="193,12 190,23 190,3" />
<polygon fill="#1d2310" fill-opacity="0.501961" points="192,25 192,4 196,15" />
<polygon fill="#313b0f" fill-opacity="0.501961" points="55,17 56,87 70,48" />
<polygon fill="#564814" fill-opacity="0.501961" points="220,90 206,121 205,100" />
<polygon fill="#374215" fill-opacity="0.501961" points="103,43 78,33 76,12" />
<polygon fill="#ffff74" fill-opacity="0.501961" points="23,95 27,94 22,92" />
<polygon fill="#b8c65c" fill-opacity="0.501961" points="202,128 206,126 198,124" />
<polygon fill="#ead590" fill-opacity="0.501961" points="187,92 181,94 188,94" />
<polygon fill="#494d1f" fill-opacity="0.501961" points="217,1 233,40 218,32" />
<polygon fill="#2a3a12" fill-opacity="0.501961" points="14,63 12,75 23,81" />
<polygon fill="#746d39" fill-opacity="0.501961" points="174,104 165,117 155,118" />
<polygon fill="#9b927d" fill-opacity="0.501961" points="202,45 201,36 203,41" />
<polygon fill="#14150f" fill-opacity="0.501961" points="162,45 158,62 165,78" />
<polygon fill="#8a9259" fill-opacity="0.501961" points="2,20 13,9 11,3" />
<polygon fill="#c6cd7c" fill-opacity="0.501961" points="121,15 128,15 129,18" />
<polygon fill="#000000" fill-opacity="0.501961" points="98,115 96,114 94,121" />
<polygon fill="#1a141b" fill-opacity="0.501961" points="159,115 173,113 173,117" />
<polygon fill="#343c1c" fill-opacity="0.501961" points="16,9 11,23 15,32" />
<polygon fill="#dee8a4" fill-opacity="0.501961" points="53,91 47,91 49,95" />
<polygon fill="#727346" fill-opacity="0.501961" points="160,10 165,17 181,19" />
<polygon fill="#a5b76c" fill-opacity="0.501961" points="135,36 138,40 129,38" />
<polygon fill="#808e41" fill-opacity="0.501961" points="55,85 46,76 46,92" />
<polygon fill="#404919" fill-opacity="0.501961" points="208,56 226,69 234,62" />
<polygon fill="#1a1a0e" fill-opacity="0.501961" points="117,76 109,43 106,83" />
<polygon fill="#a6bf4f" fill-opacity="0.501961" points="40,68 42,62 43,68" />
<polygon fill="#3d5610" fill-opacity="0.501961" points="137,88 167,111 142,110" />
<polygon fill="#6d7b36" fill-opacity="0.501961" points="212,66 225,74 239,66" />
<polygon fill="#4b5824" fill-opacity="0.501961" points="153,22 157,20 146,19" />
<polygon fill="#f8c689" fill-opacity="0.501961" points="53,122 45,118 53,116" />
<polygon fill="#000000" fill-opacity="0.501961" points="129,122 128,126 140,122" />
<polygon fill="#d0d95b" fill-opacity="0.501961" points="218,3 219,7 223,2" />
<polygon fill="#6e7524" fill-opacity="0.501961" points="15,94 15,79 25,102" />
<polygon fill="#57541d" fill-opacity="0.501961" points="183,109 190,114 200,104" />
<polygon fill="#080a06" fill-opacity="0.501961" points="186,59 187,31 194,58" />
<polygon fill="#0e0d0a" fill-opacity="0.501961" points="206,7 203,44 211,31" />
<polygon fill="#ffffff" fill-opacity="0.501961" points="21,113 26,113 20,115" />
<polygon fill="#0d0e0a" fill-opacity="0.501961" points="28,66 38,69 38,80" />
<polygon fill="#48571d" fill-opacity="0.501961" points="194,38 201,56 194,79" />
<polygon fill="#8f9151" fill-opacity="0.501961" points="246,15 239,13 238,18" />
<polygon fill="#2a3013" fill-opacity="0.501961" points="179,90 182,79 165,98" />
<polygon fill="#8da437" fill-opacity="0.501961" points="65,20 60,15 56,15" />
<polygon fill="#2d2414" fill-opacity="0.501961" points="180,109 181,95 205,99" />
<polygon fill="#0d1109" fill-opacity="0.501961" points="245,48 249,39 253,49" />
<polygon fill="#5b5154" fill-opacity="0.501961" points="27,129 38,148 46,131" />
<polygon fill="#bbd17e" fill-opacity="0.501961" points="135,1 129,-16 192,-10" />
<polygon fill="#263b0f" fill-opacity="0.501961" points="26,71 27,52 14,49" />
<polygon fill="#d5df57" fill-opacity="0.501961" points="203,26 197,25 195,21" />
<polygon fill="#566e20" fill-opacity="0.501961" points="42,37 47,-9 34,-11" />
<polygon fill="#6b6119" fill-opacity="0.501961" points="254,125 193,138 215,121" />
<polygon fill="#575900" fill-opacity="0.501961" points="161,3 160,4 162,6" />
<polygon fill="#303912" fill-opacity="0.501961" points="81,67 105,66 100,36" />
<polygon fill="#dfde75" fill-opacity="0.501961" points="168,105 166,104 166,111" />
<polygon fill="#000001" fill-opacity="0.501961" points="46,113 43,105 41,126" />
<polygon fill="#ffffa5" fill-opacity="0.501961" points="22,104 27,102 26,106" />
<polygon fill="#a3be47" fill-opacity="0.501961" points="135,10 149,17 146,21" />
<polygon fill="#505820" fill-opacity="0.501961" points="123,9 112,48 112,24" />
<polygon fill="#2c2910" fill-opacity="0.501961" points="196,41 200,27 200,49" />
<polygon fill="#c9dc4a" fill-opacity="0.501961" points="151,34 149,38 155,33" />
<polygon fill="#9eae40" fill-opacity="0.501961" points="147,91 152,92 148,78" />
<polygon fill="#eae9d4" fill-opacity="0.501961" points="170,3 166,6 173,9" />
<polygon fill="#5f7222" fill-opacity="0.501961" points="231,37 271,39 271,28" />
<polygon fill="#111508" fill-opacity="0.501961" points="252,30 248,11 246,25" />
<polygon fill="#f7f3ea" fill-opacity="0.501961" points="214,18 217,27 214,26" />
<polygon fill="#434d11" fill-opacity="0.501961" points="176,34 154,33 152,40" />
<polygon fill="#838553" fill-opacity="0.501961" points="195,11 196,21 198,14" />
<polygon fill="#424a20" fill-opacity="0.501961" points="50,52 33,50 33,72" />
<polygon fill="#868840" fill-opacity="0.501961" points="128,-9 178,2 185,-16" />
<polygon fill="#20270e" fill-opacity="0.501961" points="235,13 228,5 228,34" />
<polygon fill="#26230f" fill-opacity="0.501961" points="194,69 189,77 178,71" />
<polygon fill="#433321" fill-opacity="0.501961" points="95,99 88,120 87,102" />
<polygon fill="#2b2110" fill-opacity="0.501961" points="116,120 101,109 135,117" />
<polygon fill="#626613" fill-opacity="0.501961" points="15,118 7,119 -3,110" />
<polygon fill="#7f9b44" fill-opacity="0.501961" points="83,21 85,9 90,8" />
<polygon fill="#151517" fill-opacity="0.501961" points="37,49 38,32 25,25" />
<polygon fill="#13180d" fill-opacity="0.501961" points="52,71 103,74 68,84" />
<polygon fill="#050206" fill-opacity="0.501961" points="96,128 117,125 122,134" />
<polygon fill="#182216" fill-opacity="0.501961" points="22,10 38,11 35,-1" />
<polygon fill="#6a7922" fill-opacity="0.501961" points="62,70 49,59 46,66" />
<polygon fill="#505326" fill-opacity="0.501961" points="217,26 228,32 225,6" />
<polygon fill="#ffffa3" fill-opacity="0.501961" points="161,1 155,0 167,-2" />
<polygon fill="#cbd27d" fill-opacity="0.501961" points="197,114 193,117 186,115" />
<polygon fill="#3e4b0e" fill-opacity="0.501961" points="104,6 77,5 94,1" />
<polygon fill="#4d410d" fill-opacity="0.501961" points="193,102 205,93 219,98" />
<polygon fill="#000000" fill-opacity="0.501961" points="43,95 46,101 45,87" />
<polygon fill="#908132" fill-opacity="0.501961" points="188,121 199,133 178,127" />
<polygon fill="#323c0d" fill-opacity="0.501961" points="234,55 232,50 241,55" />
<polygon fill="#a9a96d" fill-opacity="0.501961" points="176,2 177,22 168,13" />
<polygon fill="#293314" fill-opacity="0.501961" points="118,86 133,35 134,60" />
<polygon fill="#42511b" fill-opacity="0.501961" points="143,45 114,44 144,63" />
<polygon fill="#3a4019" fill-opacity="0.501961" points="221,46 212,52 234,48" />
<polygon fill="#bdbc73" fill-opacity="0.501961" points="242,60 240,64 230,65" />
<polygon fill="#4b6111" fill-opacity="0.501961" points="211,71 207,62 212,53" />
<polygon fill="#ffffa9" fill-opacity="0.501961" points="157,23 155,22 153,23" />
<polygon fill="#879166" fill-opacity="0.501961" points="17,38 21,38 15,42" />
<polygon fill="#b8b64d" fill-opacity="0.501961" points="98,121 96,125 99,124" />
<polygon fill="#6c5d2f" fill-opacity="0.501961" points="27,108 28,112 25,112" />
<polygon fill="#4a5516" fill-opacity="0.501961" points="146,32 155,30 154,33" />
<polygon fill="#846d4a" fill-opacity="0.501961" points="182,47 185,39 186,51" />
<polygon fill="#f8f7e0" fill-opacity="0.501961" points="5,113 10,112 8,110" />
<polygon fill="#e8cfd3" fill-opacity="0.501961" points="-11,105 4,104 -16,114" />
<polygon fill="#38402d" fill-opacity="0.501961" points="-16,77 1,20 -1,127" />
<polygon fill="#6b7b31" fill-opacity="0.501961" points="143,20 150,5 159,1" />
<polygon fill="#010000" fill-opacity="0.501961" points="9,118 5,124 15,124" />
<polygon fill="#646a32" fill-opacity="0.501961" points="218,4 218,-5 222,0" />
<polygon fill="#241e15" fill-opacity="0.501961" points="73,148 59,124 48,134" />
<polygon fill="#6f9c19" fill-opacity="0.501961" points="14,88 26,87 26,79" />
<polygon fill="#757e49" fill-opacity="0.501961" points="213,14 211,23 216,19" />
<polygon fill="#649213" fill-opacity="0.501961" points="-4,88 8,89 8,79" />
<polygon fill="#9fae63" fill-opacity="0.501961" points="214,37 213,30 211,33" />
<polygon fill="#b8d64e" fill-opacity="0.501961" points="7,103 21,98 20,103" />
<polygon fill="#13130c" fill-opacity="0.501961" points="222,105 228,96 212,109" />
<polygon fill="#807f33" fill-opacity="0.501961" points="170,5 166,13 167,8" />
<polygon fill="#91a15e" fill-opacity="0.501961" points="26,21 22,5 21,15" />
<polygon fill="#110f0a" fill-opacity="0.501961" points="210,30 208,59 198,64" />
<polygon fill="#120f10" fill-opacity="0.501961" points="13,96 12,83 15,88" />
<polygon fill="#324210" fill-opacity="0.501961" points="140,86 145,80 154,84" />
<polygon fill="#5b6f1c" fill-opacity="0.501961" points="259,38 249,20 269,-16" />
<polygon fill="#383d12" fill-opacity="0.501961" points="202,17 199,24 199,6" />
<polygon fill="#eaf2af" fill-opacity="0.501961" points="181,113 188,115 188,113" />
<polygon fill="#4b5321" fill-opacity="0.501961" points="249,56 251,66 238,73" />
<polygon fill="#bdc75b" fill-opacity="0.501961" points="237,47 226,59 234,56" />
<polygon fill="#524721" fill-opacity="0.501961" points="185,115 172,114 164,130" />
<polygon fill="#e1de89" fill-opacity="0.501961" points="4,0 13,-15 -13,-8" />
<polygon fill="#6e765d" fill-opacity="0.501961" points="13,119 17,122 16,124" />
<polygon fill="#989f3c" fill-opacity="0.501961" points="81,40 79,37 89,36" />
<polygon fill="#755e2b" fill-opacity="0.501961" points="176,116 152,116 175,123" />
<polygon fill="#aba262" fill-opacity="0.501961" points="15,97 10,89 11,95" />
<polygon fill="#3a451c" fill-opacity="0.501961" points="198,93 195,84 191,91" />
<polygon fill="#4b4b37" fill-opacity="0.501961" points="105,87 102,102 107,105" />
<polygon fill="#16180d" fill-opacity="0.501961" points="213,25 203,16 203,28" />
<polygon fill="#2f240c" fill-opacity="0.501961" points="189,114 196,106 205,106" />
<polygon fill="#9d927d" fill-opacity="0.501961" points="144,146 158,139 165,127" />
<polygon fill="#623e29" fill-opacity="0.501961" points="25,116 22,115 25,120" />
<polygon fill="#211c10" fill-opacity="0.501961" points="76,83 73,108 91,106" />
<polygon fill="#a2a152" fill-opacity="0.501961" points="64,102 60,101 63,99" />
<polygon fill="#69555a" fill-opacity="0.501961" points="39,123 45,126 56,123" />
<polygon fill="#597128" fill-opacity="0.501961" points="9,56 30,55 5,63" />
<polygon fill="#a4a759" fill-opacity="0.501961" points="196,117 190,119 203,119" />
<polygon fill="#faf6fe" fill-opacity="0.501961" points="214,8 216,4 216,9" />
<polygon fill="#252612" fill-opacity="0.501961" points="196,83 219,75 206,74" />
<polygon fill="#2d3911" fill-opacity="0.501961" points="56,5 37,10 74,18" />
<polygon fill="#000000" fill-opacity="0.501961" points="83,115 69,114 67,122" />
<polygon fill="#120f10" fill-opacity="0.501961" points="180,52 178,57 181,65" />
<polygon fill="#373614" fill-opacity="0.501961" points="115,4 118,-3 117,6" />
<polygon fill="#adaf8d" fill-opacity="0.501961" points="183,3 186,-16 181,-6" />
<polygon fill="#161309" fill-opacity="0.501961" points="182,28 181,32 180,23" />
<polygon fill="#56561c" fill-opacity="0.501961" points="190,122 180,118 196,116" />
<polygon fill="#443f2b" fill-opacity="0.501961" points="91,127 73,126 73,120" />
<polygon fill="#393528" fill-opacity="0.501961" points="84,147 98,122 68,148" />
<polygon fill="#232a0e" fill-opacity="0.501961" points="50,70 56,70 49,81" />
<polygon fill="#252b0e" fill-opacity="0.501961" points="231,55 234,53 237,54" />
<polygon fill="#f9ede0" fill-opacity="0.501961" points="21,108 20,116 22,114" />
<polygon fill="#000000" fill-opacity="0.501961" points="37,129 30,128 29,120" />
<polygon fill="#ddea58" fill-opacity="0.501961" points="148,2 157,2 158,-1" />
<polygon fill="#ebe9d9" fill-opacity="0.501961" points="214,40 214,47 212,41" />
<polygon fill="#ffffc2" fill-opacity="0.501961" points="12,32 10,32 12,33" />
<polygon fill="#959618" fill-opacity="0.501961" points="14,111 17,114 20,112" />
<polygon fill="#566537" fill-opacity="0.501961" points="13,65 8,68 12,86" />
<polygon fill="#607709" fill-opacity="0.501961" points="6,102 13,97 9,97" />
<polygon fill="#ffffff" fill-opacity="0.501961" points="240,11 238,11 238,7" />
<polygon fill="#191b10" fill-opacity="0.501961" points="213,6 205,-8 204,12" />
<polygon fill="#92b82b" fill-opacity="0.501961" points="19,64 22,65 17,68" />
<polygon fill="#4e631f" fill-opacity="0.501961" points="57,17 49,-3 47,48" />
<polygon fill="#0f100e" fill-opacity="0.501961" points="67,-16 68,47 78,8" />
<polygon fill="#040705" fill-opacity="0.501961" points="43,86 47,74 43,70" />
<polygon fill="#507013" fill-opacity="0.501961" points="65,13 65,-16 58,4" />
<polygon fill="#5a6128" fill-opacity="0.501961" points="34,86 43,88 38,82" />
<polygon fill="#313d0d" fill-opacity="0.501961" points="50,100 51,104 48,109" />
<polygon fill="#070a07" fill-opacity="0.501961" points="39,118 29,106 38,89" />
<polygon fill="#181b0a" fill-opacity="0.501961" points="58,100 63,100 59,97" />
<polygon fill="#6a6a44" fill-opacity="0.501961" points="177,46 178,59 173,64" />
<polygon fill="#3b4019" fill-opacity="0.501961" points="167,74 158,42 176,49" />
<polygon fill="#a6b85f" fill-opacity="0.501961" points="126,7 133,11 125,3" />
<polygon fill="#8d9968" fill-opacity="0.501961" points="54,90 59,99 52,97" />
<polygon fill="#4f6226" fill-opacity="0.501961" points="6,0 2,9 7,23" />
<polygon fill="#4e621d" fill-opacity="0.501961" points="12,-7 13,3 26,14" />
<polygon fill="#ac988f" fill-opacity="0.501961" points="95,124 91,118 88,121" />
<polygon fill="#151916" fill-opacity="0.501961" points="252,74 264,108 263,39" />
<polygon fill="#080807" fill-opacity="0.501961" points="186,27 189,16 190,36" />
<polygon fill="#313a0f" fill-opacity="0.501961" points="231,27 216,18 218,8" />
<polygon fill="#a6bd58" fill-opacity="0.501961" points="204,11 203,17 201,9" />
<polygon fill="#f8f9c8" fill-opacity="0.501961" points="165,11 167,7 164,6" />
<polygon fill="#878c3c" fill-opacity="0.501961" points="199,52 194,50 195,53" />
<polygon fill="#6c813f" fill-opacity="0.501961" points="92,22 94,27 82,26" />
<polygon fill="#e5dec7" fill-opacity="0.501961" points="204,40 202,39 202,38" />
<polygon fill="#f9ff78" fill-opacity="0.501961" points="210,92 203,92 205,90" />
<polygon fill="#465413" fill-opacity="0.501961" points="90,39 78,34 104,28" />
<polygon fill="#2f3119" fill-opacity="0.501961" points="201,51 214,38 204,37" />
<polygon fill="#f4b884" fill-opacity="0.501961" points="25,126 27,125 21,123" />
</g>
</svg>