<svg xmlns="http://www.w3.org/2000/svg" version="1.1" width="1024" height="532">
<rect x="0" y="0" width="1024" height="532" fill="#494e24" />
<g transform="scale(4.000000) translate(0.5 0.5)">
<polygon fill="#d4e27f" fill-opacity="0.501961" points="181,34 118,27 173,-16" />
<polygon fill="#0a0b05" fill-opacity="0.501961" points="67,-5 62,139 144,95" />
<polygon fill="#e9e67c" fill-opacity="0.501961" points="-12,94 28,92 27,133" />
<polygon fill="#ffffa8" fill-opacity="0.501961" points="163,101 183,90 166,112" />
<polygon fill="#060d07" fill-opacity="0.501961" points="31,132 50,60 25,-12" />
<polygon fill="#b4b789" fill-opacity="0.501961" points="231,-16 213,55 212,-16" />
<polygon fill="#bdac6d" fill-opacity="0.501961" points="45,126 49,74 64,126" />
<polygon fill="#8fa14b" fill-opacity="0.501961" points="145,57 104,-16 182,-5" />
<polygon fill="#9eab56" fill-opacity="0.501961" points="245,64 227,72 239,8" />
<polygon fill="#000001" fill-opacity="0.501961" points="26,125 125,125 99,148" />
<polygon fill="#96832c" fill-opacity="0.501961" points="158,148 242,129 178,109" />
<polygon fill="#869a60" fill-opacity="0.501961" points="25,9 10,48 2,-16" />
<polygon fill="#1d1e12" fill-opacity="0.501961" points="209,69 212,7 155,81" />
<polygon fill="#556625" fill-opacity="0.501961" points="152,21 83,-16 79,63" />
<polygon fill="#896e48" fill-opacity="0.501961" points="79,127 116,124 86,104" />
<polygon fill="#21111d" fill-opacity="0.501961" points="2,122 39,123 70,104" />
<polygon fill="#30370c" fill-opacity="0.501961" points="216,65 242,35 217,-1" />
<polygon fill="#000000" fill-opacity="0.501961" points="70,49 60,145 86,148" />
<polygon fill="#2b3214" fill-opacity="0.501961" points="108,21 80,74 187,91" />
<polygon fill="#a1a658" fill-opacity="0.501961" points="194,15 202,-16 203,43" />
<polygon fill="#fbefa0" fill-opacity="0.501961" points="182,-16 158,21 158,-7" />
<polygon fill="#d3cc44" fill-opacity="0.501961" points="211,96 197,88 225,91" />
<polygon fill="#31290c" fill-opacity="0.501961" points="201,79 262,63 270,141" />
<polygon fill="#ffffc1" fill-opacity="0.501961" points="25,102 28,118 15,106" />
<polygon fill="#3e5117" fill-opacity="0.501961" points="29,-16 42,106 69,12" />
<polygon fill="#e5ded2" fill-opacity="0.501961" points="241,9 237,-2 238,22" />
<polygon fill="#ffffd5" fill-opacity="0.501961" points="222,4 214,-2 214,13" />
<polygon fill="#feecd1" fill-opacity="0.501961" points="42,126 33,122 39,119" />
<polygon fill="#b9baa8" fill-opacity="0.501961" points="215,62 215,33 209,44" />
<polygon fill="#fec69a" fill-opacity="0.501961" points="45,117 62,114 59,123" />
<polygon fill="#ffff7d" fill-opacity="0.501961" points="46,106 47,91 54,91" />
<polygon fill="#6c702f" fill-opacity="0.501961" points="185,38 134,51 162,20" />
<polygon fill="#000002" fill-opacity="0.501961" points="29,62 40,103 29,133" />
<polygon fill="#151011" fill-opacity="0.501961" points="195,15 188,51 183,-16" />
<polygon fill="#a1ac53" fill-opacity="0.501961" points="264,61 238,66 220,52" />
<polygon fill="#404517" fill-opacity="0.501961" points="239,16 216,47 217,-16" />
<polygon fill="#537619" fill-opacity="0.501961" points="13,50 30,89 -16,100" />
<polygon fill="#4a3e15" fill-opacity="0.501961" points="195,123 101,120 138,89" />
<polygon fill="#030907" fill-opacity="0.501961" points="65,6 83,-16 73,61" />
<polygon fill="#000a09" fill-opacity="0.501961" points="8,61 8,39 -16,38" />
<polygon fill="#100f0b" fill-opacity="0.501961" points="208,7 213,53 197,72" />
<polygon fill="#9ba343" fill-opacity="0.501961" points="42,63 43,81 36,64" />
<polygon fill="#fbf5c0" fill-opacity="0.501961" points="163,22 169,17 180,23" />
<polygon fill="#8d7c6b" fill-opacity="0.501961" points="183,17 186,47 177,30" />
<polygon fill="#b58066" fill-opacity="0.501961" points="-2,147 25,122 40,148" />
<polygon fill="#ffffbb" fill-opacity="0.501961" points="170,105 176,93 165,103" />
<polygon fill="#33411d" fill-opacity="0.501961" points="27,64 11,104 15,11" />
<polygon fill="#eded8f" fill-opacity="0.501961" points="27,113 5,117 4,111" />
<polygon fill="#2a1c19" fill-opacity="0.501961" points="26,119 -13,148 -4,115" />
<polygon fill="#2b3114" fill-opacity="0.501961" points="237,41 250,-9 252,51" />
<polygon fill="#ebe9d5" fill-opacity="0.501961" points="213,19 214,38 217,31" />
<polygon fill="#c8d37d" fill-opacity="0.501961" points="197,113 181,113 201,119" />
<polygon fill="#000001" fill-opacity="0.501961" points="203,-8 212,3 210,29" />
<polygon fill="#819345" fill-opacity="0.501961" points="120,35 121,-16 168,-16" />
<polygon fill="#64683f" fill-opacity="0.501961" points="179,97 207,88 182,71" />
<polygon fill="#000000" fill-opacity="0.501961" points="8,108 -16,116 -4,107" />
<polygon fill="#647b28" fill-opacity="0.501961" points="115,-16 81,-4 83,45" />
<polygon fill="#bea077" fill-opacity="0.501961" points="97,122 81,117 90,125" />
<polygon fill="#6f6518" fill-opacity="0.501961" points="192,122 241,85 204,96" />
<polygon fill="#232812" fill-opacity="0.501961" points="176,52 159,43 153,100" />
<polygon fill="#c0d35d" fill-opacity="0.501961" points="194,-16 204,15 203,-5" />
<polygon fill="#0c0e04" fill-opacity="0.501961" points="177,92 157,81 190,89" />
<polygon fill="#efff6c" fill-opacity="0.501961" points="41,96 43,108 40,106" />
<polygon fill="#000000" fill-opacity="0.501961" points="41,126 48,113 44,94" />
<polygon fill="#090a07" fill-opacity="0.501961" points="56,122 103,78 98,100" />
<polygon fill="#291c0a" fill-opacity="0.501961" points="194,114 200,96 175,102" />
<polygon fill="#484c28" fill-opacity="0.501961" points="181,27 185,71 165,69" />
<polygon fill="#8ba936" fill-opacity="0.501961" points="151,89 148,77 141,92" />
<polygon fill="#302f1b" fill-opacity="0.501961" points="139,98 100,125 107,-6" />
<polygon fill="#798b33" fill-opacity="0.501961" points="251,-2 271,9 254,45" />
<polygon fill="#63662c" fill-opacity="0.501961" points="51,105 63,114 64,80" />
<polygon fill="#060d05" fill-opacity="0.501961" points="79,68 45,74 73,84" />
<polygon fill="#8da55b" fill-opacity="0.501961" points="19,33 25,16 18,9" />
<polygon fill="#7d9e30" fill-opacity="0.501961" points="6,62 -16,75 26,64" />
<polygon fill="#cad85d" fill-opacity="0.501961" points="28,103 21,116 7,94" />
<polygon fill="#b7b184" fill-opacity="0.501961" points="179,33 161,-16 177,-4" />
<polygon fill="#c59f5b" fill-opacity="0.501961" points="133,126 120,129 127,132" />
<polygon fill="#000002" fill-opacity="0.501961" points="79,148 89,130 134,122" />
<polygon fill="#ffffff" fill-opacity="0.501961" points="239,25 240,19 237,25" />
<polygon fill="#6a7836" fill-opacity="0.501961" points="158,76 157,47 146,79" />
<polygon fill="#cec744" fill-opacity="0.501961" points="220,95 207,91 223,90" />
<polygon fill="#769122" fill-opacity="0.501961" points="24,100 7,101 28,75" />
<polygon fill="#5c6f22" fill-opacity="0.501961" points="210,54 232,72 206,74" />
<polygon fill="#2c3613" fill-opacity="0.501961" points="154,84 104,86 36,27" />
<polygon fill="#d1e157" fill-opacity="0.501961" points="225,1 219,-16 219,7" />
<polygon fill="#030710" fill-opacity="0.501961" points="28,34 35,1 25,-13" />
<polygon fill="#ffffff" fill-opacity="0.501961" points="213,50 214,41 216,46" />
<polygon fill="#f0f78d" fill-opacity="0.501961" points="144,2 147,-11 163,0" />
<polygon fill="#9da57b" fill-opacity="0.501961" points="14,34 9,7 6,27" />
<polygon fill="#524216" fill-opacity="0.501961" points="271,109 197,92 243,148" />
<polygon fill="#545b29" fill-opacity="0.501961" points="252,73 243,8 237,38" />
<polygon fill="#979f7c" fill-opacity="0.501961" points="25,36 18,52 27,42" />
<polygon fill="#000000" fill-opacity="0.501961" points="45,94 42,83 45,75" />
<polygon fill="#62762c" fill-opacity="0.501961" points="36,26 44,15 43,49" />
<polygon fill="#0b0d0f" fill-opacity="0.501961" points="225,76 198,91 209,77" />
<polygon fill="#fdf9ff" fill-opacity="0.501961" points="212,-7 216,11 217,-11" />
<polygon fill="#172010" fill-opacity="0.501961" points="36,40 39,79 16,54" />
<polygon fill="#3f431e" fill-opacity="0.501961" points="236,4 216,68 217,9" />
<polygon fill="#d7db70" fill-opacity="0.501961" points="201,21 196,26 194,22" />
<polygon fill="#afb746" fill-opacity="0.501961" points="80,39 88,38 78,35" />
<polygon fill="#5a682b" fill-opacity="0.501961" points="107,-11 85,-16 105,63" />
<polygon fill="#414323" fill-opacity="0.501961" points="214,38 196,54 190,22" />
<polygon fill="#363616" fill-opacity="0.501961" points="201,25 196,17 199,1" />
<polygon fill="#5c4c27" fill-opacity="0.501961" points="104,100 106,124 88,100" />
<polygon fill="#15130c" fill-opacity="0.501961" points="109,57 128,104 107,101" />
<polygon fill="#645222" fill-opacity="0.501961" points="134,113 208,121 154,130" />
<polygon fill="#394615" fill-opacity="0.501961" points="67,6 32,55 65,69" />
<polygon fill="#7b9433" fill-opacity="0.501961" points="168,93 158,106 166,85" />
<polygon fill="#86915b" fill-opacity="0.501961" points="191,76 204,87 181,77" />
<polygon fill="#ffff9e" fill-opacity="0.501961" points="10,95 4,101 6,95" />
<polygon fill="#080e0a" fill-opacity="0.501961" points="101,99 86,71 103,69" />
<polygon fill="#706c42" fill-opacity="0.501961" points="170,18 173,12 157,13" />
<polygon fill="#6c7730" fill-opacity="0.501961" points="42,77 42,95 38,81" />
<polygon fill="#769d26" fill-opacity="0.501961" points="125,89 121,85 126,81" />
<polygon fill="#908c35" fill-opacity="0.501961" points="206,96 201,90 181,93" />
<polygon fill="#0f1109" fill-opacity="0.501961" points="205,9 214,28 205,39" />
<polygon fill="#171214" fill-opacity="0.501961" points="83,122 54,137 26,127" />
<polygon fill="#06090a" fill-opacity="0.501961" points="160,89 149,81 168,77" />
<polygon fill="#181e09" fill-opacity="0.501961" points="211,109 245,96 229,95" />
<polygon fill="#7b7f54" fill-opacity="0.501961" points="191,24 190,6 193,15" />
<polygon fill="#bbb097" fill-opacity="0.501961" points="42,124 34,117 35,126" />
<polygon fill="#ffdca1" fill-opacity="0.501961" points="45,118 57,118 54,122" />
<polygon fill="#6c7c27" fill-opacity="0.501961" points="56,70 43,66 51,56" />
<polygon fill="#1c190c" fill-opacity="0.501961" points="58,112 33,108 37,120" />
<polygon fill="#796f23" fill-opacity="0.501961" points="196,138 177,120 256,124" />
<polygon fill="#444f1b" fill-opacity="0.501961" points="116,55 159,55 111,30" />
<polygon fill="#d2ed61" fill-opacity="0.501961" points="46,108 48,93 55,94" />
<polygon fill="#586920" fill-opacity="0.501961" points="75,80 94,88 89,92" />
<polygon fill="#29410e" fill-opacity="0.501961" points="144,103 125,90 172,95" />
<polygon fill="#bbb78a" fill-opacity="0.501961" points="185,38 181,35 183,25" />
<polygon fill="#282515" fill-opacity="0.501961" points="181,23 175,47 183,48" />
<polygon fill="#8f9255" fill-opacity="0.501961" points="179,41 178,34 166,40" />
<polygon fill="#0e0e06" fill-opacity="0.501961" points="194,50 186,21 186,67" />
<polygon fill="#000509" fill-opacity="0.501961" points="241,119 259,120 245,124" />
<polygon fill="#687b2c" fill-opacity="0.501961" points="154,8 149,-16 147,18" />
<polygon fill="#eeebea" fill-opacity="0.501961" points="155,30 148,30 154,27" />
<polygon fill="#373e17" fill-opacity="0.501961" points="271,26 239,4 254,37" />
<polygon fill="#12130d" fill-opacity="0.501961" points="150,65 165,66 161,54" />
<polygon fill="#000001" fill-opacity="0.501961" points="78,116 68,72 65,136" />
<polygon fill="#333b18" fill-opacity="0.501961" points="234,48 215,61 233,-11" />
<polygon fill="#7a8f53" fill-opacity="0.501961" points="57,100 54,78 50,85" />
<polygon fill="#26291c" fill-opacity="0.501961" points="10,75 17,59 14,94" />
<polygon fill="#b3ae93" fill-opacity="0.501961" points="204,35 201,42 201,38" />
<polygon fill="#80765e" fill-opacity="0.501961" points="11,129 46,131 27,143" />
<polygon fill="#4e6429" fill-opacity="0.501961" points="139,26 128,38 153,26" />
<polygon fill="#dfee67" fill-opacity="0.501961" points="231,53 234,56 227,59" />
<polygon fill="#54523c" fill-opacity="0.501961" points="105,66 101,99 109,81" />
<polygon fill="#3e4920" fill-opacity="0.501961" points="14,-9 21,12 13,32" />
<polygon fill="#bed387" fill-opacity="0.501961" points="179,114 188,113 175,110" />
<polygon fill="#baba83" fill-opacity="0.501961" points="198,5 197,-2 195,11" />
<polygon fill="#a3a573" fill-opacity="0.501961" points="235,39 237,26 239,30" />
<polygon fill="#ffff80" fill-opacity="0.501961" points="208,90 203,91 212,93" />
<polygon fill="#80852b" fill-opacity="0.501961" points="178,0 164,-5 165,2" />
<polygon fill="#706138" fill-opacity="0.501961" points="86,126 94,117 73,125" />
<polygon fill="#a7b947" fill-opacity="0.501961" points="153,37 139,38 162,30" />
<polygon fill="#000006" fill-opacity="0.501961" points="124,122 135,123 127,126" />
<polygon fill="#232417" fill-opacity="0.501961" points="215,75 271,67 248,83" />
<polygon fill="#141912" fill-opacity="0.501961" points="13,47 19,41 26,46" />
<polygon fill="#607728" fill-opacity="0.501961" points="128,21 134,1 149,14" />
<polygon fill="#353e10" fill-opacity="0.501961" points="208,57 225,67 233,62" />
<polygon fill="#546e1a" fill-opacity="0.501961" points="152,99 167,103 136,121" />
<polygon fill="#3d451e" fill-opacity="0.501961" points="164,66 189,62 171,98" />
<polygon fill="#827d21" fill-opacity="0.501961" points="261,118 241,114 261,112" />
<polygon fill="#ffffe0" fill-opacity="0.501961" points="161,8 164,10 168,4" />
<polygon fill="#767a3a" fill-opacity="0.501961" points="223,-7 227,11 222,13" />
<polygon fill="#84824f" fill-opacity="0.501961" points="239,12 242,20 246,14" />
<polygon fill="#f8f2ef" fill-opacity="0.501961" points="177,30 179,23 177,19" />
<polygon fill="#ffff92" fill-opacity="0.501961" points="171,106 176,94 165,108" />
<polygon fill="#363214" fill-opacity="0.501961" points="204,107 177,97 190,114" />
<polygon fill="#dfdfbe" fill-opacity="0.501961" points="254,40 271,37 271,54" />
<polygon fill="#384418" fill-opacity="0.501961" points="106,70 101,33 74,14" />
<polygon fill="#0a0b11" fill-opacity="0.501961" points="27,26 30,62 37,32" />
<polygon fill="#121419" fill-opacity="0.501961" points="105,15 111,26 110,3" />
<polygon fill="#9a8154" fill-opacity="0.501961" points="27,112 23,105 18,112" />
<polygon fill="#819441" fill-opacity="0.501961" points="105,12 105,-9 96,7" />
<polygon fill="#ede7e3" fill-opacity="0.501961" points="238,29 239,23 237,19" />
<polygon fill="#6b8e27" fill-opacity="0.501961" points="38,9 47,-1 37,-16" />
<polygon fill="#82764a" fill-opacity="0.501961" points="182,43 186,48 182,57" />
<polygon fill="#989d5c" fill-opacity="0.501961" points="65,88 59,82 60,89" />
<polygon fill="#ebae6f" fill-opacity="0.501961" points="25,127 21,122 27,123" />
<polygon fill="#5c6a29" fill-opacity="0.501961" points="175,23 157,31 153,25" />
<polygon fill="#fcffa3" fill-opacity="0.501961" points="27,102 14,108 19,109" />
<polygon fill="#fffad1" fill-opacity="0.501961" points="239,2 240,-3 238,-8" />
<polygon fill="#e5eb6a" fill-opacity="0.501961" points="22,98 22,91 26,95" />
<polygon fill="#d9d6a6" fill-opacity="0.501961" points="152,59 155,57 152,61" />
<polygon fill="#7d6a2e" fill-opacity="0.501961" points="225,107 202,116 220,116" />
<polygon fill="#20180f" fill-opacity="0.501961" points="112,120 133,115 111,113" />
<polygon fill="#abb755" fill-opacity="0.501961" points="139,18 165,1 161,16" />
<polygon fill="#686b41" fill-opacity="0.501961" points="171,63 176,69 178,49" />
<polygon fill="#555b10" fill-opacity="0.501961" points="211,98 256,82 240,96" />
<polygon fill="#201e16" fill-opacity="0.501961" points="181,7 176,9 181,23" />
<polygon fill="#b8b952" fill-opacity="0.501961" points="1,109 1,88 5,102" />
<polygon fill="#676c1d" fill-opacity="0.501961" points="11,114 5,114 -3,128" />
<polygon fill="#627b1c" fill-opacity="0.501961" points="16,80 28,73 17,100" />
<polygon fill="#6c491f" fill-opacity="0.501961" points="114,110 132,117 131,104" />
<polygon fill="#3c311f" fill-opacity="0.501961" points="250,109 200,121 226,123" />
<polygon fill="#ffffd1" fill-opacity="0.501961" points="156,22 153,22 152,25" />
<polygon fill="#476900" fill-opacity="0.501961" points="9,106 14,110 14,107" />
<polygon fill="#14160c" fill-opacity="0.501961" points="95,122 97,113 92,116" />
<polygon fill="#503d0d" fill-opacity="0.501961" points="128,130 149,118 171,147" />
<polygon fill="#27350d" fill-opacity="0.501961" points="45,6 64,4 45,21" />
<polygon fill="#796751" fill-opacity="0.501961" points="-1,131 11,128 8,125" />
<polygon fill="#a1ac42" fill-opacity="0.501961" points="146,90 156,92 146,85" />
<polygon fill="#837b2f" fill-opacity="0.501961" points="162,127 218,122 161,148" />
<polygon fill="#6a672d" fill-opacity="0.501961" points="39,105 43,114 39,120" />
<polygon fill="#737041" fill-opacity="0.501961" points="227,27 227,32 216,35" />
<polygon fill="#000000" fill-opacity="0.501961" points="11,121 17,125 5,124" />
<polygon fill="#0f1110" fill-opacity="0.501961" points="49,53 46,30 43,52" />
<polygon fill="#5c7e1f" fill-opacity="0.501961" points="-6,95 12,84 13,69" />
<polygon fill="#afd05c" fill-opacity="0.501961" points="246,53 238,54 241,52" />
<polygon fill="#586e22" fill-opacity="0.501961" points="48,35 49,11 62,17" />
<polygon fill="#070905" fill-opacity="0.501961" points="28,123 39,117 39,84" />
<polygon fill="#fffffd" fill-opacity="0.501961" points="213,32 215,29 216,37" />
<polygon fill="#33330d" fill-opacity="0.501961" points="2,102 -16,120 -16,93" />
<polygon fill="#748c3f" fill-opacity="0.501961" points="18,-16 17,23 25,5" />
<polygon fill="#65742a" fill-opacity="0.501961" points="199,52 194,54 194,35" />
<polygon fill="#434916" fill-opacity="0.501961" points="177,33 145,42 161,32" />
<polygon fill="#fff6b2" fill-opacity="0.501961" points="183,92 188,94 186,92" />
<polygon fill="#c6c5a5" fill-opacity="0.501961" points="19,47 20,50 24,50" />
<polygon fill="#151d01" fill-opacity="0.501961" points="236,52 241,55 232,54" />
<polygon fill="#dbd9c0" fill-opacity="0.501961" points="217,58 213,56 214,46" />
<polygon fill="#aab557" fill-opacity="0.501961" points="252,13 252,1 255,5" />
<polygon fill="#556531" fill-opacity="0.501961" points="3,-6 -11,-13 8,31" />
<polygon fill="#0e120a" fill-opacity="0.501961" points="246,47 250,37 254,48" />
<polygon fill="#0c110f" fill-opacity="0.501961" points="26,53 12,52 37,47" />
<polygon fill="#585c29" fill-opacity="0.501961" points="125,9 113,40 111,-8" />
<polygon fill="#1b1f10" fill-opacity="0.501961" points="192,65 185,41 193,16" />
<polygon fill="#232b12" fill-opacity="0.501961" points="60,99 57,86 55,105" />
<polygon fill="#9caa41" fill-opacity="0.501961" points="238,38 238,50 233,51" />
<polygon fill="#4b5320" fill-opacity="0.501961" points="224,47 210,53 223,53" />
<polygon fill="#46522e" fill-opacity="0.501961" points="190,93 211,89 191,82" />
<polygon fill="#000204" fill-opacity="0.501961" points="76,55 66,58 72,86" />
<polygon fill="#010100" fill-opacity="0.501961" points="39,148 46,127 91,129" />
<polygon fill="#3e3515" fill-opacity="0.501961" points="218,91 203,108 219,98" />
<polygon fill="#969857" fill-opacity="0.501961" points="175,9 179,16 170,33" />
<polygon fill="#404623" fill-opacity="0.501961" points="44,50 35,72 32,37" />
<polygon fill="#cdbe74" fill-opacity="0.501961" points="12,98 11,89 10,94" />
<polygon fill="#302019" fill-opacity="0.501961" points="18,129 24,116 11,129" />
<polygon fill="#cc9e6b" fill-opacity="0.501961" points="46,116 61,117 61,113" />
<polygon fill="#95af59" fill-opacity="0.501961" points="137,36 127,39 142,39" />
<polygon fill="#3b480c" fill-opacity="0.501961" points="88,0 101,5 77,7" />
<polygon fill="#b1998b" fill-opacity="0.501961" points="92,117 90,122 95,123" />
<polygon fill="#d8d68c" fill-opacity="0.501961" points="125,22 121,25 124,26" />
<polygon fill="#0f0d07" fill-opacity="0.501961" points="201,50 211,28 205,67" />
<polygon fill="#918837" fill-opacity="0.501961" points="208,103 206,99 196,106" />
<polygon fill="#3b401c" fill-opacity="0.501961" points="94,9 128,21 110,26" />
<polygon fill="#41401c" fill-opacity="0.501961" points="163,129 179,115 187,121" />
<polygon fill="#806037" fill-opacity="0.501961" points="80,111 102,113 84,106" />
<polygon fill="#000000" fill-opacity="0.501961" points="6,128 -4,129 -16,117" />
<polygon fill="#687430" fill-opacity="0.501961" points="236,69 225,74 205,64" />
<polygon fill="#dbd9c8" fill-opacity="0.501961" points="237,4 240,8 237,14" />
<polygon fill="#e0d0c9" fill-opacity="0.501961" points="20,105 22,115 29,115" />
<polygon fill="#655d19" fill-opacity="0.501961" points="201,148 201,131 248,114" />
<polygon fill="#0c0c18" fill-opacity="0.501961" points="164,116 171,111 178,112" />
<polygon fill="#3f4633" fill-opacity="0.501961" points="22,24 11,35 12,59" />
<polygon fill="#362f12" fill-opacity="0.501961" points="169,109 178,96 206,100" />
<polygon fill="#79903e" fill-opacity="0.501961" points="92,26 82,15 86,10" />
<polygon fill="#3c4711" fill-opacity="0.501961" points="159,21 153,19 151,21" />
<polygon fill="#e4e5a7" fill-opacity="0.501961" points="170,98 161,100 165,101" />
<polygon fill="#b4ba57" fill-opacity="0.501961" points="172,29 158,33 156,29" />
<polygon fill="#c6da63" fill-opacity="0.501961" points="200,124 206,127 201,127" />
<polygon fill="#827f5f" fill-opacity="0.501961" points="182,-16 183,8 189,-16" />
<polygon fill="#394512" fill-opacity="0.501961" points="79,68 80,40 109,67" />
<polygon fill="#a9ac84" fill-opacity="0.501961" points="210,37 210,44 215,47" />
<polygon fill="#292714" fill-opacity="0.501961" points="240,8 241,0 253,10" />
<polygon fill="#5f7730" fill-opacity="0.501961" points="26,55 9,63 10,55" />
<polygon fill="#2e3513" fill-opacity="0.501961" points="4,96 9,92 7,90" />
<polygon fill="#080a0b" fill-opacity="0.501961" points="79,45 69,11 66,48" />
<polygon fill="#182011" fill-opacity="0.501961" points="26,89 30,92 41,78" />
<polygon fill="#232414" fill-opacity="0.501961" points="134,57 105,113 107,72" />
<polygon fill="#e6e3d4" fill-opacity="0.501961" points="213,25 214,18 216,22" />
<polygon fill="#000000" fill-opacity="0.501961" points="28,123 30,128 43,129" />
<polygon fill="#3a3d20" fill-opacity="0.501961" points="192,0 187,5 206,8" />
<polygon fill="#b6bf75" fill-opacity="0.501961" points="123,15 130,17 119,18" />
<polygon fill="#ece8b9" fill-opacity="0.501961" points="174,9 171,8 170,2" />
<polygon fill="#809240" fill-opacity="0.501961" points="111,8 149,16 130,4" />
<polygon fill="#9d7e4f" fill-opacity="0.501961" points="-7,139 28,125 24,143" />
<polygon fill="#252610" fill-opacity="0.501961" points="192,87 164,96 175,87" />
<polygon fill="#545e24" fill-opacity="0.501961" points="164,24 155,33 148,33" />
<polygon fill="#3d4a10" fill-opacity="0.501961" points="223,0 236,-12 238,2" />
<polygon fill="#2f3811" fill-opacity="0.501961" points="56,18 55,59 70,59" />
<polygon fill="#92a641" fill-opacity="0.501961" points="55,101 46,104 61,94" />
<polygon fill="#d2d242" fill-opacity="0.501961" points="224,89 224,93 221,92" />
<polygon fill="#382b2a" fill-opacity="0.501961" points="52,126 34,116 46,128" />
<polygon fill="#98ae5d" fill-opacity="0.501961" points="47,92 53,83 46,88" />
<polygon fill="#b6b13e" fill-opacity="0.501961" points="23,110 15,110 12,119" />
<polygon fill="#1f2716" fill-opacity="0.501961" points="4,63 -1,3 -14,38" />
<polygon fill="#161818" fill-opacity="0.501961" points="111,44 110,16 106,32" />
<polygon fill="#736d42" fill-opacity="0.501961" points="180,108 161,114 166,108" />
<polygon fill="#66821c" fill-opacity="0.501961" points="30,77 16,70 17,63" />
<polygon fill="#fffffe" fill-opacity="0.501961" points="35,122 38,123 34,123" />
<polygon fill="#444e1c" fill-opacity="0.501961" points="113,90 135,78 112,82" />
<polygon fill="#43481e" fill-opacity="0.501961" points="251,38 243,52 240,18" />
<polygon fill="#896b34" fill-opacity="0.501961" points="26,111 22,110 17,112" />
<polygon fill="#fef9ab" fill-opacity="0.501961" points="168,106 178,93 172,96" />
<polygon fill="#fbf9aa" fill-opacity="0.501961" points="157,6 159,2 160,8" />
<polygon fill="#4f4a18" fill-opacity="0.501961" points="191,114 200,106 181,108" />
<polygon fill="#c4d153" fill-opacity="0.501961" points="199,26 202,24 196,23" />
<polygon fill="#181e16" fill-opacity="0.501961" points="21,10 35,12 35,4" />
<polygon fill="#efe0d6" fill-opacity="0.501961" points="226,8 227,10 227,9" />
<polygon fill="#5a6a2f" fill-opacity="0.501961" points="119,18 140,16 144,26" />
<polygon fill="#6a5641" fill-opacity="0.501961" points="112,124 137,120 119,118" />
<polygon fill="#eae7a1" fill-opacity="0.501961" points="18,116 9,111 5,113" />
<polygon fill="#f7eafa" fill-opacity="0.501961" points="2,105 -16,101 -16,111" />
<polygon fill="#828c87" fill-opacity="0.501961" points="9,47 11,50 10,56" />
<polygon fill="#120a00" fill-opacity="0.501961" points="8,107 8,110 3,107" />
<polygon fill="#2c3215" fill-opacity="0.501961" points="227,34 228,2 237,36" />
<polygon fill="#517112" fill-opacity="0.501961" points="65,14 65,-7 49,-16" />
<polygon fill="#7e794e" fill-opacity="0.501961" points="201,30 201,39 205,29" />
<polygon fill="#88973e" fill-opacity="0.501961" points="158,66 160,72 157,71" />
<polygon fill="#2b3414" fill-opacity="0.501961" points="179,93 172,68 163,84" />
<polygon fill="#434c17" fill-opacity="0.501961" points="218,56 242,69 209,63" />
<polygon fill="#37420f" fill-opacity="0.501961" points="217,10 229,2 215,20" />
<polygon fill="#707f0e" fill-opacity="0.501961" points="11,113 2,113 7,119" />
<polygon fill="#4b422d" fill-opacity="0.501961" points="98,130 93,129 96,121" />
<polygon fill="#bdd385" fill-opacity="0.501961" points="188,-8 135,1 129,-16" />
<polygon fill="#1f1b0f" fill-opacity="0.501961" points="74,108 91,107 74,75" />
<polygon fill="#101b09" fill-opacity="0.501961" points="130,92 150,80 128,86" />
<polygon fill="#353d15" fill-opacity="0.501961" points="221,12 240,14 213,20" />
<polygon fill="#000000" fill-opacity="0.501961" points="44,90 46,96 42,91" />
<polygon fill="#141610" fill-opacity="0.501961" points="213,17 206,1 204,23" />
<polygon fill="#8b6137" fill-opacity="0.501961" points="27,129 23,124 12,126" />
<polygon fill="#c1c085" fill-opacity="0.501961" points="154,50 161,48 157,48" />
<polygon fill="#f5f88a" fill-opacity="0.501961" points="195,21 197,22 195,26" />
<polygon fill="#89907b" fill-opacity="0.501961" points="8,39 10,34 11,46" />
<polygon fill="#4a5b21" fill-opacity="0.501961" points="133,69 136,40 151,57" />
<polygon fill="#2a2914" fill-opacity="0.501961" points="202,42 200,30 193,23" />
<polygon fill="#232910" fill-opacity="0.501961" points="9,79 15,86 13,96" />
<polygon fill="#3c4217" fill-opacity="0.501961" points="175,45 156,45 175,62" />
<polygon fill="#677732" fill-opacity="0.501961" points="197,69 199,73 191,75" />
<polygon fill="#3e3916" fill-opacity="0.501961" points="53,143 62,123 63,148" />
<polygon fill="#d0dd77" fill-opacity="0.501961" points="233,23 234,25 235,23" />
<polygon fill="#485019" fill-opacity="0.501961" points="127,11 123,4 123,15" />
<polygon fill="#364e0e" fill-opacity="0.501961" points="151,90 156,110 138,108" />
<polygon fill="#505525" fill-opacity="0.501961" points="34,89 42,81 34,84" />
<polygon fill="#d5ec50" fill-opacity="0.501961" points="15,110 18,99 14,100" />
<polygon fill="#9da875" fill-opacity="0.501961" points="189,78 191,77 190,84" />
<polygon fill="#a88c48" fill-opacity="0.501961" points="84,123 94,126 82,117" />
<polygon fill="#020703" fill-opacity="0.501961" points="64,119 77,106 83,123" />
<polygon fill="#13170b" fill-opacity="0.501961" points="250,34 249,10 246,23" />
<polygon fill="#55691e" fill-opacity="0.501961" points="252,32 234,38 253,39" />
<polygon fill="#e4e389" fill-opacity="0.501961" points="3,0 -1,-2 12,-9" />
<polygon fill="#1f1b18" fill-opacity="0.501961" points="244,113 227,117 235,119" />
<polygon fill="#9b8047" fill-opacity="0.501961" points="127,138 119,127 125,127" />
<polygon fill="#ada554" fill-opacity="0.501961" points="161,92 168,91 165,88" />
<polygon fill="#849346" fill-opacity="0.501961" points="210,71 200,77 205,71" />
<polygon fill="#232616" fill-opacity="0.501961" points="177,70 181,53 182,82" />
<polygon fill="#63761c" fill-opacity="0.501961" points="250,16 251,28 256,8" />
<polygon fill="#787941" fill-opacity="0.501961" points="153,42 164,38 179,43" />
<polygon fill="#000903" fill-opacity="0.501961" points="101,89 101,100 82,100" />
<polygon fill="#20200f" fill-opacity="0.501961" points="105,122 103,125 96,114" />
<polygon fill="#f6f6a8" fill-opacity="0.501961" points="165,19 162,23 175,21" />
<polygon fill="#485024" fill-opacity="0.501961" points="57,80 46,82 47,70" />
<polygon fill="#747c43" fill-opacity="0.501961" points="213,18 214,24 210,25" />
<polygon fill="#706c3a" fill-opacity="0.501961" points="181,70 185,66 183,53" />
<polygon fill="#454f20" fill-opacity="0.501961" points="32,31 31,13 38,12" />
<polygon fill="#ffffff" fill-opacity="0.501961" points="20,113 23,113 20,117" />
<polygon fill="#43422c" fill-opacity="0.501961" points="90,126 74,122 72,127" />
<polygon fill="#403a2d" fill-opacity="0.501961" points="-16,67 -8,134 5,117" />
<polygon fill="#57781e" fill-opacity="0.501961" points="145,91 147,84 136,90" />
<polygon fill="#a3ab48" fill-opacity="0.501961" points="198,3 205,3 191,-15" />
<polygon fill="#474e20" fill-opacity="0.501961" points="256,39 242,67 261,48" />
<polygon fill="#ccda95" fill-opacity="0.501961" points="23,38 26,39 26,40" />
<polygon fill="#1b100e" fill-opacity="0.501961" points="167,125 167,121 163,124" />
<polygon fill="#434c13" fill-opacity="0.501961" points="166,105 138,106 165,113" />
<polygon fill="#7f7748" fill-opacity="0.501961" points="249,73 245,74 243,77" />
<polygon fill="#63672e" fill-opacity="0.501961" points="159,21 167,13 169,17" />
<polygon fill="#353416" fill-opacity="0.501961" points="173,2 180,-11 193,-16" />
<polygon fill="#90ae4a" fill-opacity="0.501961" points="183,75 178,75 177,77" />
<polygon fill="#bfcf62" fill-opacity="0.501961" points="40,103 42,110 39,111" />
<polygon fill="#75783b" fill-opacity="0.501961" points="257,-8 216,-9 217,3" />
<polygon fill="#a9aa63" fill-opacity="0.501961" points="242,66 232,65 245,59" />
<polygon fill="#242412" fill-opacity="0.501961" points="206,40 203,25 202,32" />
<polygon fill="#1f2310" fill-opacity="0.501961" points="23,120 17,116 14,120" />
<polygon fill="#787a2f" fill-opacity="0.501961" points="26,103 24,96 15,92" />
<polygon fill="#ffffb4" fill-opacity="0.501961" points="163,2 129,-11 159,-16" />
<polygon fill="#060806" fill-opacity="0.501961" points="73,115 73,110 85,116" />
<polygon fill="#92a45c" fill-opacity="0.501961" points="20,26 25,16 21,5" />
<polygon fill="#567a35" fill-opacity="0.501961" points="23,33 17,33 25,18" />
<polygon fill="#272811" fill-opacity="0.501961" points="269,85 232,98 271,101" />
<polygon fill="#1d1908" fill-opacity="0.501961" points="186,76 186,62 193,70" />
<polygon fill="#454c20" fill-opacity="0.501961" points="52,106 45,111 51,103" />
<polygon fill="#ccc918" fill-opacity="0.501961" points="173,105 171,104 172,100" />
<polygon fill="#552518" fill-opacity="0.501961" points="127,107 140,119 136,100" />
<polygon fill="#969275" fill-opacity="0.501961" points="182,17 182,8 184,14" />
<polygon fill="#6b881b" fill-opacity="0.501961" points="15,110 11,97 7,102" />
<polygon fill="#61712a" fill-opacity="0.501961" points="213,38 209,42 213,32" />
<polygon fill="#6e8c13" fill-opacity="0.501961" points="26,107 21,107 23,105" />
<polygon fill="#fffff5" fill-opacity="0.501961" points="214,12 215,6 213,8" />
<polygon fill="#070202" fill-opacity="0.501961" points="201,72 205,68 200,63" />
<polygon fill="#dfe793" fill-opacity="0.501961" points="47,94 52,92 54,99" />
<polygon fill="#f8ffcd" fill-opacity="0.501961" points="187,116 185,113 188,115" />
<polygon fill="#080a08" fill-opacity="0.501961" points="210,11 203,-16 215,-16" />
<polygon fill="#110a00" fill-opacity="0.501961" points="168,140 165,129 160,137" />
<polygon fill="#2a2716" fill-opacity="0.501961" points="180,99 181,110 202,95" />
<polygon fill="#745d2f" fill-opacity="0.501961" points="180,120 153,115 165,122" />
<polygon fill="#929068" fill-opacity="0.501961" points="178,32 175,35 178,39" />
<polygon fill="#c2bd8e" fill-opacity="0.501961" points="157,56 155,57 157,55" />
<polygon fill="#edeadc" fill-opacity="0.501961" points="214,39 216,44 213,51" />
<polygon fill="#3b451f" fill-opacity="0.501961" points="8,41 -2,45 6,18" />
<polygon fill="#575c29" fill-opacity="0.501961" points="178,48 176,31 165,51" />
<polygon fill="#ffffff" fill-opacity="0.501961" points="27,117 26,114 28,113" />
<polygon fill="#808d49" fill-opacity="0.501961" points="13,10 14,-11 2,21" />
<polygon fill="#3e4c16" fill-opacity="0.501961" points="47,60 48,49 77,48" />
<polygon fill="#262414" fill-opacity="0.501961" points="224,77 215,90 200,74" />
<polygon fill="#99ae56" fill-opacity="0.501961" points="43,64 39,67 40,63" />
<polygon fill="#c8df66" fill-opacity="0.501961" points="107,-16 115,1 93,-16" />
<polygon fill="#0b0f0d" fill-opacity="0.501961" points="36,76 28,53 30,91" />
<polygon fill="#0e0f0b" fill-opacity="0.501961" points="67,105 82,107 54,112" />
<polygon fill="#070504" fill-opacity="0.501961" points="189,29 189,15 186,18" />
<polygon fill="#324e13" fill-opacity="0.501961" points="52,88 52,91 48,89" />
<polygon fill="#c5c187" fill-opacity="0.501961" points="176,5 178,-2 176,1" />
<polygon fill="#0d0e13" fill-opacity="0.501961" points="112,1 108,-2 108,8" />
<polygon fill="#060609" fill-opacity="0.501961" points="35,129 28,107 28,127" />
<polygon fill="#494e1f" fill-opacity="0.501961" points="227,13 216,18 222,45" />
<polygon fill="#93956f" fill-opacity="0.501961" points="196,18 197,13 195,10" />
<polygon fill="#2e2f0d" fill-opacity="0.501961" points="197,18 199,9 201,17" />
<polygon fill="#6f7e3d" fill-opacity="0.501961" points="148,6 158,3 146,17" />
<polygon fill="#000204" fill-opacity="0.501961" points="45,113 42,111 42,107" />
<polygon fill="#c2d484" fill-opacity="0.501961" points="141,41 141,43 137,44" />
<polygon fill="#0e160c" fill-opacity="0.501961" points="45,28 48,32 47,18" />
<polygon fill="#455215" fill-opacity="0.501961" points="97,40 98,28 75,33" />
<polygon fill="#969f60" fill-opacity="0.501961" points="195,31 196,36 194,32" />
<polygon fill="#3b4213" fill-opacity="0.501961" points="169,99 179,85 170,90" />
<polygon fill="#7a7853" fill-opacity="0.501961" points="39,117 30,118 35,116" />
<polygon fill="#656f2e" fill-opacity="0.501961" points="136,33 149,35 154,55" />
<polygon fill="#495623" fill-opacity="0.501961" points="47,23 55,48 48,56" />
<polygon fill="#f9fbcc" fill-opacity="0.501961" points="18,21 20,21 21,23" />
<polygon fill="#2c321f" fill-opacity="0.501961" points="15,26 11,27 16,16" />
<polygon fill="#979b2f" fill-opacity="0.501961" points="20,85 17,84 15,92" />
<polygon fill="#959829" fill-opacity="0.501961" points="196,112 193,118 205,109" />
<polygon fill="#8e8d53" fill-opacity="0.501961" points="119,26 119,34 130,25" />
<polygon fill="#9a928c" fill-opacity="0.501961" points="160,114 158,117 156,117" />
<polygon fill="#2e4314" fill-opacity="0.501961" points="-16,102 -7,90 2,96" />
<polygon fill="#000000" fill-opacity="0.501961" points="43,81 46,79 44,69" />
<polygon fill="#b6c184" fill-opacity="0.501961" points="145,23 144,26 149,24" />
<polygon fill="#9fa980" fill-opacity="0.501961" points="16,41 19,39 16,40" />
<polygon fill="#87a53b" fill-opacity="0.501961" points="10,70 -8,70 5,66" />
<polygon fill="#2e2e13" fill-opacity="0.501961" points="196,48 200,28 202,53" />
<polygon fill="#d2d982" fill-opacity="0.501961" points="196,116 196,114 189,115" />
<polygon fill="#726155" fill-opacity="0.501961" points="55,126 42,126 48,122" />
<polygon fill="#bdb481" fill-opacity="0.501961" points="182,30 185,36 183,40" />
<polygon fill="#5a672f" fill-opacity="0.501961" points="38,16 44,27 39,46" />
<polygon fill="#07080b" fill-opacity="0.501961" points="216,108 219,102 226,100" />
<polygon fill="#9d9a38" fill-opacity="0.501961" points="109,123 112,120 117,123" />
<polygon fill="#645727" fill-opacity="0.501961" points="196,130 189,119 198,115" />
<polygon fill="#111410" fill-opacity="0.501961" points="58,95 59,87 56,82" />
<polygon fill="#4a512f" fill-opacity="0.501961" points="208,57 211,44 213,58" />
<polygon fill="#c6e059" fill-opacity="0.501961" points="9,103 13,100 24,104" />
<polygon fill="#141e0f" fill-opacity="0.501961" points="90,52 97,45 98,56" />
<polygon fill="#f4fb9a" fill-opacity="0.501961" points="27,106 21,103 27,102" />
<polygon fill="#252c10" fill-opacity="0.501961" points="223,32 226,53 233,49" />
<polygon fill="#333b12" fill-opacity="0.501961" points="124,89 149,56 156,66" />
<polygon fill="#555924" fill-opacity="0.501961" points="239,62 231,62 237,59" />
<polygon fill="#000000" fill-opacity="0.501961" points="9,131 15,128 11,128" />
<polygon fill="#4f621b" fill-opacity="0.501961" points="150,69 137,82 167,68" />
<polygon fill="#24270d" fill-opacity="0.501961" points="161,52 151,55 163,55" />
<polygon fill="#9b9559" fill-opacity="0.501961" points="104,126 97,123 97,126" />
<polygon fill="#131112" fill-opacity="0.501961" points="39,45 35,32 35,50" />
<polygon fill="#394520" fill-opacity="0.501961" points="178,78 171,82 191,81" />
<polygon fill="#4e5a17" fill-opacity="0.501961" points="65,61 55,67 66,76" />
<polygon fill="#aba890" fill-opacity="0.501961" points="201,86 199,84 201,82" />
<polygon fill="#bbbd75" fill-opacity="0.501961" points="155,9 162,17 167,17" />
<polygon fill="#2e3319" fill-opacity="0.501961" points="190,2 194,16 194,-2" />
<polygon fill="#100a07" fill-opacity="0.501961" points="128,107 111,89 110,98" />
<polygon fill="#897d46" fill-opacity="0.501961" points="64,106 63,98 60,102" />
<polygon fill="#7b9050" fill-opacity="0.501961" points="175,83 181,83 175,80" />
<polygon fill="#afca46" fill-opacity="0.501961" points="147,19 145,14 139,12" />
<polygon fill="#3f3d26" fill-opacity="0.501961" points="87,111 95,114 88,120" />
<polygon fill="#394d15" fill-opacity="0.501961" points="12,76 -4,69 0,81" />
<polygon fill="#b4b392" fill-opacity="0.501961" points="197,6 195,4 196,12" />
<polygon fill="#dee598" fill-opacity="0.501961" points="136,36 134,38 134,40" />
<polygon fill="#a7c349" fill-opacity="0.501961" points="104,2 100,-4 109,-9" />
<polygon fill="#4d5719" fill-opacity="0.501961" points="168,39 153,35 176,30" />
<polygon fill="#e3e0d2" fill-opacity="0.501961" points="239,24 239,18 237,18" />
<polygon fill="#5d612b" fill-opacity="0.501961" points="251,60 244,56 242,69" />
<polygon fill="#7c8a31" fill-opacity="0.501961" points="54,16 55,13 61,17" />
<polygon fill="#78713c" fill-opacity="0.501961" points="100,120 101,114 93,121" />
<polygon fill="#516226" fill-opacity="0.501961" points="148,36 128,35 123,27" />
<polygon fill="#bea281" fill-opacity="0.501961" points="60,122 55,124 54,116" />
<polygon fill="#565e28" fill-opacity="0.501961" points="245,33 237,47 243,52" />
<polygon fill="#262e2b" fill-opacity="0.501961" points="256,124 271,66 255,48" />
<polygon fill="#818c5a" fill-opacity="0.501961" points="17,27 19,30 15,34" />
<polygon fill="#5e5314" fill-opacity="0.501961" points="195,133 160,148 179,128" />
<polygon fill="#dde790" fill-opacity="0.501961" points="145,-7 134,-16 149,5" />
<polygon fill="#080b0c" fill-opacity="0.501961" points="64,-15 76,0 74,31" />
<polygon fill="#e3e39c" fill-opacity="0.501961" points="191,1 191,-16 194,-7" />
<polygon fill="#feffe5" fill-opacity="0.501961" points="163,8 169,5 168,3" />
<polygon fill="#425913" fill-opacity="0.501961" points="157,20 161,25 165,25" />
<polygon fill="#f6f3de" fill-opacity="0.501961" points="149,31 151,29 147,30" />
<polygon fill="#2c3312" fill-opacity="0.501961" points="74,11 82,-4 79,24" />
<polygon fill="#323118" fill-opacity="0.501961" points="244,34 239,31 242,18" />
<polygon fill="#000000" fill-opacity="0.501961" points="45,121 41,122 44,108" />
<polygon fill="#181511" fill-opacity="0.501961" points="151,89 152,96 155,97" />
<polygon fill="#1c1910" fill-opacity="0.501961" points="178,52 183,42 179,37" />
<polygon fill="#a7954f" fill-opacity="0.501961" points="96,110 94,112 90,109" />
<polygon fill="#7f9450" fill-opacity="0.501961" points="82,27 85,25 89,26" />
<polygon fill="#989854" fill-opacity="0.501961" points="149,46 150,49 143,47" />
<polygon fill="#f8f8d1" fill-opacity="0.501961" points="18,49 21,48 20,47" />
<polygon fill="#f5f0e2" fill-opacity="0.501961" points="215,32 214,22 216,27" />
</g>
</svg>